G04 #@! TF.GenerationSoftware,KiCad,Pcbnew,5.1.12-84ad8e8a86~92~ubuntu18.04.1*
G04 #@! TF.CreationDate,2022-01-20T14:35:06+01:00*
G04 #@! TF.ProjectId,pololu-3pi+-audio-expansion,706f6c6f-6c75-42d3-9370-692b2d617564,rev?*
G04 #@! TF.SameCoordinates,Original*
G04 #@! TF.FileFunction,Copper,L1,Top*
G04 #@! TF.FilePolarity,Positive*
%FSLAX46Y46*%
G04 Gerber Fmt 4.6, Leading zero omitted, Abs format (unit mm)*
G04 Created by KiCad (PCBNEW 5.1.12-84ad8e8a86~92~ubuntu18.04.1) date 2022-01-20 14:35:06*
%MOMM*%
%LPD*%
G01*
G04 APERTURE LIST*
G04 #@! TA.AperFunction,SMDPad,CuDef*
%ADD10C,1.000000*%
G04 #@! TD*
G04 #@! TA.AperFunction,SMDPad,CuDef*
%ADD11R,1.190000X3.300000*%
G04 #@! TD*
G04 #@! TA.AperFunction,ComponentPad*
%ADD12R,1.700000X1.700000*%
G04 #@! TD*
G04 #@! TA.AperFunction,ComponentPad*
%ADD13O,1.700000X1.700000*%
G04 #@! TD*
G04 #@! TA.AperFunction,SMDPad,CuDef*
%ADD14R,1.000000X1.250000*%
G04 #@! TD*
G04 #@! TA.AperFunction,WasherPad*
%ADD15C,2.500000*%
G04 #@! TD*
G04 #@! TA.AperFunction,ComponentPad*
%ADD16O,3.800000X2.700000*%
G04 #@! TD*
G04 #@! TA.AperFunction,ComponentPad*
%ADD17R,3.800000X2.700000*%
G04 #@! TD*
G04 #@! TA.AperFunction,SMDPad,CuDef*
%ADD18R,1.000000X1.500000*%
G04 #@! TD*
G04 #@! TA.AperFunction,SMDPad,CuDef*
%ADD19R,2.400000X0.740000*%
G04 #@! TD*
G04 #@! TA.AperFunction,ComponentPad*
%ADD20C,1.700000*%
G04 #@! TD*
G04 #@! TA.AperFunction,ComponentPad*
%ADD21C,0.600000*%
G04 #@! TD*
G04 #@! TA.AperFunction,SMDPad,CuDef*
%ADD22R,1.450000X1.450000*%
G04 #@! TD*
G04 #@! TA.AperFunction,ViaPad*
%ADD23C,0.812800*%
G04 #@! TD*
G04 #@! TA.AperFunction,ViaPad*
%ADD24C,0.609600*%
G04 #@! TD*
G04 #@! TA.AperFunction,Conductor*
%ADD25C,1.422400*%
G04 #@! TD*
G04 #@! TA.AperFunction,Conductor*
%ADD26C,0.406400*%
G04 #@! TD*
G04 #@! TA.AperFunction,Conductor*
%ADD27C,0.812800*%
G04 #@! TD*
G04 #@! TA.AperFunction,Conductor*
%ADD28C,0.203200*%
G04 #@! TD*
G04 #@! TA.AperFunction,Conductor*
%ADD29C,0.100000*%
G04 #@! TD*
G04 APERTURE END LIST*
D10*
X57912000Y-44450000D03*
X8128000Y-61214000D03*
X33020000Y-1778000D03*
D11*
X60706000Y-12548000D03*
X58166000Y-18948000D03*
X55626000Y-12548000D03*
D12*
X9144000Y-43180000D03*
D13*
X9144000Y-40640000D03*
X9144000Y-38100000D03*
X9144000Y-35560000D03*
D14*
X9144000Y-79567000D03*
X9144000Y-71817000D03*
D15*
X18018760Y-26149300D03*
X25519380Y-26149300D03*
X33020000Y-26149300D03*
X40520620Y-26149300D03*
X48021240Y-26149300D03*
X63019940Y-22400260D03*
X63019940Y-29900880D03*
X3020060Y-74449940D03*
X63019940Y-74449940D03*
X48021240Y-67249040D03*
X40520620Y-67249040D03*
X33020000Y-67249040D03*
X25519380Y-67249040D03*
X18018760Y-67249040D03*
D16*
X22352000Y-9212000D03*
D17*
X22352000Y-81212000D03*
X43688000Y-81212000D03*
D16*
X43688000Y-9212000D03*
G04 #@! TA.AperFunction,SMDPad,CuDef*
G36*
G01*
X55954000Y-31336000D02*
X55954000Y-30386000D01*
G75*
G02*
X56204000Y-30136000I250000J0D01*
G01*
X56704000Y-30136000D01*
G75*
G02*
X56954000Y-30386000I0J-250000D01*
G01*
X56954000Y-31336000D01*
G75*
G02*
X56704000Y-31586000I-250000J0D01*
G01*
X56204000Y-31586000D01*
G75*
G02*
X55954000Y-31336000I0J250000D01*
G01*
G37*
G04 #@! TD.AperFunction*
G04 #@! TA.AperFunction,SMDPad,CuDef*
G36*
G01*
X57854000Y-31336000D02*
X57854000Y-30386000D01*
G75*
G02*
X58104000Y-30136000I250000J0D01*
G01*
X58604000Y-30136000D01*
G75*
G02*
X58854000Y-30386000I0J-250000D01*
G01*
X58854000Y-31336000D01*
G75*
G02*
X58604000Y-31586000I-250000J0D01*
G01*
X58104000Y-31586000D01*
G75*
G02*
X57854000Y-31336000I0J250000D01*
G01*
G37*
G04 #@! TD.AperFunction*
D18*
X59004000Y-23712000D03*
X55804000Y-23712000D03*
X59004000Y-28612000D03*
X55804000Y-28612000D03*
G04 #@! TA.AperFunction,SMDPad,CuDef*
G36*
G01*
X57671000Y-78095000D02*
X57671000Y-76845000D01*
G75*
G02*
X57921000Y-76595000I250000J0D01*
G01*
X58671000Y-76595000D01*
G75*
G02*
X58921000Y-76845000I0J-250000D01*
G01*
X58921000Y-78095000D01*
G75*
G02*
X58671000Y-78345000I-250000J0D01*
G01*
X57921000Y-78345000D01*
G75*
G02*
X57671000Y-78095000I0J250000D01*
G01*
G37*
G04 #@! TD.AperFunction*
G04 #@! TA.AperFunction,SMDPad,CuDef*
G36*
G01*
X54871000Y-78095000D02*
X54871000Y-76845000D01*
G75*
G02*
X55121000Y-76595000I250000J0D01*
G01*
X55871000Y-76595000D01*
G75*
G02*
X56121000Y-76845000I0J-250000D01*
G01*
X56121000Y-78095000D01*
G75*
G02*
X55871000Y-78345000I-250000J0D01*
G01*
X55121000Y-78345000D01*
G75*
G02*
X54871000Y-78095000I0J250000D01*
G01*
G37*
G04 #@! TD.AperFunction*
G04 #@! TA.AperFunction,SMDPad,CuDef*
G36*
G01*
X54871000Y-80381000D02*
X54871000Y-79131000D01*
G75*
G02*
X55121000Y-78881000I250000J0D01*
G01*
X55871000Y-78881000D01*
G75*
G02*
X56121000Y-79131000I0J-250000D01*
G01*
X56121000Y-80381000D01*
G75*
G02*
X55871000Y-80631000I-250000J0D01*
G01*
X55121000Y-80631000D01*
G75*
G02*
X54871000Y-80381000I0J250000D01*
G01*
G37*
G04 #@! TD.AperFunction*
G04 #@! TA.AperFunction,SMDPad,CuDef*
G36*
G01*
X57671000Y-80381000D02*
X57671000Y-79131000D01*
G75*
G02*
X57921000Y-78881000I250000J0D01*
G01*
X58671000Y-78881000D01*
G75*
G02*
X58921000Y-79131000I0J-250000D01*
G01*
X58921000Y-80381000D01*
G75*
G02*
X58671000Y-80631000I-250000J0D01*
G01*
X57921000Y-80631000D01*
G75*
G02*
X57671000Y-80381000I0J250000D01*
G01*
G37*
G04 #@! TD.AperFunction*
D19*
X4146000Y-64262000D03*
X8046000Y-64262000D03*
X4146000Y-65532000D03*
X8046000Y-65532000D03*
X4146000Y-66802000D03*
X8046000Y-66802000D03*
X4146000Y-68072000D03*
X8046000Y-68072000D03*
X4146000Y-69342000D03*
X8046000Y-69342000D03*
D13*
X55880000Y-74295000D03*
D12*
X55880000Y-71755000D03*
X3810000Y-57785000D03*
D13*
X3810000Y-60325000D03*
G04 #@! TA.AperFunction,ComponentPad*
G36*
G01*
X3722000Y-22190000D02*
X3722000Y-20990000D01*
G75*
G02*
X3972000Y-20740000I250000J0D01*
G01*
X5172000Y-20740000D01*
G75*
G02*
X5422000Y-20990000I0J-250000D01*
G01*
X5422000Y-22190000D01*
G75*
G02*
X5172000Y-22440000I-250000J0D01*
G01*
X3972000Y-22440000D01*
G75*
G02*
X3722000Y-22190000I0J250000D01*
G01*
G37*
G04 #@! TD.AperFunction*
D20*
X4572000Y-24130000D03*
X4572000Y-26670000D03*
X7112000Y-21590000D03*
X7112000Y-24130000D03*
X7112000Y-26670000D03*
D12*
X59944000Y-67056000D03*
D13*
X62484000Y-67056000D03*
D21*
X43263000Y-39541000D03*
X44113000Y-39541000D03*
X43263000Y-38691000D03*
X44113000Y-38691000D03*
D22*
X43688000Y-39116000D03*
D23*
X32258000Y-79756000D03*
X33782000Y-79756000D03*
X32258000Y-78613000D03*
X33782000Y-78613000D03*
D24*
X43942000Y-73406000D03*
D23*
X41148000Y-71120000D03*
X46482000Y-70358000D03*
X54102000Y-72771000D03*
X54102000Y-73787000D03*
X54102000Y-74803000D03*
X53086000Y-75819000D03*
X54102000Y-75819000D03*
X20955000Y-75438000D03*
X12827000Y-49403000D03*
X15875000Y-54610000D03*
X13716000Y-54610000D03*
X17462500Y-53276500D03*
X20701000Y-59309000D03*
X33782000Y-50800000D03*
X26670000Y-45212000D03*
X45910500Y-37084000D03*
X40449500Y-33464500D03*
X41427400Y-37058600D03*
X21590000Y-39751000D03*
X19050000Y-39624000D03*
X26924000Y-18288000D03*
X26924000Y-17145000D03*
X26924000Y-16002000D03*
D24*
X26670000Y-30226000D03*
D23*
X27051000Y-40767000D03*
X24892000Y-38481000D03*
X31051500Y-10033000D03*
X38709600Y-19100800D03*
X59817000Y-30861000D03*
X60452000Y-23749000D03*
X53086000Y-74803000D03*
D24*
X46736000Y-73406000D03*
X43180000Y-73406000D03*
X44196000Y-72390000D03*
X44196000Y-74422000D03*
D23*
X30353000Y-76390500D03*
X32067500Y-73342500D03*
X20955000Y-77724000D03*
X2032000Y-65532000D03*
X2032000Y-66802000D03*
X42291000Y-55118000D03*
X40005000Y-61595000D03*
X39116000Y-35052000D03*
X25908000Y-38481000D03*
X27051000Y-38481000D03*
X27051000Y-39624000D03*
X27051000Y-41910000D03*
D24*
X26670000Y-29464000D03*
D23*
X23749000Y-29464000D03*
X23749000Y-30607000D03*
D24*
X26670000Y-34544000D03*
X26670000Y-35306000D03*
X26670000Y-21844000D03*
X26670000Y-22606000D03*
X24003000Y-21844000D03*
X24003000Y-22606000D03*
X24130000Y-17526000D03*
X24130000Y-16764000D03*
X22352000Y-46672500D03*
D23*
X45910500Y-33464500D03*
X47815500Y-34417000D03*
X16891000Y-35560000D03*
X16891000Y-31877000D03*
X29718000Y-14097000D03*
X15341600Y-60071000D03*
X21844000Y-22225000D03*
X59055000Y-12573000D03*
X54991000Y-17145000D03*
X23368000Y-35687000D03*
X23368000Y-32004000D03*
X27940000Y-32385000D03*
X54991000Y-30861000D03*
D24*
X27178000Y-69977000D03*
X26416000Y-78867000D03*
X51054000Y-72390000D03*
X43053000Y-75692000D03*
X54356000Y-18923000D03*
X20193000Y-50673000D03*
X20955000Y-51054000D03*
X17297400Y-58623200D03*
X38989000Y-57023000D03*
X38989000Y-50673000D03*
X23368000Y-37465000D03*
X30480000Y-27559000D03*
X23368000Y-33782000D03*
X30480000Y-32639000D03*
X40640000Y-14097000D03*
X24003000Y-12827000D03*
X15621000Y-44069000D03*
X17780000Y-56388000D03*
X17526000Y-55372000D03*
X14732000Y-44196000D03*
X58166000Y-21209000D03*
X24130000Y-58420000D03*
X31369000Y-21844000D03*
D25*
X41910000Y-77470000D02*
X55496000Y-77470000D01*
X22352000Y-81212000D02*
X38168000Y-81212000D01*
X38168000Y-81212000D02*
X41910000Y-77470000D01*
X47752000Y-79756000D02*
X55496000Y-79756000D01*
X43688000Y-81212000D02*
X46296000Y-81212000D01*
X46296000Y-81212000D02*
X47752000Y-79756000D01*
D26*
X16891000Y-35560000D02*
X16891000Y-31877000D01*
X4597400Y-63373000D02*
X4146000Y-63824400D01*
X15036800Y-63373000D02*
X4597400Y-63373000D01*
X15341600Y-60071000D02*
X15570200Y-60299600D01*
X4146000Y-63824400D02*
X4146000Y-64262000D01*
X15570200Y-62839600D02*
X15036800Y-63373000D01*
X15570200Y-60299600D02*
X15570200Y-62839600D01*
X21844000Y-22225000D02*
X21844000Y-14097000D01*
X21844000Y-14097000D02*
X29718000Y-14097000D01*
X7112000Y-14935200D02*
X7112000Y-21590000D01*
X21844000Y-14097000D02*
X7950200Y-14097000D01*
X7950200Y-14097000D02*
X7112000Y-14935200D01*
X60681000Y-12573000D02*
X60706000Y-12548000D01*
X59055000Y-12573000D02*
X60681000Y-12573000D01*
X23495000Y-32004000D02*
X23368000Y-32004000D01*
X24003000Y-32512000D02*
X23495000Y-32004000D01*
X27940000Y-32385000D02*
X27813000Y-32512000D01*
X27813000Y-32512000D02*
X24003000Y-32512000D01*
X22606000Y-32766000D02*
X23368000Y-32004000D01*
X23368000Y-35687000D02*
X22606000Y-34925000D01*
X22606000Y-34925000D02*
X22606000Y-32766000D01*
D27*
X54991000Y-30861000D02*
X56454000Y-30861000D01*
X56454000Y-30861000D02*
X56454000Y-30165000D01*
X55804000Y-29515000D02*
X55804000Y-28612000D01*
X56454000Y-30165000D02*
X55804000Y-29515000D01*
D26*
X56769000Y-25781000D02*
X56769000Y-18008600D01*
X56769000Y-18008600D02*
X55905400Y-17145000D01*
X55804000Y-28612000D02*
X55804000Y-26746000D01*
X55905400Y-17145000D02*
X54991000Y-17145000D01*
X55804000Y-26746000D02*
X56769000Y-25781000D01*
D25*
X58296000Y-79756000D02*
X58296000Y-77470000D01*
X58296000Y-77470000D02*
X58296000Y-72520000D01*
X58296000Y-72520000D02*
X57531000Y-71755000D01*
X57531000Y-71755000D02*
X55880000Y-71755000D01*
D28*
X26416000Y-70739000D02*
X27178000Y-69977000D01*
X26416000Y-78867000D02*
X26416000Y-70739000D01*
X51054000Y-74930000D02*
X51054000Y-72390000D01*
X50292000Y-75692000D02*
X51054000Y-74930000D01*
X43053000Y-75692000D02*
X50292000Y-75692000D01*
X54356000Y-23114000D02*
X54356000Y-18923000D01*
X55804000Y-23712000D02*
X54954000Y-23712000D01*
X54954000Y-23712000D02*
X54356000Y-23114000D01*
X20345400Y-50825400D02*
X20193000Y-50673000D01*
X20345400Y-57099200D02*
X20345400Y-50825400D01*
X19888200Y-57556400D02*
X20345400Y-57099200D01*
X16891000Y-57556400D02*
X19888200Y-57556400D01*
X10261600Y-64262000D02*
X10591800Y-63931800D01*
X8046000Y-64262000D02*
X10261600Y-64262000D01*
X10591800Y-63931800D02*
X15290800Y-63931800D01*
X16129000Y-63093600D02*
X16129000Y-58318400D01*
X15290800Y-63931800D02*
X16129000Y-63093600D01*
X16129000Y-58318400D02*
X16891000Y-57556400D01*
X20751800Y-51257200D02*
X20955000Y-51054000D01*
X20751800Y-57277000D02*
X20751800Y-51257200D01*
X17068800Y-57962800D02*
X20066000Y-57962800D01*
X20066000Y-57962800D02*
X20751800Y-57277000D01*
X9575800Y-65532000D02*
X10769600Y-64338200D01*
X8046000Y-65532000D02*
X9575800Y-65532000D01*
X16535400Y-63271400D02*
X16535400Y-58496200D01*
X10769600Y-64338200D02*
X15468600Y-64338200D01*
X15468600Y-64338200D02*
X16535400Y-63271400D01*
X16535400Y-58496200D02*
X17068800Y-57962800D01*
X9626600Y-69342000D02*
X9652000Y-69316600D01*
X8046000Y-69342000D02*
X9626600Y-69342000D01*
X9652000Y-66040000D02*
X9652000Y-69316600D01*
X10947400Y-64744600D02*
X9652000Y-66040000D01*
X15646400Y-64744600D02*
X10947400Y-64744600D01*
X16941800Y-63449200D02*
X15646400Y-64744600D01*
X17297400Y-58623200D02*
X16941800Y-58978800D01*
X16941800Y-58978800D02*
X16941800Y-63449200D01*
X9144000Y-71817000D02*
X9144000Y-70866000D01*
X9144000Y-70866000D02*
X9652000Y-70358000D01*
X9652000Y-70358000D02*
X9652000Y-69316600D01*
X38989000Y-57023000D02*
X38989000Y-50673000D01*
X22504400Y-37465000D02*
X23368000Y-37465000D01*
X22047200Y-37007800D02*
X22504400Y-37465000D01*
X22047200Y-29006800D02*
X22047200Y-37007800D01*
X22733000Y-28321000D02*
X22047200Y-29006800D01*
X30480000Y-27559000D02*
X29718000Y-28321000D01*
X29718000Y-28321000D02*
X22733000Y-28321000D01*
X24003000Y-33147000D02*
X23368000Y-33782000D01*
X30480000Y-32639000D02*
X29972000Y-33147000D01*
X29972000Y-33147000D02*
X24003000Y-33147000D01*
X39370000Y-12827000D02*
X40640000Y-14097000D01*
X24003000Y-12827000D02*
X39370000Y-12827000D01*
X18211800Y-44069000D02*
X15621000Y-44069000D01*
X19050000Y-44907200D02*
X18211800Y-44069000D01*
X19050000Y-55854600D02*
X19050000Y-44907200D01*
X17780000Y-56388000D02*
X18516600Y-56388000D01*
X18516600Y-56388000D02*
X19050000Y-55854600D01*
X18643600Y-54838600D02*
X18110200Y-55372000D01*
X18211800Y-44678600D02*
X18643600Y-45110400D01*
X14732000Y-44196000D02*
X15214600Y-44678600D01*
X18110200Y-55372000D02*
X17526000Y-55372000D01*
X18643600Y-45110400D02*
X18643600Y-54838600D01*
X15214600Y-44678600D02*
X18211800Y-44678600D01*
X58166000Y-18948000D02*
X58166000Y-21209000D01*
X24130000Y-39674800D02*
X24130000Y-58420000D01*
X31369000Y-23495000D02*
X30861000Y-24003000D01*
X22148800Y-24003000D02*
X21640800Y-24511000D01*
X31369000Y-21844000D02*
X31369000Y-23495000D01*
X30861000Y-24003000D02*
X22148800Y-24003000D01*
X21640800Y-37185600D02*
X24130000Y-39674800D01*
X21640800Y-24511000D02*
X21640800Y-37185600D01*
X36339487Y-544866D02*
X38937497Y-819013D01*
X41514670Y-1246755D01*
X44061960Y-1826591D01*
X46570368Y-2556474D01*
X49031065Y-3433834D01*
X51435401Y-4455586D01*
X53774925Y-5618140D01*
X56041374Y-6917392D01*
X58226768Y-8348763D01*
X60323445Y-9907236D01*
X61077721Y-10540680D01*
X60111000Y-10540680D01*
X60041290Y-10547546D01*
X59974260Y-10567879D01*
X59912484Y-10600899D01*
X59858337Y-10645337D01*
X59813899Y-10699484D01*
X59780879Y-10761260D01*
X59760546Y-10828290D01*
X59753680Y-10898000D01*
X59753680Y-12014200D01*
X59573831Y-12014200D01*
X59540747Y-11981116D01*
X59415942Y-11897724D01*
X59277267Y-11840283D01*
X59130050Y-11811000D01*
X58979950Y-11811000D01*
X58832733Y-11840283D01*
X58694058Y-11897724D01*
X58569253Y-11981116D01*
X58463116Y-12087253D01*
X58379724Y-12212058D01*
X58322283Y-12350733D01*
X58293000Y-12497950D01*
X58293000Y-12648050D01*
X58322283Y-12795267D01*
X58379724Y-12933942D01*
X58463116Y-13058747D01*
X58569253Y-13164884D01*
X58694058Y-13248276D01*
X58832733Y-13305717D01*
X58979950Y-13335000D01*
X59130050Y-13335000D01*
X59277267Y-13305717D01*
X59415942Y-13248276D01*
X59540747Y-13164884D01*
X59573831Y-13131800D01*
X59753680Y-13131800D01*
X59753680Y-14198000D01*
X59760546Y-14267710D01*
X59780879Y-14334740D01*
X59813899Y-14396516D01*
X59858337Y-14450663D01*
X59912484Y-14495101D01*
X59974260Y-14528121D01*
X60041290Y-14548454D01*
X60111000Y-14555320D01*
X61301000Y-14555320D01*
X61370710Y-14548454D01*
X61437740Y-14528121D01*
X61499516Y-14495101D01*
X61553663Y-14450663D01*
X61598101Y-14396516D01*
X61631121Y-14334740D01*
X61651454Y-14267710D01*
X61658320Y-14198000D01*
X61658320Y-11028269D01*
X62323998Y-11587308D01*
X64223851Y-13385398D01*
X65038656Y-14226205D01*
X65299978Y-14567014D01*
X65482669Y-14936988D01*
X65590834Y-15338425D01*
X65620901Y-15701823D01*
X65620899Y-32364501D01*
X65602722Y-32549884D01*
X65554837Y-32708488D01*
X65477057Y-32854771D01*
X65372350Y-32983155D01*
X65244695Y-33088761D01*
X65098958Y-33167560D01*
X64940690Y-33216553D01*
X64756609Y-33235900D01*
X60685420Y-33235900D01*
X60667033Y-33237711D01*
X60659151Y-33237656D01*
X60653327Y-33238227D01*
X60406824Y-33264135D01*
X60369662Y-33271763D01*
X60332303Y-33278890D01*
X60326703Y-33280581D01*
X60326697Y-33280583D01*
X60089924Y-33353876D01*
X60054929Y-33368586D01*
X60019688Y-33382825D01*
X60014525Y-33385570D01*
X60014521Y-33385572D01*
X60014520Y-33385573D01*
X59796490Y-33503462D01*
X59765022Y-33524688D01*
X59733217Y-33545501D01*
X59728681Y-33549199D01*
X59537701Y-33707192D01*
X59510960Y-33734120D01*
X59483796Y-33760722D01*
X59480066Y-33765231D01*
X59323411Y-33957309D01*
X59302408Y-33988922D01*
X59280931Y-34020288D01*
X59278147Y-34025436D01*
X59161783Y-34244284D01*
X59147329Y-34279352D01*
X59132344Y-34314315D01*
X59130614Y-34319906D01*
X59058974Y-34557187D01*
X59051602Y-34594417D01*
X59043698Y-34631604D01*
X59043086Y-34637424D01*
X59018899Y-34884102D01*
X59018899Y-34884114D01*
X59016899Y-34904420D01*
X59016901Y-53995580D01*
X59018711Y-54013958D01*
X59018656Y-54021849D01*
X59019227Y-54027673D01*
X59045135Y-54274176D01*
X59052772Y-54311380D01*
X59059891Y-54348699D01*
X59061582Y-54354302D01*
X59134877Y-54591077D01*
X59149607Y-54626118D01*
X59163826Y-54661310D01*
X59166573Y-54666478D01*
X59284461Y-54884507D01*
X59305675Y-54915958D01*
X59326501Y-54947783D01*
X59330200Y-54952318D01*
X59488192Y-55143298D01*
X59515101Y-55170020D01*
X59541721Y-55197203D01*
X59546231Y-55200933D01*
X59738308Y-55357588D01*
X59769939Y-55378603D01*
X59801288Y-55400068D01*
X59806436Y-55402852D01*
X60025284Y-55519216D01*
X60060376Y-55533680D01*
X60095317Y-55548655D01*
X60100908Y-55550386D01*
X60338190Y-55622025D01*
X60375453Y-55629403D01*
X60412605Y-55637300D01*
X60418425Y-55637912D01*
X60665102Y-55662099D01*
X60665113Y-55662099D01*
X60685419Y-55664099D01*
X64749502Y-55664099D01*
X64934887Y-55682276D01*
X65093486Y-55730160D01*
X65239771Y-55807942D01*
X65368159Y-55912653D01*
X65473762Y-56040306D01*
X65552562Y-56186042D01*
X65601552Y-56344306D01*
X65620901Y-56528400D01*
X65620900Y-74114157D01*
X65578454Y-74544957D01*
X65458731Y-74940825D01*
X65264388Y-75305915D01*
X64992628Y-75638841D01*
X63098718Y-77470564D01*
X61090260Y-79194683D01*
X59234482Y-80605529D01*
X59266651Y-80499482D01*
X59278320Y-80381000D01*
X59278320Y-80181269D01*
X59286363Y-80166222D01*
X59347364Y-79965129D01*
X59362800Y-79808402D01*
X59362800Y-74291802D01*
X61414340Y-74291802D01*
X61414340Y-74608078D01*
X61476042Y-74918276D01*
X61597076Y-75210477D01*
X61772789Y-75473450D01*
X61996430Y-75697091D01*
X62259403Y-75872804D01*
X62551604Y-75993838D01*
X62861802Y-76055540D01*
X63178078Y-76055540D01*
X63488276Y-75993838D01*
X63780477Y-75872804D01*
X64043450Y-75697091D01*
X64267091Y-75473450D01*
X64442804Y-75210477D01*
X64563838Y-74918276D01*
X64625540Y-74608078D01*
X64625540Y-74291802D01*
X64563838Y-73981604D01*
X64442804Y-73689403D01*
X64267091Y-73426430D01*
X64043450Y-73202789D01*
X63780477Y-73027076D01*
X63488276Y-72906042D01*
X63178078Y-72844340D01*
X62861802Y-72844340D01*
X62551604Y-72906042D01*
X62259403Y-73027076D01*
X61996430Y-73202789D01*
X61772789Y-73426430D01*
X61597076Y-73689403D01*
X61476042Y-73981604D01*
X61414340Y-74291802D01*
X59362800Y-74291802D01*
X59362800Y-72572390D01*
X59367960Y-72519999D01*
X59362800Y-72467608D01*
X59362800Y-72467598D01*
X59347364Y-72310871D01*
X59286363Y-72109778D01*
X59187303Y-71924450D01*
X59053991Y-71762009D01*
X59013287Y-71728604D01*
X58322400Y-71037718D01*
X58288991Y-70997009D01*
X58126550Y-70863697D01*
X57941222Y-70764637D01*
X57740129Y-70703636D01*
X57583402Y-70688200D01*
X57583399Y-70688200D01*
X57531000Y-70683039D01*
X57478601Y-70688200D01*
X57012095Y-70688200D01*
X56982663Y-70652337D01*
X56928516Y-70607899D01*
X56866740Y-70574879D01*
X56799710Y-70554546D01*
X56730000Y-70547680D01*
X55030000Y-70547680D01*
X54960290Y-70554546D01*
X54893260Y-70574879D01*
X54831484Y-70607899D01*
X54777337Y-70652337D01*
X54732899Y-70706484D01*
X54699879Y-70768260D01*
X54679546Y-70835290D01*
X54672680Y-70905000D01*
X54672680Y-72605000D01*
X54679546Y-72674710D01*
X54699879Y-72741740D01*
X54732899Y-72803516D01*
X54777337Y-72857663D01*
X54831484Y-72902101D01*
X54893260Y-72935121D01*
X54960290Y-72955454D01*
X55030000Y-72962320D01*
X55473598Y-72962320D01*
X55473598Y-73045501D01*
X55259298Y-72973937D01*
X55013498Y-73120414D01*
X54800997Y-73312029D01*
X54629962Y-73541420D01*
X54558953Y-73674301D01*
X54637579Y-73888600D01*
X55473600Y-73888600D01*
X55473600Y-73868600D01*
X56286400Y-73868600D01*
X56286400Y-73888600D01*
X56306400Y-73888600D01*
X56306400Y-74701400D01*
X56286400Y-74701400D01*
X56286400Y-75544498D01*
X56500702Y-75616063D01*
X56746502Y-75469586D01*
X56959003Y-75277971D01*
X57130038Y-75048580D01*
X57201047Y-74915699D01*
X57122422Y-74701402D01*
X57229201Y-74701402D01*
X57229200Y-77522401D01*
X57229201Y-77522411D01*
X57229200Y-79808401D01*
X57244636Y-79965128D01*
X57305637Y-80166221D01*
X57313680Y-80181268D01*
X57313680Y-80381000D01*
X57325349Y-80499482D01*
X57359909Y-80613411D01*
X57416032Y-80718409D01*
X57491560Y-80810440D01*
X57583591Y-80885968D01*
X57688589Y-80942091D01*
X57802518Y-80976651D01*
X57921000Y-80988320D01*
X58671000Y-80988320D01*
X58701769Y-80985290D01*
X56784574Y-82270860D01*
X54500163Y-83613462D01*
X53208838Y-84294120D01*
X52572745Y-84541932D01*
X51905392Y-84660627D01*
X51645167Y-84670900D01*
X14404515Y-84670905D01*
X13729117Y-84605536D01*
X13087813Y-84412792D01*
X12845067Y-84301275D01*
X10583881Y-83072746D01*
X9818109Y-82597655D01*
X13833400Y-82597655D01*
X13833400Y-82756345D01*
X13864359Y-82911985D01*
X13925087Y-83058595D01*
X14013250Y-83190540D01*
X14125460Y-83302750D01*
X14257405Y-83390913D01*
X14404015Y-83451641D01*
X14559655Y-83482600D01*
X14718345Y-83482600D01*
X14873985Y-83451641D01*
X15020595Y-83390913D01*
X15152540Y-83302750D01*
X15264750Y-83190540D01*
X15352913Y-83058595D01*
X15413641Y-82911985D01*
X15444600Y-82756345D01*
X15444600Y-82597655D01*
X18083400Y-82597655D01*
X18083400Y-82756345D01*
X18114359Y-82911985D01*
X18175087Y-83058595D01*
X18263250Y-83190540D01*
X18375460Y-83302750D01*
X18507405Y-83390913D01*
X18654015Y-83451641D01*
X18809655Y-83482600D01*
X18968345Y-83482600D01*
X19123985Y-83451641D01*
X19270595Y-83390913D01*
X19402540Y-83302750D01*
X19514750Y-83190540D01*
X19602913Y-83058595D01*
X19663641Y-82911985D01*
X19694600Y-82756345D01*
X19694600Y-82597655D01*
X19663641Y-82442015D01*
X19602913Y-82295405D01*
X19514750Y-82163460D01*
X19402540Y-82051250D01*
X19270595Y-81963087D01*
X19123985Y-81902359D01*
X18968345Y-81871400D01*
X18809655Y-81871400D01*
X18654015Y-81902359D01*
X18507405Y-81963087D01*
X18375460Y-82051250D01*
X18263250Y-82163460D01*
X18175087Y-82295405D01*
X18114359Y-82442015D01*
X18083400Y-82597655D01*
X15444600Y-82597655D01*
X15413641Y-82442015D01*
X15352913Y-82295405D01*
X15264750Y-82163460D01*
X15152540Y-82051250D01*
X15020595Y-81963087D01*
X14873985Y-81902359D01*
X14718345Y-81871400D01*
X14559655Y-81871400D01*
X14404015Y-81902359D01*
X14257405Y-81963087D01*
X14125460Y-82051250D01*
X14013250Y-82163460D01*
X13925087Y-82295405D01*
X13864359Y-82442015D01*
X13833400Y-82597655D01*
X9818109Y-82597655D01*
X8395486Y-81715050D01*
X6288863Y-80233626D01*
X6236374Y-80192000D01*
X8031450Y-80192000D01*
X8043220Y-80311503D01*
X8078078Y-80426413D01*
X8134683Y-80532315D01*
X8210862Y-80625138D01*
X8303685Y-80701317D01*
X8409587Y-80757922D01*
X8524497Y-80792780D01*
X8644000Y-80804550D01*
X8839200Y-80801600D01*
X8991600Y-80649200D01*
X8991600Y-79719400D01*
X9296400Y-79719400D01*
X9296400Y-80649200D01*
X9448800Y-80801600D01*
X9644000Y-80804550D01*
X9763503Y-80792780D01*
X9878413Y-80757922D01*
X9984315Y-80701317D01*
X10077138Y-80625138D01*
X10153317Y-80532315D01*
X10209922Y-80426413D01*
X10244780Y-80311503D01*
X10256550Y-80192000D01*
X10253600Y-79871800D01*
X10243800Y-79862000D01*
X20094680Y-79862000D01*
X20094680Y-82562000D01*
X20101546Y-82631710D01*
X20121879Y-82698740D01*
X20154899Y-82760516D01*
X20199337Y-82814663D01*
X20253484Y-82859101D01*
X20315260Y-82892121D01*
X20382290Y-82912454D01*
X20452000Y-82919320D01*
X24252000Y-82919320D01*
X24321710Y-82912454D01*
X24388740Y-82892121D01*
X24450516Y-82859101D01*
X24504663Y-82814663D01*
X24549101Y-82760516D01*
X24582121Y-82698740D01*
X24602454Y-82631710D01*
X24609320Y-82562000D01*
X24609320Y-82278800D01*
X38115601Y-82278800D01*
X38168000Y-82283961D01*
X38220399Y-82278800D01*
X38220402Y-82278800D01*
X38377129Y-82263364D01*
X38578222Y-82202363D01*
X38763550Y-82103303D01*
X38925991Y-81969991D01*
X38959400Y-81929282D01*
X42351883Y-78536800D01*
X54706621Y-78536800D01*
X54783591Y-78599968D01*
X54807972Y-78613000D01*
X54783591Y-78626032D01*
X54706621Y-78689200D01*
X47804399Y-78689200D01*
X47752000Y-78684039D01*
X47699601Y-78689200D01*
X47699598Y-78689200D01*
X47542871Y-78704636D01*
X47363608Y-78759015D01*
X47341778Y-78765637D01*
X47156449Y-78864697D01*
X47074169Y-78932223D01*
X46994009Y-78998009D01*
X46960604Y-79038713D01*
X45945320Y-80053998D01*
X45945320Y-79862000D01*
X45938454Y-79792290D01*
X45918121Y-79725260D01*
X45885101Y-79663484D01*
X45840663Y-79609337D01*
X45786516Y-79564899D01*
X45724740Y-79531879D01*
X45657710Y-79511546D01*
X45588000Y-79504680D01*
X41788000Y-79504680D01*
X41718290Y-79511546D01*
X41651260Y-79531879D01*
X41589484Y-79564899D01*
X41535337Y-79609337D01*
X41490899Y-79663484D01*
X41457879Y-79725260D01*
X41437546Y-79792290D01*
X41430680Y-79862000D01*
X41430680Y-82562000D01*
X41437546Y-82631710D01*
X41457879Y-82698740D01*
X41490899Y-82760516D01*
X41535337Y-82814663D01*
X41589484Y-82859101D01*
X41651260Y-82892121D01*
X41718290Y-82912454D01*
X41788000Y-82919320D01*
X45588000Y-82919320D01*
X45657710Y-82912454D01*
X45724740Y-82892121D01*
X45786516Y-82859101D01*
X45840663Y-82814663D01*
X45885101Y-82760516D01*
X45918121Y-82698740D01*
X45938454Y-82631710D01*
X45945320Y-82562000D01*
X45945320Y-82278800D01*
X46243601Y-82278800D01*
X46296000Y-82283961D01*
X46348399Y-82278800D01*
X46348402Y-82278800D01*
X46505129Y-82263364D01*
X46706222Y-82202363D01*
X46891550Y-82103303D01*
X47053991Y-81969991D01*
X47087400Y-81929282D01*
X48193883Y-80822800D01*
X54706621Y-80822800D01*
X54783591Y-80885968D01*
X54888589Y-80942091D01*
X55002518Y-80976651D01*
X55121000Y-80988320D01*
X55871000Y-80988320D01*
X55989482Y-80976651D01*
X56103411Y-80942091D01*
X56208409Y-80885968D01*
X56300440Y-80810440D01*
X56375968Y-80718409D01*
X56432091Y-80613411D01*
X56466651Y-80499482D01*
X56478320Y-80381000D01*
X56478320Y-80181269D01*
X56486363Y-80166222D01*
X56547364Y-79965129D01*
X56567961Y-79756000D01*
X56547364Y-79546871D01*
X56486363Y-79345778D01*
X56478320Y-79330731D01*
X56478320Y-79131000D01*
X56466651Y-79012518D01*
X56432091Y-78898589D01*
X56375968Y-78793591D01*
X56300440Y-78701560D01*
X56208409Y-78626032D01*
X56184028Y-78613000D01*
X56208409Y-78599968D01*
X56300440Y-78524440D01*
X56375968Y-78432409D01*
X56432091Y-78327411D01*
X56466651Y-78213482D01*
X56478320Y-78095000D01*
X56478320Y-77895269D01*
X56486363Y-77880222D01*
X56547364Y-77679129D01*
X56567961Y-77470000D01*
X56547364Y-77260871D01*
X56486363Y-77059778D01*
X56478320Y-77044731D01*
X56478320Y-76845000D01*
X56466651Y-76726518D01*
X56432091Y-76612589D01*
X56375968Y-76507591D01*
X56300440Y-76415560D01*
X56208409Y-76340032D01*
X56103411Y-76283909D01*
X55989482Y-76249349D01*
X55871000Y-76237680D01*
X55121000Y-76237680D01*
X55002518Y-76249349D01*
X54888589Y-76283909D01*
X54783591Y-76340032D01*
X54706621Y-76403200D01*
X41962398Y-76403200D01*
X41909999Y-76398039D01*
X41857600Y-76403200D01*
X41857598Y-76403200D01*
X41700871Y-76418636D01*
X41499778Y-76479637D01*
X41314449Y-76578697D01*
X41208018Y-76666043D01*
X41152009Y-76712009D01*
X41118604Y-76752713D01*
X37726118Y-80145200D01*
X24609320Y-80145200D01*
X24609320Y-79862000D01*
X24602454Y-79792290D01*
X24582121Y-79725260D01*
X24549101Y-79663484D01*
X24504663Y-79609337D01*
X24450516Y-79564899D01*
X24388740Y-79531879D01*
X24321710Y-79511546D01*
X24252000Y-79504680D01*
X20452000Y-79504680D01*
X20382290Y-79511546D01*
X20315260Y-79531879D01*
X20253484Y-79564899D01*
X20199337Y-79609337D01*
X20154899Y-79663484D01*
X20121879Y-79725260D01*
X20101546Y-79792290D01*
X20094680Y-79862000D01*
X10243800Y-79862000D01*
X10101200Y-79719400D01*
X9296400Y-79719400D01*
X8991600Y-79719400D01*
X8186800Y-79719400D01*
X8034400Y-79871800D01*
X8031450Y-80192000D01*
X6236374Y-80192000D01*
X4660157Y-78942000D01*
X8031450Y-78942000D01*
X8034400Y-79262200D01*
X8186800Y-79414600D01*
X8991600Y-79414600D01*
X8991600Y-78484800D01*
X9296400Y-78484800D01*
X9296400Y-79414600D01*
X10101200Y-79414600D01*
X10253600Y-79262200D01*
X10256550Y-78942000D01*
X10244780Y-78822497D01*
X10238549Y-78801956D01*
X25755600Y-78801956D01*
X25755600Y-78932044D01*
X25780979Y-79059631D01*
X25830761Y-79179817D01*
X25903034Y-79287980D01*
X25995020Y-79379966D01*
X26103183Y-79452239D01*
X26223369Y-79502021D01*
X26350956Y-79527400D01*
X26481044Y-79527400D01*
X26608631Y-79502021D01*
X26728817Y-79452239D01*
X26836980Y-79379966D01*
X26928966Y-79287980D01*
X27001239Y-79179817D01*
X27051021Y-79059631D01*
X27076400Y-78932044D01*
X27076400Y-78914655D01*
X30014400Y-78914655D01*
X30014400Y-79073345D01*
X30045359Y-79228985D01*
X30106087Y-79375595D01*
X30194250Y-79507540D01*
X30306460Y-79619750D01*
X30438405Y-79707913D01*
X30585015Y-79768641D01*
X30740655Y-79799600D01*
X30899345Y-79799600D01*
X31054985Y-79768641D01*
X31201595Y-79707913D01*
X31333540Y-79619750D01*
X31445750Y-79507540D01*
X31533913Y-79375595D01*
X31594641Y-79228985D01*
X31625600Y-79073345D01*
X31625600Y-78914655D01*
X34414400Y-78914655D01*
X34414400Y-79073345D01*
X34445359Y-79228985D01*
X34506087Y-79375595D01*
X34594250Y-79507540D01*
X34706460Y-79619750D01*
X34838405Y-79707913D01*
X34985015Y-79768641D01*
X35140655Y-79799600D01*
X35299345Y-79799600D01*
X35454985Y-79768641D01*
X35601595Y-79707913D01*
X35733540Y-79619750D01*
X35845750Y-79507540D01*
X35933913Y-79375595D01*
X35994641Y-79228985D01*
X36025600Y-79073345D01*
X36025600Y-78914655D01*
X35994641Y-78759015D01*
X35933913Y-78612405D01*
X35845750Y-78480460D01*
X35733540Y-78368250D01*
X35601595Y-78280087D01*
X35454985Y-78219359D01*
X35299345Y-78188400D01*
X35140655Y-78188400D01*
X34985015Y-78219359D01*
X34838405Y-78280087D01*
X34706460Y-78368250D01*
X34594250Y-78480460D01*
X34506087Y-78612405D01*
X34445359Y-78759015D01*
X34414400Y-78914655D01*
X31625600Y-78914655D01*
X31594641Y-78759015D01*
X31533913Y-78612405D01*
X31445750Y-78480460D01*
X31333540Y-78368250D01*
X31201595Y-78280087D01*
X31054985Y-78219359D01*
X30899345Y-78188400D01*
X30740655Y-78188400D01*
X30585015Y-78219359D01*
X30438405Y-78280087D01*
X30306460Y-78368250D01*
X30194250Y-78480460D01*
X30106087Y-78612405D01*
X30045359Y-78759015D01*
X30014400Y-78914655D01*
X27076400Y-78914655D01*
X27076400Y-78801956D01*
X27051021Y-78674369D01*
X27001239Y-78554183D01*
X26928966Y-78446020D01*
X26873200Y-78390254D01*
X26873200Y-75626956D01*
X42392600Y-75626956D01*
X42392600Y-75757044D01*
X42417979Y-75884631D01*
X42467761Y-76004817D01*
X42540034Y-76112980D01*
X42632020Y-76204966D01*
X42740183Y-76277239D01*
X42860369Y-76327021D01*
X42987956Y-76352400D01*
X43118044Y-76352400D01*
X43245631Y-76327021D01*
X43365817Y-76277239D01*
X43473980Y-76204966D01*
X43529746Y-76149200D01*
X50269550Y-76149200D01*
X50292000Y-76151411D01*
X50314450Y-76149200D01*
X50314460Y-76149200D01*
X50381627Y-76142585D01*
X50467809Y-76116441D01*
X50547236Y-76073987D01*
X50616853Y-76016853D01*
X50631174Y-75999403D01*
X51361415Y-75269164D01*
X51378853Y-75254853D01*
X51393165Y-75237414D01*
X51393171Y-75237408D01*
X51435987Y-75185236D01*
X51478441Y-75105810D01*
X51493254Y-75056979D01*
X51504585Y-75019627D01*
X51511200Y-74952460D01*
X51511200Y-74952450D01*
X51513411Y-74930000D01*
X51512003Y-74915699D01*
X54558953Y-74915699D01*
X54629962Y-75048580D01*
X54800997Y-75277971D01*
X55013498Y-75469586D01*
X55259298Y-75616063D01*
X55473600Y-75544498D01*
X55473600Y-74701400D01*
X54637579Y-74701400D01*
X54558953Y-74915699D01*
X51512003Y-74915699D01*
X51511200Y-74907550D01*
X51511200Y-72866746D01*
X51566966Y-72810980D01*
X51639239Y-72702817D01*
X51689021Y-72582631D01*
X51714400Y-72455044D01*
X51714400Y-72324956D01*
X51689021Y-72197369D01*
X51639239Y-72077183D01*
X51566966Y-71969020D01*
X51474980Y-71877034D01*
X51366817Y-71804761D01*
X51246631Y-71754979D01*
X51119044Y-71729600D01*
X50988956Y-71729600D01*
X50861369Y-71754979D01*
X50741183Y-71804761D01*
X50633020Y-71877034D01*
X50541034Y-71969020D01*
X50468761Y-72077183D01*
X50418979Y-72197369D01*
X50393600Y-72324956D01*
X50393600Y-72455044D01*
X50418979Y-72582631D01*
X50468761Y-72702817D01*
X50541034Y-72810980D01*
X50596801Y-72866747D01*
X50596800Y-74740621D01*
X50102623Y-75234800D01*
X43529746Y-75234800D01*
X43473980Y-75179034D01*
X43365817Y-75106761D01*
X43245631Y-75056979D01*
X43118044Y-75031600D01*
X42987956Y-75031600D01*
X42860369Y-75056979D01*
X42740183Y-75106761D01*
X42632020Y-75179034D01*
X42540034Y-75271020D01*
X42467761Y-75379183D01*
X42417979Y-75499369D01*
X42392600Y-75626956D01*
X26873200Y-75626956D01*
X26873200Y-70928377D01*
X27164178Y-70637400D01*
X27243044Y-70637400D01*
X27370631Y-70612021D01*
X27490817Y-70562239D01*
X27598980Y-70489966D01*
X27690966Y-70397980D01*
X27763239Y-70289817D01*
X27813021Y-70169631D01*
X27838400Y-70042044D01*
X27838400Y-69911956D01*
X27813021Y-69784369D01*
X27763239Y-69664183D01*
X27690966Y-69556020D01*
X27598980Y-69464034D01*
X27490817Y-69391761D01*
X27370631Y-69341979D01*
X27243044Y-69316600D01*
X27112956Y-69316600D01*
X26985369Y-69341979D01*
X26865183Y-69391761D01*
X26757020Y-69464034D01*
X26665034Y-69556020D01*
X26592761Y-69664183D01*
X26542979Y-69784369D01*
X26517600Y-69911956D01*
X26517600Y-69990822D01*
X26108592Y-70399831D01*
X26091148Y-70414147D01*
X26076831Y-70431592D01*
X26076830Y-70431593D01*
X26034013Y-70483765D01*
X25999851Y-70547680D01*
X25991560Y-70563191D01*
X25976379Y-70613236D01*
X25965416Y-70649374D01*
X25956589Y-70739000D01*
X25958801Y-70761460D01*
X25958800Y-78390254D01*
X25903034Y-78446020D01*
X25830761Y-78554183D01*
X25780979Y-78674369D01*
X25755600Y-78801956D01*
X10238549Y-78801956D01*
X10209922Y-78707587D01*
X10153317Y-78601685D01*
X10077138Y-78508862D01*
X9984315Y-78432683D01*
X9878413Y-78376078D01*
X9763503Y-78341220D01*
X9644000Y-78329450D01*
X9448800Y-78332400D01*
X9296400Y-78484800D01*
X8991600Y-78484800D01*
X8839200Y-78332400D01*
X8644000Y-78329450D01*
X8524497Y-78341220D01*
X8409587Y-78376078D01*
X8303685Y-78432683D01*
X8210862Y-78508862D01*
X8134683Y-78601685D01*
X8078078Y-78707587D01*
X8043220Y-78822497D01*
X8031450Y-78942000D01*
X4660157Y-78942000D01*
X4271031Y-78633409D01*
X2347410Y-76918577D01*
X1026107Y-75617152D01*
X759495Y-75281123D01*
X570295Y-74913438D01*
X455721Y-74514638D01*
X435386Y-74291802D01*
X1414460Y-74291802D01*
X1414460Y-74608078D01*
X1476162Y-74918276D01*
X1597196Y-75210477D01*
X1772909Y-75473450D01*
X1996550Y-75697091D01*
X2259523Y-75872804D01*
X2551724Y-75993838D01*
X2861922Y-76055540D01*
X3178198Y-76055540D01*
X3488396Y-75993838D01*
X3780597Y-75872804D01*
X4043570Y-75697091D01*
X4267211Y-75473450D01*
X4442924Y-75210477D01*
X4563958Y-74918276D01*
X4625660Y-74608078D01*
X4625660Y-74291802D01*
X4563958Y-73981604D01*
X4442924Y-73689403D01*
X4267211Y-73426430D01*
X4043570Y-73202789D01*
X3780597Y-73027076D01*
X3488396Y-72906042D01*
X3178198Y-72844340D01*
X2861922Y-72844340D01*
X2551724Y-72906042D01*
X2259523Y-73027076D01*
X1996550Y-73202789D01*
X1772909Y-73426430D01*
X1597196Y-73689403D01*
X1476162Y-73981604D01*
X1414460Y-74291802D01*
X435386Y-74291802D01*
X419099Y-74113342D01*
X419099Y-67172000D01*
X2333450Y-67172000D01*
X2345220Y-67291503D01*
X2380078Y-67406413D01*
X2436683Y-67512315D01*
X2512862Y-67605138D01*
X2591837Y-67669952D01*
X2588680Y-67702000D01*
X2588680Y-68442000D01*
X2595546Y-68511710D01*
X2615879Y-68578740D01*
X2648899Y-68640516D01*
X2693337Y-68694663D01*
X2708369Y-68707000D01*
X2693337Y-68719337D01*
X2648899Y-68773484D01*
X2615879Y-68835260D01*
X2595546Y-68902290D01*
X2588680Y-68972000D01*
X2588680Y-69712000D01*
X2595546Y-69781710D01*
X2615879Y-69848740D01*
X2648899Y-69910516D01*
X2693337Y-69964663D01*
X2747484Y-70009101D01*
X2809260Y-70042121D01*
X2876290Y-70062454D01*
X2946000Y-70069320D01*
X5346000Y-70069320D01*
X5415710Y-70062454D01*
X5482740Y-70042121D01*
X5544516Y-70009101D01*
X5598663Y-69964663D01*
X5643101Y-69910516D01*
X5676121Y-69848740D01*
X5696454Y-69781710D01*
X5703320Y-69712000D01*
X5703320Y-68972000D01*
X5696454Y-68902290D01*
X5676121Y-68835260D01*
X5643101Y-68773484D01*
X5598663Y-68719337D01*
X5583631Y-68707000D01*
X5598663Y-68694663D01*
X5643101Y-68640516D01*
X5676121Y-68578740D01*
X5696454Y-68511710D01*
X5703320Y-68442000D01*
X5703320Y-67702000D01*
X5700163Y-67669952D01*
X5779138Y-67605138D01*
X5855317Y-67512315D01*
X5911922Y-67406413D01*
X5946780Y-67291503D01*
X5958550Y-67172000D01*
X5955600Y-67106800D01*
X5803200Y-66954400D01*
X4298400Y-66954400D01*
X4298400Y-66974400D01*
X3993600Y-66974400D01*
X3993600Y-66954400D01*
X2488800Y-66954400D01*
X2336400Y-67106800D01*
X2333450Y-67172000D01*
X419099Y-67172000D01*
X419099Y-65902000D01*
X2333450Y-65902000D01*
X2345220Y-66021503D01*
X2380078Y-66136413D01*
X2396427Y-66167000D01*
X2380078Y-66197587D01*
X2345220Y-66312497D01*
X2333450Y-66432000D01*
X2336400Y-66497200D01*
X2488800Y-66649600D01*
X3993600Y-66649600D01*
X3993600Y-65684400D01*
X4298400Y-65684400D01*
X4298400Y-66649600D01*
X5803200Y-66649600D01*
X5955600Y-66497200D01*
X5958550Y-66432000D01*
X5946780Y-66312497D01*
X5911922Y-66197587D01*
X5895573Y-66167000D01*
X5911922Y-66136413D01*
X5946780Y-66021503D01*
X5958550Y-65902000D01*
X5955600Y-65836800D01*
X5803200Y-65684400D01*
X4298400Y-65684400D01*
X3993600Y-65684400D01*
X2488800Y-65684400D01*
X2336400Y-65836800D01*
X2333450Y-65902000D01*
X419099Y-65902000D01*
X419100Y-65162000D01*
X2333450Y-65162000D01*
X2336400Y-65227200D01*
X2488800Y-65379600D01*
X3993600Y-65379600D01*
X3993600Y-65359600D01*
X4298400Y-65359600D01*
X4298400Y-65379600D01*
X5803200Y-65379600D01*
X5955600Y-65227200D01*
X5958550Y-65162000D01*
X5946780Y-65042497D01*
X5911922Y-64927587D01*
X5855317Y-64821685D01*
X5779138Y-64728862D01*
X5700163Y-64664048D01*
X5703320Y-64632000D01*
X5703320Y-63931800D01*
X6488680Y-63931800D01*
X6488680Y-64632000D01*
X6495546Y-64701710D01*
X6515879Y-64768740D01*
X6548899Y-64830516D01*
X6593337Y-64884663D01*
X6608369Y-64897000D01*
X6593337Y-64909337D01*
X6548899Y-64963484D01*
X6515879Y-65025260D01*
X6495546Y-65092290D01*
X6488680Y-65162000D01*
X6488680Y-65902000D01*
X6495546Y-65971710D01*
X6515879Y-66038740D01*
X6548899Y-66100516D01*
X6593337Y-66154663D01*
X6608369Y-66167000D01*
X6593337Y-66179337D01*
X6548899Y-66233484D01*
X6515879Y-66295260D01*
X6495546Y-66362290D01*
X6488680Y-66432000D01*
X6488680Y-67172000D01*
X6495546Y-67241710D01*
X6515879Y-67308740D01*
X6548899Y-67370516D01*
X6593337Y-67424663D01*
X6608369Y-67437000D01*
X6593337Y-67449337D01*
X6548899Y-67503484D01*
X6515879Y-67565260D01*
X6495546Y-67632290D01*
X6488680Y-67702000D01*
X6488680Y-68442000D01*
X6495546Y-68511710D01*
X6515879Y-68578740D01*
X6548899Y-68640516D01*
X6593337Y-68694663D01*
X6608369Y-68707000D01*
X6593337Y-68719337D01*
X6548899Y-68773484D01*
X6515879Y-68835260D01*
X6495546Y-68902290D01*
X6488680Y-68972000D01*
X6488680Y-69712000D01*
X6495546Y-69781710D01*
X6515879Y-69848740D01*
X6548899Y-69910516D01*
X6593337Y-69964663D01*
X6647484Y-70009101D01*
X6709260Y-70042121D01*
X6776290Y-70062454D01*
X6846000Y-70069320D01*
X9194800Y-70069320D01*
X9194800Y-70168622D01*
X8836592Y-70526831D01*
X8819148Y-70541147D01*
X8804831Y-70558592D01*
X8804830Y-70558593D01*
X8762013Y-70610765D01*
X8723482Y-70682853D01*
X8719560Y-70690191D01*
X8704754Y-70739000D01*
X8693416Y-70776374D01*
X8687674Y-70834680D01*
X8644000Y-70834680D01*
X8574290Y-70841546D01*
X8507260Y-70861879D01*
X8445484Y-70894899D01*
X8391337Y-70939337D01*
X8346899Y-70993484D01*
X8313879Y-71055260D01*
X8293546Y-71122290D01*
X8286680Y-71192000D01*
X8286680Y-72442000D01*
X8293546Y-72511710D01*
X8313879Y-72578740D01*
X8346899Y-72640516D01*
X8391337Y-72694663D01*
X8445484Y-72739101D01*
X8507260Y-72772121D01*
X8574290Y-72792454D01*
X8644000Y-72799320D01*
X9644000Y-72799320D01*
X9713710Y-72792454D01*
X9780740Y-72772121D01*
X9842516Y-72739101D01*
X9896663Y-72694663D01*
X9941101Y-72640516D01*
X9974121Y-72578740D01*
X9994454Y-72511710D01*
X10001320Y-72442000D01*
X10001320Y-71192000D01*
X9994454Y-71122290D01*
X9974121Y-71055260D01*
X9941101Y-70993484D01*
X9896663Y-70939337D01*
X9842516Y-70894899D01*
X9789836Y-70866741D01*
X9959409Y-70697169D01*
X9976853Y-70682853D01*
X10014156Y-70637400D01*
X10033987Y-70613237D01*
X10069027Y-70547680D01*
X10076441Y-70533809D01*
X10102585Y-70447627D01*
X10109200Y-70380460D01*
X10109200Y-70380451D01*
X10111411Y-70358001D01*
X10109200Y-70335551D01*
X10109200Y-69339050D01*
X10111411Y-69316601D01*
X10109200Y-69294151D01*
X10109200Y-67090902D01*
X16413160Y-67090902D01*
X16413160Y-67407178D01*
X16474862Y-67717376D01*
X16595896Y-68009577D01*
X16771609Y-68272550D01*
X16995250Y-68496191D01*
X17258223Y-68671904D01*
X17550424Y-68792938D01*
X17860622Y-68854640D01*
X18176898Y-68854640D01*
X18487096Y-68792938D01*
X18779297Y-68671904D01*
X19042270Y-68496191D01*
X19265911Y-68272550D01*
X19441624Y-68009577D01*
X19562658Y-67717376D01*
X19624360Y-67407178D01*
X19624360Y-67090902D01*
X23913780Y-67090902D01*
X23913780Y-67407178D01*
X23975482Y-67717376D01*
X24096516Y-68009577D01*
X24272229Y-68272550D01*
X24495870Y-68496191D01*
X24758843Y-68671904D01*
X25051044Y-68792938D01*
X25361242Y-68854640D01*
X25677518Y-68854640D01*
X25987716Y-68792938D01*
X26279917Y-68671904D01*
X26542890Y-68496191D01*
X26766531Y-68272550D01*
X26942244Y-68009577D01*
X27063278Y-67717376D01*
X27124980Y-67407178D01*
X27124980Y-67090902D01*
X31414400Y-67090902D01*
X31414400Y-67407178D01*
X31476102Y-67717376D01*
X31597136Y-68009577D01*
X31772849Y-68272550D01*
X31996490Y-68496191D01*
X32259463Y-68671904D01*
X32551664Y-68792938D01*
X32861862Y-68854640D01*
X33178138Y-68854640D01*
X33488336Y-68792938D01*
X33780537Y-68671904D01*
X34043510Y-68496191D01*
X34267151Y-68272550D01*
X34442864Y-68009577D01*
X34563898Y-67717376D01*
X34625600Y-67407178D01*
X34625600Y-67090902D01*
X38915020Y-67090902D01*
X38915020Y-67407178D01*
X38976722Y-67717376D01*
X39097756Y-68009577D01*
X39273469Y-68272550D01*
X39497110Y-68496191D01*
X39760083Y-68671904D01*
X40052284Y-68792938D01*
X40362482Y-68854640D01*
X40678758Y-68854640D01*
X40988956Y-68792938D01*
X41281157Y-68671904D01*
X41544130Y-68496191D01*
X41767771Y-68272550D01*
X41943484Y-68009577D01*
X42064518Y-67717376D01*
X42126220Y-67407178D01*
X42126220Y-67090902D01*
X46415640Y-67090902D01*
X46415640Y-67407178D01*
X46477342Y-67717376D01*
X46598376Y-68009577D01*
X46774089Y-68272550D01*
X46997730Y-68496191D01*
X47260703Y-68671904D01*
X47552904Y-68792938D01*
X47863102Y-68854640D01*
X48179378Y-68854640D01*
X48489576Y-68792938D01*
X48781777Y-68671904D01*
X49044750Y-68496191D01*
X49268391Y-68272550D01*
X49444104Y-68009577D01*
X49565138Y-67717376D01*
X49626840Y-67407178D01*
X49626840Y-67090902D01*
X49565138Y-66780704D01*
X49444104Y-66488503D01*
X49268391Y-66225530D01*
X49248861Y-66206000D01*
X58736680Y-66206000D01*
X58736680Y-67906000D01*
X58743546Y-67975710D01*
X58763879Y-68042740D01*
X58796899Y-68104516D01*
X58841337Y-68158663D01*
X58895484Y-68203101D01*
X58957260Y-68236121D01*
X59024290Y-68256454D01*
X59094000Y-68263320D01*
X60794000Y-68263320D01*
X60863710Y-68256454D01*
X60930740Y-68236121D01*
X60992516Y-68203101D01*
X61046663Y-68158663D01*
X61091101Y-68104516D01*
X61124121Y-68042740D01*
X61144454Y-67975710D01*
X61151320Y-67906000D01*
X61151320Y-66937259D01*
X61278400Y-66937259D01*
X61278400Y-67174741D01*
X61324731Y-67407660D01*
X61415611Y-67627066D01*
X61547550Y-67824525D01*
X61715475Y-67992450D01*
X61912934Y-68124389D01*
X62132340Y-68215269D01*
X62365259Y-68261600D01*
X62602741Y-68261600D01*
X62835660Y-68215269D01*
X63055066Y-68124389D01*
X63252525Y-67992450D01*
X63420450Y-67824525D01*
X63552389Y-67627066D01*
X63643269Y-67407660D01*
X63689600Y-67174741D01*
X63689600Y-66937259D01*
X63643269Y-66704340D01*
X63552389Y-66484934D01*
X63420450Y-66287475D01*
X63252525Y-66119550D01*
X63055066Y-65987611D01*
X62835660Y-65896731D01*
X62602741Y-65850400D01*
X62365259Y-65850400D01*
X62132340Y-65896731D01*
X61912934Y-65987611D01*
X61715475Y-66119550D01*
X61547550Y-66287475D01*
X61415611Y-66484934D01*
X61324731Y-66704340D01*
X61278400Y-66937259D01*
X61151320Y-66937259D01*
X61151320Y-66206000D01*
X61144454Y-66136290D01*
X61124121Y-66069260D01*
X61091101Y-66007484D01*
X61046663Y-65953337D01*
X60992516Y-65908899D01*
X60930740Y-65875879D01*
X60863710Y-65855546D01*
X60794000Y-65848680D01*
X59094000Y-65848680D01*
X59024290Y-65855546D01*
X58957260Y-65875879D01*
X58895484Y-65908899D01*
X58841337Y-65953337D01*
X58796899Y-66007484D01*
X58763879Y-66069260D01*
X58743546Y-66136290D01*
X58736680Y-66206000D01*
X49248861Y-66206000D01*
X49044750Y-66001889D01*
X48781777Y-65826176D01*
X48489576Y-65705142D01*
X48179378Y-65643440D01*
X47863102Y-65643440D01*
X47552904Y-65705142D01*
X47260703Y-65826176D01*
X46997730Y-66001889D01*
X46774089Y-66225530D01*
X46598376Y-66488503D01*
X46477342Y-66780704D01*
X46415640Y-67090902D01*
X42126220Y-67090902D01*
X42064518Y-66780704D01*
X41943484Y-66488503D01*
X41767771Y-66225530D01*
X41544130Y-66001889D01*
X41281157Y-65826176D01*
X40988956Y-65705142D01*
X40678758Y-65643440D01*
X40362482Y-65643440D01*
X40052284Y-65705142D01*
X39760083Y-65826176D01*
X39497110Y-66001889D01*
X39273469Y-66225530D01*
X39097756Y-66488503D01*
X38976722Y-66780704D01*
X38915020Y-67090902D01*
X34625600Y-67090902D01*
X34563898Y-66780704D01*
X34442864Y-66488503D01*
X34267151Y-66225530D01*
X34043510Y-66001889D01*
X33780537Y-65826176D01*
X33488336Y-65705142D01*
X33178138Y-65643440D01*
X32861862Y-65643440D01*
X32551664Y-65705142D01*
X32259463Y-65826176D01*
X31996490Y-66001889D01*
X31772849Y-66225530D01*
X31597136Y-66488503D01*
X31476102Y-66780704D01*
X31414400Y-67090902D01*
X27124980Y-67090902D01*
X27063278Y-66780704D01*
X26942244Y-66488503D01*
X26766531Y-66225530D01*
X26542890Y-66001889D01*
X26279917Y-65826176D01*
X25987716Y-65705142D01*
X25677518Y-65643440D01*
X25361242Y-65643440D01*
X25051044Y-65705142D01*
X24758843Y-65826176D01*
X24495870Y-66001889D01*
X24272229Y-66225530D01*
X24096516Y-66488503D01*
X23975482Y-66780704D01*
X23913780Y-67090902D01*
X19624360Y-67090902D01*
X19562658Y-66780704D01*
X19441624Y-66488503D01*
X19265911Y-66225530D01*
X19042270Y-66001889D01*
X18779297Y-65826176D01*
X18487096Y-65705142D01*
X18176898Y-65643440D01*
X17860622Y-65643440D01*
X17550424Y-65705142D01*
X17258223Y-65826176D01*
X16995250Y-66001889D01*
X16771609Y-66225530D01*
X16595896Y-66488503D01*
X16474862Y-66780704D01*
X16413160Y-67090902D01*
X10109200Y-67090902D01*
X10109200Y-66229377D01*
X11136778Y-65201800D01*
X15623950Y-65201800D01*
X15646400Y-65204011D01*
X15668850Y-65201800D01*
X15668860Y-65201800D01*
X15736027Y-65195185D01*
X15822209Y-65169041D01*
X15901636Y-65126587D01*
X15971253Y-65069453D01*
X15985574Y-65052003D01*
X17249208Y-63788370D01*
X17266653Y-63774053D01*
X17287439Y-63748726D01*
X17323787Y-63704437D01*
X17351073Y-63653387D01*
X17366241Y-63625009D01*
X17392385Y-63538827D01*
X17399000Y-63471660D01*
X17399000Y-63471651D01*
X17401211Y-63449201D01*
X17399000Y-63426751D01*
X17399000Y-59276328D01*
X17490031Y-59258221D01*
X17610217Y-59208439D01*
X17718380Y-59136166D01*
X17810366Y-59044180D01*
X17882639Y-58936017D01*
X17932421Y-58815831D01*
X17957800Y-58688244D01*
X17957800Y-58558156D01*
X17932421Y-58430569D01*
X17928043Y-58420000D01*
X20043550Y-58420000D01*
X20066000Y-58422211D01*
X20088450Y-58420000D01*
X20088460Y-58420000D01*
X20155627Y-58413385D01*
X20241809Y-58387241D01*
X20321236Y-58344787D01*
X20390853Y-58287653D01*
X20405174Y-58270203D01*
X21059215Y-57616164D01*
X21076653Y-57601853D01*
X21090965Y-57584414D01*
X21090971Y-57584408D01*
X21133787Y-57532236D01*
X21176241Y-57452810D01*
X21190748Y-57404987D01*
X21202385Y-57366627D01*
X21209000Y-57299460D01*
X21209000Y-57299450D01*
X21211211Y-57277000D01*
X21209000Y-57254550D01*
X21209000Y-51663601D01*
X21267817Y-51639239D01*
X21375980Y-51566966D01*
X21467966Y-51474980D01*
X21540239Y-51366817D01*
X21590021Y-51246631D01*
X21615400Y-51119044D01*
X21615400Y-50988956D01*
X21590021Y-50861369D01*
X21540239Y-50741183D01*
X21467966Y-50633020D01*
X21375980Y-50541034D01*
X21267817Y-50468761D01*
X21147631Y-50418979D01*
X21020044Y-50393600D01*
X20889956Y-50393600D01*
X20799531Y-50411587D01*
X20778239Y-50360183D01*
X20705966Y-50252020D01*
X20613980Y-50160034D01*
X20505817Y-50087761D01*
X20385631Y-50037979D01*
X20258044Y-50012600D01*
X20127956Y-50012600D01*
X20000369Y-50037979D01*
X19880183Y-50087761D01*
X19772020Y-50160034D01*
X19680034Y-50252020D01*
X19607761Y-50360183D01*
X19557979Y-50480369D01*
X19532600Y-50607956D01*
X19532600Y-50738044D01*
X19557979Y-50865631D01*
X19607761Y-50985817D01*
X19680034Y-51093980D01*
X19772020Y-51185966D01*
X19880183Y-51258239D01*
X19888201Y-51261560D01*
X19888200Y-56909822D01*
X19698823Y-57099200D01*
X16913450Y-57099200D01*
X16891000Y-57096989D01*
X16868550Y-57099200D01*
X16868540Y-57099200D01*
X16801373Y-57105815D01*
X16735249Y-57125874D01*
X16715190Y-57131959D01*
X16635764Y-57174413D01*
X16583592Y-57217229D01*
X16583586Y-57217235D01*
X16566147Y-57231547D01*
X16551835Y-57248987D01*
X15821592Y-57979231D01*
X15804148Y-57993547D01*
X15789831Y-58010992D01*
X15789830Y-58010993D01*
X15747013Y-58063165D01*
X15721855Y-58110234D01*
X15704560Y-58142591D01*
X15681674Y-58218035D01*
X15678416Y-58228774D01*
X15669589Y-58318400D01*
X15671801Y-58340860D01*
X15671801Y-59382991D01*
X15563867Y-59338283D01*
X15416650Y-59309000D01*
X15266550Y-59309000D01*
X15119333Y-59338283D01*
X14980658Y-59395724D01*
X14855853Y-59479116D01*
X14749716Y-59585253D01*
X14666324Y-59710058D01*
X14608883Y-59848733D01*
X14579600Y-59995950D01*
X14579600Y-60146050D01*
X14608883Y-60293267D01*
X14666324Y-60431942D01*
X14749716Y-60556747D01*
X14855853Y-60662884D01*
X14980658Y-60746276D01*
X15011400Y-60759010D01*
X15011401Y-62608136D01*
X14805338Y-62814200D01*
X4624841Y-62814200D01*
X4597399Y-62811497D01*
X4569957Y-62814200D01*
X4569956Y-62814200D01*
X4487856Y-62822286D01*
X4382522Y-62854239D01*
X4285446Y-62906127D01*
X4200357Y-62975957D01*
X4182862Y-62997275D01*
X3770280Y-63409858D01*
X3748957Y-63427357D01*
X3679127Y-63512446D01*
X3667243Y-63534680D01*
X2946000Y-63534680D01*
X2876290Y-63541546D01*
X2809260Y-63561879D01*
X2747484Y-63594899D01*
X2693337Y-63639337D01*
X2648899Y-63693484D01*
X2615879Y-63755260D01*
X2595546Y-63822290D01*
X2588680Y-63892000D01*
X2588680Y-64632000D01*
X2591837Y-64664048D01*
X2512862Y-64728862D01*
X2436683Y-64821685D01*
X2380078Y-64927587D01*
X2345220Y-65042497D01*
X2333450Y-65162000D01*
X419100Y-65162000D01*
X419100Y-60206259D01*
X2604400Y-60206259D01*
X2604400Y-60443741D01*
X2650731Y-60676660D01*
X2741611Y-60896066D01*
X2873550Y-61093525D01*
X3041475Y-61261450D01*
X3238934Y-61393389D01*
X3458340Y-61484269D01*
X3691259Y-61530600D01*
X3928741Y-61530600D01*
X4161660Y-61484269D01*
X4381066Y-61393389D01*
X4578525Y-61261450D01*
X4734473Y-61105502D01*
X7026400Y-61105502D01*
X7026400Y-61322498D01*
X7068734Y-61535325D01*
X7151775Y-61735803D01*
X7272332Y-61916229D01*
X7425771Y-62069668D01*
X7606197Y-62190225D01*
X7806675Y-62273266D01*
X8019502Y-62315600D01*
X8236498Y-62315600D01*
X8449325Y-62273266D01*
X8649803Y-62190225D01*
X8830229Y-62069668D01*
X8983668Y-61916229D01*
X9104225Y-61735803D01*
X9187266Y-61535325D01*
X9229600Y-61322498D01*
X9229600Y-61105502D01*
X9187266Y-60892675D01*
X9104225Y-60692197D01*
X8983668Y-60511771D01*
X8830229Y-60358332D01*
X8649803Y-60237775D01*
X8449325Y-60154734D01*
X8236498Y-60112400D01*
X8019502Y-60112400D01*
X7806675Y-60154734D01*
X7606197Y-60237775D01*
X7425771Y-60358332D01*
X7272332Y-60511771D01*
X7151775Y-60692197D01*
X7068734Y-60892675D01*
X7026400Y-61105502D01*
X4734473Y-61105502D01*
X4746450Y-61093525D01*
X4878389Y-60896066D01*
X4969269Y-60676660D01*
X5015600Y-60443741D01*
X5015600Y-60206259D01*
X4969269Y-59973340D01*
X4878389Y-59753934D01*
X4746450Y-59556475D01*
X4578525Y-59388550D01*
X4381066Y-59256611D01*
X4161660Y-59165731D01*
X3928741Y-59119400D01*
X3691259Y-59119400D01*
X3458340Y-59165731D01*
X3238934Y-59256611D01*
X3041475Y-59388550D01*
X2873550Y-59556475D01*
X2741611Y-59753934D01*
X2650731Y-59973340D01*
X2604400Y-60206259D01*
X419100Y-60206259D01*
X419100Y-56935000D01*
X2602680Y-56935000D01*
X2602680Y-58635000D01*
X2609546Y-58704710D01*
X2629879Y-58771740D01*
X2662899Y-58833516D01*
X2707337Y-58887663D01*
X2761484Y-58932101D01*
X2823260Y-58965121D01*
X2890290Y-58985454D01*
X2960000Y-58992320D01*
X4660000Y-58992320D01*
X4729710Y-58985454D01*
X4796740Y-58965121D01*
X4858516Y-58932101D01*
X4912663Y-58887663D01*
X4957101Y-58833516D01*
X4990121Y-58771740D01*
X5010454Y-58704710D01*
X5017320Y-58635000D01*
X5017320Y-56935000D01*
X5010454Y-56865290D01*
X4990121Y-56798260D01*
X4957101Y-56736484D01*
X4912663Y-56682337D01*
X4858516Y-56637899D01*
X4796740Y-56604879D01*
X4729710Y-56584546D01*
X4660000Y-56577680D01*
X2960000Y-56577680D01*
X2890290Y-56584546D01*
X2823260Y-56604879D01*
X2761484Y-56637899D01*
X2707337Y-56682337D01*
X2662899Y-56736484D01*
X2629879Y-56798260D01*
X2609546Y-56865290D01*
X2602680Y-56935000D01*
X419100Y-56935000D01*
X419101Y-56535499D01*
X437278Y-56350115D01*
X485163Y-56191512D01*
X562943Y-56045229D01*
X667654Y-55916841D01*
X795305Y-55811239D01*
X941040Y-55732441D01*
X1099310Y-55683447D01*
X1283391Y-55664100D01*
X5354580Y-55664100D01*
X5372967Y-55662289D01*
X5380849Y-55662344D01*
X5386673Y-55661773D01*
X5633176Y-55635865D01*
X5670338Y-55628237D01*
X5707697Y-55621110D01*
X5713300Y-55619418D01*
X5950076Y-55546124D01*
X5985058Y-55531419D01*
X6020313Y-55517175D01*
X6025475Y-55514430D01*
X6025479Y-55514428D01*
X6025482Y-55514426D01*
X6243510Y-55396538D01*
X6274977Y-55375314D01*
X6306784Y-55354499D01*
X6311317Y-55350802D01*
X6311321Y-55350799D01*
X6311325Y-55350795D01*
X6502299Y-55192808D01*
X6529021Y-55165899D01*
X6556204Y-55139279D01*
X6559934Y-55134769D01*
X6716589Y-54942692D01*
X6737604Y-54911061D01*
X6759069Y-54879712D01*
X6761853Y-54874564D01*
X6878217Y-54655716D01*
X6892671Y-54620648D01*
X6907656Y-54585685D01*
X6909386Y-54580094D01*
X6981026Y-54342813D01*
X6988399Y-54305576D01*
X6996302Y-54268396D01*
X6996914Y-54262576D01*
X7021101Y-54015898D01*
X7021101Y-54015886D01*
X7023101Y-53995580D01*
X7023101Y-42330000D01*
X7936680Y-42330000D01*
X7936680Y-44030000D01*
X7943546Y-44099710D01*
X7963879Y-44166740D01*
X7996899Y-44228516D01*
X8041337Y-44282663D01*
X8095484Y-44327101D01*
X8157260Y-44360121D01*
X8224290Y-44380454D01*
X8294000Y-44387320D01*
X9994000Y-44387320D01*
X10063710Y-44380454D01*
X10130740Y-44360121D01*
X10192516Y-44327101D01*
X10246663Y-44282663D01*
X10291101Y-44228516D01*
X10324121Y-44166740D01*
X10334975Y-44130956D01*
X14071600Y-44130956D01*
X14071600Y-44261044D01*
X14096979Y-44388631D01*
X14146761Y-44508817D01*
X14219034Y-44616980D01*
X14311020Y-44708966D01*
X14419183Y-44781239D01*
X14539369Y-44831021D01*
X14666956Y-44856400D01*
X14745822Y-44856400D01*
X14875429Y-44986007D01*
X14889747Y-45003453D01*
X14907192Y-45017770D01*
X14959363Y-45060587D01*
X15001313Y-45083009D01*
X15038791Y-45103041D01*
X15124973Y-45129185D01*
X15192140Y-45135800D01*
X15192149Y-45135800D01*
X15214599Y-45138011D01*
X15237049Y-45135800D01*
X18022423Y-45135800D01*
X18186400Y-45299778D01*
X18186401Y-54649221D01*
X17961784Y-54873838D01*
X17946980Y-54859034D01*
X17838817Y-54786761D01*
X17718631Y-54736979D01*
X17591044Y-54711600D01*
X17460956Y-54711600D01*
X17333369Y-54736979D01*
X17213183Y-54786761D01*
X17105020Y-54859034D01*
X17013034Y-54951020D01*
X16940761Y-55059183D01*
X16890979Y-55179369D01*
X16865600Y-55306956D01*
X16865600Y-55437044D01*
X16890979Y-55564631D01*
X16940761Y-55684817D01*
X17013034Y-55792980D01*
X17105020Y-55884966D01*
X17213183Y-55957239D01*
X17260479Y-55976830D01*
X17194761Y-56075183D01*
X17144979Y-56195369D01*
X17119600Y-56322956D01*
X17119600Y-56453044D01*
X17144979Y-56580631D01*
X17194761Y-56700817D01*
X17267034Y-56808980D01*
X17359020Y-56900966D01*
X17467183Y-56973239D01*
X17587369Y-57023021D01*
X17714956Y-57048400D01*
X17845044Y-57048400D01*
X17972631Y-57023021D01*
X18092817Y-56973239D01*
X18200980Y-56900966D01*
X18256746Y-56845200D01*
X18494150Y-56845200D01*
X18516600Y-56847411D01*
X18539050Y-56845200D01*
X18539060Y-56845200D01*
X18606227Y-56838585D01*
X18692409Y-56812441D01*
X18771836Y-56769987D01*
X18841453Y-56712853D01*
X18855774Y-56695403D01*
X19357414Y-56193764D01*
X19374853Y-56179453D01*
X19389165Y-56162014D01*
X19389171Y-56162008D01*
X19431987Y-56109836D01*
X19474441Y-56030410D01*
X19500585Y-55944227D01*
X19501907Y-55930800D01*
X19507200Y-55877060D01*
X19507200Y-55877052D01*
X19509411Y-55854600D01*
X19507200Y-55832148D01*
X19507200Y-44929650D01*
X19509411Y-44907200D01*
X19507200Y-44884750D01*
X19507200Y-44884740D01*
X19500585Y-44817573D01*
X19474441Y-44731391D01*
X19431987Y-44651964D01*
X19374853Y-44582347D01*
X19357408Y-44568030D01*
X18550974Y-43761597D01*
X18536653Y-43744147D01*
X18467036Y-43687013D01*
X18387609Y-43644559D01*
X18301427Y-43618415D01*
X18234260Y-43611800D01*
X18234250Y-43611800D01*
X18211800Y-43609589D01*
X18189350Y-43611800D01*
X16097746Y-43611800D01*
X16041980Y-43556034D01*
X15933817Y-43483761D01*
X15813631Y-43433979D01*
X15686044Y-43408600D01*
X15555956Y-43408600D01*
X15428369Y-43433979D01*
X15308183Y-43483761D01*
X15200020Y-43556034D01*
X15108034Y-43648020D01*
X15105733Y-43651464D01*
X15044817Y-43610761D01*
X14924631Y-43560979D01*
X14797044Y-43535600D01*
X14666956Y-43535600D01*
X14539369Y-43560979D01*
X14419183Y-43610761D01*
X14311020Y-43683034D01*
X14219034Y-43775020D01*
X14146761Y-43883183D01*
X14096979Y-44003369D01*
X14071600Y-44130956D01*
X10334975Y-44130956D01*
X10344454Y-44099710D01*
X10351320Y-44030000D01*
X10351320Y-42330000D01*
X10344454Y-42260290D01*
X10324121Y-42193260D01*
X10291101Y-42131484D01*
X10246663Y-42077337D01*
X10192516Y-42032899D01*
X10130740Y-41999879D01*
X10063710Y-41979546D01*
X9994000Y-41972680D01*
X8294000Y-41972680D01*
X8224290Y-41979546D01*
X8157260Y-41999879D01*
X8095484Y-42032899D01*
X8041337Y-42077337D01*
X7996899Y-42131484D01*
X7963879Y-42193260D01*
X7943546Y-42260290D01*
X7936680Y-42330000D01*
X7023101Y-42330000D01*
X7023101Y-40521259D01*
X7938400Y-40521259D01*
X7938400Y-40758741D01*
X7984731Y-40991660D01*
X8075611Y-41211066D01*
X8207550Y-41408525D01*
X8375475Y-41576450D01*
X8572934Y-41708389D01*
X8792340Y-41799269D01*
X9025259Y-41845600D01*
X9262741Y-41845600D01*
X9495660Y-41799269D01*
X9715066Y-41708389D01*
X9912525Y-41576450D01*
X10080450Y-41408525D01*
X10212389Y-41211066D01*
X10303269Y-40991660D01*
X10349600Y-40758741D01*
X10349600Y-40521259D01*
X10303269Y-40288340D01*
X10212389Y-40068934D01*
X10080450Y-39871475D01*
X9912525Y-39703550D01*
X9715066Y-39571611D01*
X9495660Y-39480731D01*
X9262741Y-39434400D01*
X9025259Y-39434400D01*
X8792340Y-39480731D01*
X8572934Y-39571611D01*
X8375475Y-39703550D01*
X8207550Y-39871475D01*
X8075611Y-40068934D01*
X7984731Y-40288340D01*
X7938400Y-40521259D01*
X7023101Y-40521259D01*
X7023100Y-35937607D01*
X7734090Y-35937607D01*
X7761911Y-36029338D01*
X7880031Y-36289952D01*
X8046724Y-36522514D01*
X8255585Y-36718087D01*
X8498587Y-36869156D01*
X8743068Y-36961140D01*
X8572934Y-37031611D01*
X8375475Y-37163550D01*
X8207550Y-37331475D01*
X8075611Y-37528934D01*
X7984731Y-37748340D01*
X7938400Y-37981259D01*
X7938400Y-38218741D01*
X7984731Y-38451660D01*
X8075611Y-38671066D01*
X8207550Y-38868525D01*
X8375475Y-39036450D01*
X8572934Y-39168389D01*
X8792340Y-39259269D01*
X9025259Y-39305600D01*
X9262741Y-39305600D01*
X9495660Y-39259269D01*
X9715066Y-39168389D01*
X9912525Y-39036450D01*
X10080450Y-38868525D01*
X10212389Y-38671066D01*
X10303269Y-38451660D01*
X10349600Y-38218741D01*
X10349600Y-37981259D01*
X10303269Y-37748340D01*
X10212389Y-37528934D01*
X10080450Y-37331475D01*
X9912525Y-37163550D01*
X9715066Y-37031611D01*
X9544932Y-36961140D01*
X9789413Y-36869156D01*
X10032415Y-36718087D01*
X10241276Y-36522514D01*
X10407969Y-36289952D01*
X10526089Y-36029338D01*
X10553910Y-35937607D01*
X10442286Y-35712400D01*
X9296400Y-35712400D01*
X9296400Y-35732400D01*
X8991600Y-35732400D01*
X8991600Y-35712400D01*
X7845714Y-35712400D01*
X7734090Y-35937607D01*
X7023100Y-35937607D01*
X7023100Y-35182393D01*
X7734090Y-35182393D01*
X7845714Y-35407600D01*
X8991600Y-35407600D01*
X8991600Y-34260772D01*
X9296400Y-34260772D01*
X9296400Y-35407600D01*
X10442286Y-35407600D01*
X10553910Y-35182393D01*
X10526089Y-35090662D01*
X10407969Y-34830048D01*
X10241276Y-34597486D01*
X10032415Y-34401913D01*
X9789413Y-34250844D01*
X9521608Y-34150085D01*
X9296400Y-34260772D01*
X8991600Y-34260772D01*
X8766392Y-34150085D01*
X8498587Y-34250844D01*
X8255585Y-34401913D01*
X8046724Y-34597486D01*
X7880031Y-34830048D01*
X7761911Y-35090662D01*
X7734090Y-35182393D01*
X7023100Y-35182393D01*
X7023099Y-34904420D01*
X7021289Y-34886042D01*
X7021344Y-34878151D01*
X7020773Y-34872327D01*
X6994865Y-34625824D01*
X6987228Y-34588620D01*
X6980109Y-34551301D01*
X6978418Y-34545698D01*
X6905123Y-34308923D01*
X6890399Y-34273895D01*
X6876174Y-34238689D01*
X6873427Y-34233522D01*
X6755539Y-34015492D01*
X6734301Y-33984006D01*
X6713499Y-33952218D01*
X6709801Y-33947682D01*
X6551808Y-33756702D01*
X6524880Y-33729961D01*
X6498278Y-33702797D01*
X6493769Y-33699067D01*
X6301691Y-33542412D01*
X6270078Y-33521409D01*
X6238712Y-33499932D01*
X6233564Y-33497148D01*
X6014716Y-33380784D01*
X5979636Y-33366325D01*
X5944683Y-33351345D01*
X5939093Y-33349614D01*
X5701810Y-33277975D01*
X5664547Y-33270597D01*
X5627395Y-33262700D01*
X5621575Y-33262088D01*
X5374898Y-33237901D01*
X5374887Y-33237901D01*
X5354581Y-33235901D01*
X1290498Y-33235901D01*
X1105113Y-33217724D01*
X946514Y-33169840D01*
X800229Y-33092058D01*
X671845Y-32987351D01*
X566237Y-32859693D01*
X487438Y-32713957D01*
X438448Y-32555694D01*
X419099Y-32371600D01*
X419099Y-31801950D01*
X16129000Y-31801950D01*
X16129000Y-31952050D01*
X16158283Y-32099267D01*
X16215724Y-32237942D01*
X16299116Y-32362747D01*
X16332201Y-32395832D01*
X16332200Y-35041169D01*
X16299116Y-35074253D01*
X16215724Y-35199058D01*
X16158283Y-35337733D01*
X16129000Y-35484950D01*
X16129000Y-35635050D01*
X16158283Y-35782267D01*
X16215724Y-35920942D01*
X16299116Y-36045747D01*
X16405253Y-36151884D01*
X16530058Y-36235276D01*
X16668733Y-36292717D01*
X16815950Y-36322000D01*
X16966050Y-36322000D01*
X17113267Y-36292717D01*
X17251942Y-36235276D01*
X17376747Y-36151884D01*
X17482884Y-36045747D01*
X17566276Y-35920942D01*
X17623717Y-35782267D01*
X17653000Y-35635050D01*
X17653000Y-35484950D01*
X17623717Y-35337733D01*
X17566276Y-35199058D01*
X17482884Y-35074253D01*
X17449800Y-35041169D01*
X17449800Y-32395831D01*
X17482884Y-32362747D01*
X17566276Y-32237942D01*
X17623717Y-32099267D01*
X17653000Y-31952050D01*
X17653000Y-31801950D01*
X17623717Y-31654733D01*
X17566276Y-31516058D01*
X17482884Y-31391253D01*
X17376747Y-31285116D01*
X17251942Y-31201724D01*
X17113267Y-31144283D01*
X16966050Y-31115000D01*
X16815950Y-31115000D01*
X16668733Y-31144283D01*
X16530058Y-31201724D01*
X16405253Y-31285116D01*
X16299116Y-31391253D01*
X16215724Y-31516058D01*
X16158283Y-31654733D01*
X16129000Y-31801950D01*
X419099Y-31801950D01*
X419100Y-26551259D01*
X3366400Y-26551259D01*
X3366400Y-26788741D01*
X3412731Y-27021660D01*
X3503611Y-27241066D01*
X3635550Y-27438525D01*
X3803475Y-27606450D01*
X4000934Y-27738389D01*
X4220340Y-27829269D01*
X4453259Y-27875600D01*
X4690741Y-27875600D01*
X4923660Y-27829269D01*
X5143066Y-27738389D01*
X5199295Y-27700817D01*
X6296709Y-27700817D01*
X6377878Y-27939710D01*
X6639692Y-28058533D01*
X6919657Y-28123995D01*
X7207013Y-28133582D01*
X7490718Y-28086923D01*
X7759869Y-27985813D01*
X7846122Y-27939710D01*
X7927291Y-27700817D01*
X7112000Y-26885526D01*
X6296709Y-27700817D01*
X5199295Y-27700817D01*
X5340525Y-27606450D01*
X5508450Y-27438525D01*
X5640389Y-27241066D01*
X5706960Y-27080349D01*
X5796187Y-27317869D01*
X5842290Y-27404122D01*
X6081183Y-27485291D01*
X6896474Y-26670000D01*
X7327526Y-26670000D01*
X8142817Y-27485291D01*
X8381710Y-27404122D01*
X8500533Y-27142308D01*
X8565995Y-26862343D01*
X8575582Y-26574987D01*
X8528923Y-26291282D01*
X8427813Y-26022131D01*
X8411260Y-25991162D01*
X16413160Y-25991162D01*
X16413160Y-26307438D01*
X16474862Y-26617636D01*
X16595896Y-26909837D01*
X16771609Y-27172810D01*
X16995250Y-27396451D01*
X17258223Y-27572164D01*
X17550424Y-27693198D01*
X17860622Y-27754900D01*
X18176898Y-27754900D01*
X18487096Y-27693198D01*
X18779297Y-27572164D01*
X19042270Y-27396451D01*
X19265911Y-27172810D01*
X19441624Y-26909837D01*
X19562658Y-26617636D01*
X19624360Y-26307438D01*
X19624360Y-25991162D01*
X19562658Y-25680964D01*
X19441624Y-25388763D01*
X19265911Y-25125790D01*
X19042270Y-24902149D01*
X18779297Y-24726436D01*
X18487096Y-24605402D01*
X18176898Y-24543700D01*
X17860622Y-24543700D01*
X17550424Y-24605402D01*
X17258223Y-24726436D01*
X16995250Y-24902149D01*
X16771609Y-25125790D01*
X16595896Y-25388763D01*
X16474862Y-25680964D01*
X16413160Y-25991162D01*
X8411260Y-25991162D01*
X8381710Y-25935878D01*
X8142817Y-25854709D01*
X7327526Y-26670000D01*
X6896474Y-26670000D01*
X6081183Y-25854709D01*
X5842290Y-25935878D01*
X5723467Y-26197692D01*
X5708251Y-26262768D01*
X5640389Y-26098934D01*
X5508450Y-25901475D01*
X5340525Y-25733550D01*
X5143066Y-25601611D01*
X4923660Y-25510731D01*
X4690741Y-25464400D01*
X4453259Y-25464400D01*
X4220340Y-25510731D01*
X4000934Y-25601611D01*
X3803475Y-25733550D01*
X3635550Y-25901475D01*
X3503611Y-26098934D01*
X3412731Y-26318340D01*
X3366400Y-26551259D01*
X419100Y-26551259D01*
X419100Y-24011259D01*
X3366400Y-24011259D01*
X3366400Y-24248741D01*
X3412731Y-24481660D01*
X3503611Y-24701066D01*
X3635550Y-24898525D01*
X3803475Y-25066450D01*
X4000934Y-25198389D01*
X4220340Y-25289269D01*
X4453259Y-25335600D01*
X4690741Y-25335600D01*
X4923660Y-25289269D01*
X5143066Y-25198389D01*
X5340525Y-25066450D01*
X5508450Y-24898525D01*
X5640389Y-24701066D01*
X5731269Y-24481660D01*
X5777600Y-24248741D01*
X5777600Y-24011259D01*
X5906400Y-24011259D01*
X5906400Y-24248741D01*
X5952731Y-24481660D01*
X6043611Y-24701066D01*
X6175550Y-24898525D01*
X6343475Y-25066450D01*
X6540934Y-25198389D01*
X6701651Y-25264960D01*
X6464131Y-25354187D01*
X6377878Y-25400290D01*
X6296709Y-25639183D01*
X7112000Y-26454474D01*
X7927291Y-25639183D01*
X7846122Y-25400290D01*
X7584308Y-25281467D01*
X7519232Y-25266251D01*
X7683066Y-25198389D01*
X7880525Y-25066450D01*
X8048450Y-24898525D01*
X8180389Y-24701066D01*
X8259116Y-24511000D01*
X21181389Y-24511000D01*
X21183600Y-24533450D01*
X21183601Y-37163140D01*
X21181389Y-37185600D01*
X21190216Y-37275226D01*
X21216360Y-37361409D01*
X21258813Y-37440835D01*
X21280461Y-37467212D01*
X21315948Y-37510453D01*
X21333393Y-37524770D01*
X23672800Y-39864178D01*
X23672801Y-57943253D01*
X23617034Y-57999020D01*
X23544761Y-58107183D01*
X23494979Y-58227369D01*
X23469600Y-58354956D01*
X23469600Y-58485044D01*
X23494979Y-58612631D01*
X23544761Y-58732817D01*
X23617034Y-58840980D01*
X23709020Y-58932966D01*
X23817183Y-59005239D01*
X23937369Y-59055021D01*
X24064956Y-59080400D01*
X24195044Y-59080400D01*
X24322631Y-59055021D01*
X24442817Y-59005239D01*
X24550980Y-58932966D01*
X24642966Y-58840980D01*
X24715239Y-58732817D01*
X24765021Y-58612631D01*
X24790400Y-58485044D01*
X24790400Y-58354956D01*
X24765021Y-58227369D01*
X24715239Y-58107183D01*
X24642966Y-57999020D01*
X24587200Y-57943254D01*
X24587200Y-50607956D01*
X38328600Y-50607956D01*
X38328600Y-50738044D01*
X38353979Y-50865631D01*
X38403761Y-50985817D01*
X38476034Y-51093980D01*
X38531801Y-51149747D01*
X38531800Y-56546254D01*
X38476034Y-56602020D01*
X38403761Y-56710183D01*
X38353979Y-56830369D01*
X38328600Y-56957956D01*
X38328600Y-57088044D01*
X38353979Y-57215631D01*
X38403761Y-57335817D01*
X38476034Y-57443980D01*
X38568020Y-57535966D01*
X38676183Y-57608239D01*
X38796369Y-57658021D01*
X38923956Y-57683400D01*
X39054044Y-57683400D01*
X39181631Y-57658021D01*
X39301817Y-57608239D01*
X39409980Y-57535966D01*
X39501966Y-57443980D01*
X39574239Y-57335817D01*
X39624021Y-57215631D01*
X39649400Y-57088044D01*
X39649400Y-56957956D01*
X39624021Y-56830369D01*
X39574239Y-56710183D01*
X39501966Y-56602020D01*
X39446200Y-56546254D01*
X39446200Y-51149746D01*
X39501966Y-51093980D01*
X39574239Y-50985817D01*
X39624021Y-50865631D01*
X39649400Y-50738044D01*
X39649400Y-50607956D01*
X39624021Y-50480369D01*
X39574239Y-50360183D01*
X39501966Y-50252020D01*
X39409980Y-50160034D01*
X39301817Y-50087761D01*
X39181631Y-50037979D01*
X39054044Y-50012600D01*
X38923956Y-50012600D01*
X38796369Y-50037979D01*
X38676183Y-50087761D01*
X38568020Y-50160034D01*
X38476034Y-50252020D01*
X38403761Y-50360183D01*
X38353979Y-50480369D01*
X38328600Y-50607956D01*
X24587200Y-50607956D01*
X24587200Y-44341502D01*
X56810400Y-44341502D01*
X56810400Y-44558498D01*
X56852734Y-44771325D01*
X56935775Y-44971803D01*
X57056332Y-45152229D01*
X57209771Y-45305668D01*
X57390197Y-45426225D01*
X57590675Y-45509266D01*
X57803502Y-45551600D01*
X58020498Y-45551600D01*
X58233325Y-45509266D01*
X58433803Y-45426225D01*
X58614229Y-45305668D01*
X58767668Y-45152229D01*
X58888225Y-44971803D01*
X58971266Y-44771325D01*
X59013600Y-44558498D01*
X59013600Y-44341502D01*
X58971266Y-44128675D01*
X58888225Y-43928197D01*
X58767668Y-43747771D01*
X58614229Y-43594332D01*
X58433803Y-43473775D01*
X58233325Y-43390734D01*
X58020498Y-43348400D01*
X57803502Y-43348400D01*
X57590675Y-43390734D01*
X57390197Y-43473775D01*
X57209771Y-43594332D01*
X57056332Y-43747771D01*
X56935775Y-43928197D01*
X56852734Y-44128675D01*
X56810400Y-44341502D01*
X24587200Y-44341502D01*
X24587200Y-39697249D01*
X24589411Y-39674799D01*
X24587200Y-39652349D01*
X24587200Y-39652340D01*
X24580585Y-39585173D01*
X24554441Y-39498991D01*
X24519917Y-39434400D01*
X24511987Y-39419563D01*
X24469170Y-39367392D01*
X24454853Y-39349947D01*
X24437409Y-39335631D01*
X23730585Y-38628807D01*
X42351118Y-38628807D01*
X42356506Y-38807902D01*
X42396731Y-38982503D01*
X42444331Y-39097422D01*
X42616537Y-39110066D01*
X42622471Y-39116000D01*
X42616537Y-39121934D01*
X42444331Y-39134578D01*
X42380773Y-39302103D01*
X42351118Y-39478807D01*
X42356506Y-39657902D01*
X42396731Y-39832503D01*
X42444331Y-39947422D01*
X42627596Y-39960878D01*
X43017683Y-39570791D01*
X43024103Y-39573227D01*
X43200807Y-39602882D01*
X43204847Y-39602760D01*
X43206506Y-39657902D01*
X43235551Y-39783975D01*
X42843122Y-40176404D01*
X42856578Y-40359669D01*
X43024103Y-40423227D01*
X43200807Y-40452882D01*
X43379902Y-40447494D01*
X43554503Y-40407269D01*
X43669422Y-40359669D01*
X43682066Y-40187463D01*
X43688000Y-40181529D01*
X43693934Y-40187463D01*
X43706578Y-40359669D01*
X43874103Y-40423227D01*
X44050807Y-40452882D01*
X44229902Y-40447494D01*
X44404503Y-40407269D01*
X44519422Y-40359669D01*
X44532878Y-40176404D01*
X44142791Y-39786317D01*
X44145227Y-39779897D01*
X44174882Y-39603193D01*
X44174760Y-39599153D01*
X44229902Y-39597494D01*
X44355975Y-39568449D01*
X44748404Y-39960878D01*
X44931669Y-39947422D01*
X44995227Y-39779897D01*
X45024882Y-39603193D01*
X45019494Y-39424098D01*
X44979269Y-39249497D01*
X44931669Y-39134578D01*
X44759463Y-39121934D01*
X44753529Y-39116000D01*
X44759463Y-39110066D01*
X44931669Y-39097422D01*
X44995227Y-38929897D01*
X45024882Y-38753193D01*
X45019494Y-38574098D01*
X44979269Y-38399497D01*
X44931669Y-38284578D01*
X44748404Y-38271122D01*
X44358317Y-38661209D01*
X44351897Y-38658773D01*
X44175193Y-38629118D01*
X44171153Y-38629240D01*
X44169494Y-38574098D01*
X44140449Y-38448025D01*
X44532878Y-38055596D01*
X44519422Y-37872331D01*
X44351897Y-37808773D01*
X44175193Y-37779118D01*
X43996098Y-37784506D01*
X43821497Y-37824731D01*
X43706578Y-37872331D01*
X43693934Y-38044537D01*
X43688000Y-38050471D01*
X43682066Y-38044537D01*
X43669422Y-37872331D01*
X43501897Y-37808773D01*
X43325193Y-37779118D01*
X43146098Y-37784506D01*
X42971497Y-37824731D01*
X42856578Y-37872331D01*
X42843122Y-38055596D01*
X43233209Y-38445683D01*
X43230773Y-38452103D01*
X43201118Y-38628807D01*
X43201240Y-38632847D01*
X43146098Y-38634506D01*
X43020025Y-38663551D01*
X42627596Y-38271122D01*
X42444331Y-38284578D01*
X42380773Y-38452103D01*
X42351118Y-38628807D01*
X23730585Y-38628807D01*
X23208361Y-38106584D01*
X23302956Y-38125400D01*
X23433044Y-38125400D01*
X23560631Y-38100021D01*
X23680817Y-38050239D01*
X23788980Y-37977966D01*
X23880966Y-37885980D01*
X23953239Y-37777817D01*
X24003021Y-37657631D01*
X24028400Y-37530044D01*
X24028400Y-37399956D01*
X24003021Y-37272369D01*
X23953239Y-37152183D01*
X23880966Y-37044020D01*
X23788980Y-36952034D01*
X23680817Y-36879761D01*
X23560631Y-36829979D01*
X23433044Y-36804600D01*
X23302956Y-36804600D01*
X23175369Y-36829979D01*
X23055183Y-36879761D01*
X22947020Y-36952034D01*
X22891254Y-37007800D01*
X22693778Y-37007800D01*
X22504400Y-36818423D01*
X22504400Y-35613662D01*
X22606000Y-35715263D01*
X22606000Y-35762050D01*
X22635283Y-35909267D01*
X22692724Y-36047942D01*
X22776116Y-36172747D01*
X22882253Y-36278884D01*
X23007058Y-36362276D01*
X23145733Y-36419717D01*
X23292950Y-36449000D01*
X23443050Y-36449000D01*
X23590267Y-36419717D01*
X23728942Y-36362276D01*
X23853747Y-36278884D01*
X23959884Y-36172747D01*
X24043276Y-36047942D01*
X24100717Y-35909267D01*
X24130000Y-35762050D01*
X24130000Y-35611950D01*
X24100717Y-35464733D01*
X24043276Y-35326058D01*
X23959884Y-35201253D01*
X23853747Y-35095116D01*
X23728942Y-35011724D01*
X23590267Y-34954283D01*
X23443050Y-34925000D01*
X23396263Y-34925000D01*
X23164800Y-34693538D01*
X23164800Y-34412643D01*
X23175369Y-34417021D01*
X23302956Y-34442400D01*
X23433044Y-34442400D01*
X23560631Y-34417021D01*
X23680817Y-34367239D01*
X23788980Y-34294966D01*
X23880966Y-34202980D01*
X23953239Y-34094817D01*
X24003021Y-33974631D01*
X24028400Y-33847044D01*
X24028400Y-33768178D01*
X24192379Y-33604200D01*
X29949550Y-33604200D01*
X29972000Y-33606411D01*
X29994450Y-33604200D01*
X29994460Y-33604200D01*
X30061627Y-33597585D01*
X30147809Y-33571441D01*
X30227236Y-33528987D01*
X30296853Y-33471853D01*
X30311174Y-33454403D01*
X30466177Y-33299400D01*
X30545044Y-33299400D01*
X30672631Y-33274021D01*
X30792817Y-33224239D01*
X30900980Y-33151966D01*
X30992966Y-33059980D01*
X31065239Y-32951817D01*
X31115021Y-32831631D01*
X31140400Y-32704044D01*
X31140400Y-32573956D01*
X31115021Y-32446369D01*
X31065239Y-32326183D01*
X30992966Y-32218020D01*
X30900980Y-32126034D01*
X30792817Y-32053761D01*
X30672631Y-32003979D01*
X30545044Y-31978600D01*
X30414956Y-31978600D01*
X30287369Y-32003979D01*
X30167183Y-32053761D01*
X30059020Y-32126034D01*
X29967034Y-32218020D01*
X29894761Y-32326183D01*
X29844979Y-32446369D01*
X29819600Y-32573956D01*
X29819600Y-32652823D01*
X29782623Y-32689800D01*
X28638531Y-32689800D01*
X28672717Y-32607267D01*
X28702000Y-32460050D01*
X28702000Y-32309950D01*
X28672717Y-32162733D01*
X28615276Y-32024058D01*
X28531884Y-31899253D01*
X28425747Y-31793116D01*
X28300942Y-31709724D01*
X28162267Y-31652283D01*
X28015050Y-31623000D01*
X27864950Y-31623000D01*
X27717733Y-31652283D01*
X27579058Y-31709724D01*
X27454253Y-31793116D01*
X27348116Y-31899253D01*
X27312070Y-31953200D01*
X24234462Y-31953200D01*
X24110083Y-31828821D01*
X24100717Y-31781733D01*
X24043276Y-31643058D01*
X23959884Y-31518253D01*
X23853747Y-31412116D01*
X23728942Y-31328724D01*
X23590267Y-31271283D01*
X23443050Y-31242000D01*
X23292950Y-31242000D01*
X23145733Y-31271283D01*
X23007058Y-31328724D01*
X22882253Y-31412116D01*
X22776116Y-31518253D01*
X22692724Y-31643058D01*
X22635283Y-31781733D01*
X22606000Y-31928950D01*
X22606000Y-31975737D01*
X22504400Y-32077338D01*
X22504400Y-29196177D01*
X22922379Y-28778200D01*
X29695550Y-28778200D01*
X29718000Y-28780411D01*
X29740450Y-28778200D01*
X29740460Y-28778200D01*
X29807627Y-28771585D01*
X29893809Y-28745441D01*
X29973236Y-28702987D01*
X30042853Y-28645853D01*
X30057174Y-28628403D01*
X30466178Y-28219400D01*
X30545044Y-28219400D01*
X30672631Y-28194021D01*
X30792817Y-28144239D01*
X30900980Y-28071966D01*
X30992966Y-27979980D01*
X31065239Y-27871817D01*
X31115021Y-27751631D01*
X31140400Y-27624044D01*
X31140400Y-27493956D01*
X31115021Y-27366369D01*
X31065239Y-27246183D01*
X30992966Y-27138020D01*
X30900980Y-27046034D01*
X30792817Y-26973761D01*
X30672631Y-26923979D01*
X30545044Y-26898600D01*
X30414956Y-26898600D01*
X30287369Y-26923979D01*
X30167183Y-26973761D01*
X30059020Y-27046034D01*
X29967034Y-27138020D01*
X29894761Y-27246183D01*
X29844979Y-27366369D01*
X29819600Y-27493956D01*
X29819600Y-27572822D01*
X29528623Y-27863800D01*
X22755450Y-27863800D01*
X22733000Y-27861589D01*
X22710550Y-27863800D01*
X22710540Y-27863800D01*
X22643373Y-27870415D01*
X22577249Y-27890474D01*
X22557190Y-27896559D01*
X22477764Y-27939013D01*
X22425592Y-27981829D01*
X22425586Y-27981835D01*
X22408147Y-27996147D01*
X22393834Y-28013587D01*
X22098000Y-28309422D01*
X22098000Y-25991162D01*
X23913780Y-25991162D01*
X23913780Y-26307438D01*
X23975482Y-26617636D01*
X24096516Y-26909837D01*
X24272229Y-27172810D01*
X24495870Y-27396451D01*
X24758843Y-27572164D01*
X25051044Y-27693198D01*
X25361242Y-27754900D01*
X25677518Y-27754900D01*
X25987716Y-27693198D01*
X26279917Y-27572164D01*
X26542890Y-27396451D01*
X26766531Y-27172810D01*
X26942244Y-26909837D01*
X27063278Y-26617636D01*
X27124980Y-26307438D01*
X27124980Y-25991162D01*
X31414400Y-25991162D01*
X31414400Y-26307438D01*
X31476102Y-26617636D01*
X31597136Y-26909837D01*
X31772849Y-27172810D01*
X31996490Y-27396451D01*
X32259463Y-27572164D01*
X32551664Y-27693198D01*
X32861862Y-27754900D01*
X33178138Y-27754900D01*
X33488336Y-27693198D01*
X33780537Y-27572164D01*
X34043510Y-27396451D01*
X34267151Y-27172810D01*
X34442864Y-26909837D01*
X34563898Y-26617636D01*
X34625600Y-26307438D01*
X34625600Y-25991162D01*
X38915020Y-25991162D01*
X38915020Y-26307438D01*
X38976722Y-26617636D01*
X39097756Y-26909837D01*
X39273469Y-27172810D01*
X39497110Y-27396451D01*
X39760083Y-27572164D01*
X40052284Y-27693198D01*
X40362482Y-27754900D01*
X40678758Y-27754900D01*
X40988956Y-27693198D01*
X41281157Y-27572164D01*
X41544130Y-27396451D01*
X41767771Y-27172810D01*
X41943484Y-26909837D01*
X42064518Y-26617636D01*
X42126220Y-26307438D01*
X42126220Y-25991162D01*
X46415640Y-25991162D01*
X46415640Y-26307438D01*
X46477342Y-26617636D01*
X46598376Y-26909837D01*
X46774089Y-27172810D01*
X46997730Y-27396451D01*
X47260703Y-27572164D01*
X47552904Y-27693198D01*
X47863102Y-27754900D01*
X48179378Y-27754900D01*
X48489576Y-27693198D01*
X48781777Y-27572164D01*
X49044750Y-27396451D01*
X49268391Y-27172810D01*
X49444104Y-26909837D01*
X49565138Y-26617636D01*
X49626840Y-26307438D01*
X49626840Y-25991162D01*
X49565138Y-25680964D01*
X49444104Y-25388763D01*
X49268391Y-25125790D01*
X49044750Y-24902149D01*
X48781777Y-24726436D01*
X48489576Y-24605402D01*
X48179378Y-24543700D01*
X47863102Y-24543700D01*
X47552904Y-24605402D01*
X47260703Y-24726436D01*
X46997730Y-24902149D01*
X46774089Y-25125790D01*
X46598376Y-25388763D01*
X46477342Y-25680964D01*
X46415640Y-25991162D01*
X42126220Y-25991162D01*
X42064518Y-25680964D01*
X41943484Y-25388763D01*
X41767771Y-25125790D01*
X41544130Y-24902149D01*
X41281157Y-24726436D01*
X40988956Y-24605402D01*
X40678758Y-24543700D01*
X40362482Y-24543700D01*
X40052284Y-24605402D01*
X39760083Y-24726436D01*
X39497110Y-24902149D01*
X39273469Y-25125790D01*
X39097756Y-25388763D01*
X38976722Y-25680964D01*
X38915020Y-25991162D01*
X34625600Y-25991162D01*
X34563898Y-25680964D01*
X34442864Y-25388763D01*
X34267151Y-25125790D01*
X34043510Y-24902149D01*
X33780537Y-24726436D01*
X33488336Y-24605402D01*
X33178138Y-24543700D01*
X32861862Y-24543700D01*
X32551664Y-24605402D01*
X32259463Y-24726436D01*
X31996490Y-24902149D01*
X31772849Y-25125790D01*
X31597136Y-25388763D01*
X31476102Y-25680964D01*
X31414400Y-25991162D01*
X27124980Y-25991162D01*
X27063278Y-25680964D01*
X26942244Y-25388763D01*
X26766531Y-25125790D01*
X26542890Y-24902149D01*
X26279917Y-24726436D01*
X25987716Y-24605402D01*
X25677518Y-24543700D01*
X25361242Y-24543700D01*
X25051044Y-24605402D01*
X24758843Y-24726436D01*
X24495870Y-24902149D01*
X24272229Y-25125790D01*
X24096516Y-25388763D01*
X23975482Y-25680964D01*
X23913780Y-25991162D01*
X22098000Y-25991162D01*
X22098000Y-24700377D01*
X22338178Y-24460200D01*
X30838550Y-24460200D01*
X30861000Y-24462411D01*
X30883450Y-24460200D01*
X30883460Y-24460200D01*
X30950627Y-24453585D01*
X31036809Y-24427441D01*
X31116236Y-24384987D01*
X31185853Y-24327853D01*
X31200174Y-24310403D01*
X31676408Y-23834170D01*
X31693853Y-23819853D01*
X31708812Y-23801626D01*
X31750987Y-23750237D01*
X31789518Y-23678148D01*
X31793441Y-23670809D01*
X31819585Y-23584627D01*
X31826200Y-23517460D01*
X31826200Y-23517451D01*
X31828411Y-23495001D01*
X31826200Y-23472551D01*
X31826200Y-22320746D01*
X31881966Y-22264980D01*
X31954239Y-22156817D01*
X32004021Y-22036631D01*
X32029400Y-21909044D01*
X32029400Y-21778956D01*
X32004021Y-21651369D01*
X31954239Y-21531183D01*
X31881966Y-21423020D01*
X31789980Y-21331034D01*
X31681817Y-21258761D01*
X31561631Y-21208979D01*
X31434044Y-21183600D01*
X31303956Y-21183600D01*
X31176369Y-21208979D01*
X31056183Y-21258761D01*
X30948020Y-21331034D01*
X30856034Y-21423020D01*
X30783761Y-21531183D01*
X30733979Y-21651369D01*
X30708600Y-21778956D01*
X30708600Y-21909044D01*
X30733979Y-22036631D01*
X30783761Y-22156817D01*
X30856034Y-22264980D01*
X30911800Y-22320746D01*
X30911801Y-23305621D01*
X30671623Y-23545800D01*
X22171249Y-23545800D01*
X22148799Y-23543589D01*
X22126349Y-23545800D01*
X22126340Y-23545800D01*
X22059173Y-23552415D01*
X21972991Y-23578559D01*
X21936017Y-23598322D01*
X21893563Y-23621013D01*
X21861398Y-23647411D01*
X21823947Y-23678147D01*
X21809630Y-23695592D01*
X21333397Y-24171826D01*
X21315947Y-24186147D01*
X21258813Y-24255765D01*
X21216359Y-24335192D01*
X21190215Y-24421374D01*
X21183600Y-24488541D01*
X21183600Y-24488550D01*
X21181389Y-24511000D01*
X8259116Y-24511000D01*
X8271269Y-24481660D01*
X8317600Y-24248741D01*
X8317600Y-24011259D01*
X8271269Y-23778340D01*
X8180389Y-23558934D01*
X8048450Y-23361475D01*
X7880525Y-23193550D01*
X7683066Y-23061611D01*
X7463660Y-22970731D01*
X7230741Y-22924400D01*
X6993259Y-22924400D01*
X6760340Y-22970731D01*
X6540934Y-23061611D01*
X6343475Y-23193550D01*
X6175550Y-23361475D01*
X6043611Y-23558934D01*
X5952731Y-23778340D01*
X5906400Y-24011259D01*
X5777600Y-24011259D01*
X5731269Y-23778340D01*
X5640389Y-23558934D01*
X5508450Y-23361475D01*
X5340525Y-23193550D01*
X5143066Y-23061611D01*
X4923660Y-22970731D01*
X4690741Y-22924400D01*
X4453259Y-22924400D01*
X4220340Y-22970731D01*
X4000934Y-23061611D01*
X3803475Y-23193550D01*
X3635550Y-23361475D01*
X3503611Y-23558934D01*
X3412731Y-23778340D01*
X3366400Y-24011259D01*
X419100Y-24011259D01*
X419101Y-20990000D01*
X3364680Y-20990000D01*
X3364680Y-22190000D01*
X3376349Y-22308482D01*
X3410909Y-22422411D01*
X3467032Y-22527409D01*
X3542560Y-22619440D01*
X3634591Y-22694968D01*
X3739589Y-22751091D01*
X3853518Y-22785651D01*
X3972000Y-22797320D01*
X5172000Y-22797320D01*
X5290482Y-22785651D01*
X5404411Y-22751091D01*
X5509409Y-22694968D01*
X5601440Y-22619440D01*
X5676968Y-22527409D01*
X5733091Y-22422411D01*
X5767651Y-22308482D01*
X5779320Y-22190000D01*
X5779320Y-21471259D01*
X5906400Y-21471259D01*
X5906400Y-21708741D01*
X5952731Y-21941660D01*
X6043611Y-22161066D01*
X6175550Y-22358525D01*
X6343475Y-22526450D01*
X6540934Y-22658389D01*
X6760340Y-22749269D01*
X6993259Y-22795600D01*
X7230741Y-22795600D01*
X7463660Y-22749269D01*
X7683066Y-22658389D01*
X7880525Y-22526450D01*
X8048450Y-22358525D01*
X8180389Y-22161066D01*
X8271269Y-21941660D01*
X8317600Y-21708741D01*
X8317600Y-21471259D01*
X8271269Y-21238340D01*
X8180389Y-21018934D01*
X8048450Y-20821475D01*
X7880525Y-20653550D01*
X7683066Y-20521611D01*
X7670800Y-20516530D01*
X7670800Y-15166662D01*
X8181663Y-14655800D01*
X21285201Y-14655800D01*
X21285200Y-21706169D01*
X21252116Y-21739253D01*
X21168724Y-21864058D01*
X21111283Y-22002733D01*
X21082000Y-22149950D01*
X21082000Y-22300050D01*
X21111283Y-22447267D01*
X21168724Y-22585942D01*
X21252116Y-22710747D01*
X21358253Y-22816884D01*
X21483058Y-22900276D01*
X21621733Y-22957717D01*
X21768950Y-22987000D01*
X21919050Y-22987000D01*
X22066267Y-22957717D01*
X22204942Y-22900276D01*
X22329747Y-22816884D01*
X22435884Y-22710747D01*
X22519276Y-22585942D01*
X22576717Y-22447267D01*
X22606000Y-22300050D01*
X22606000Y-22149950D01*
X22576717Y-22002733D01*
X22519276Y-21864058D01*
X22435884Y-21739253D01*
X22402800Y-21706169D01*
X22402800Y-18857956D01*
X53695600Y-18857956D01*
X53695600Y-18988044D01*
X53720979Y-19115631D01*
X53770761Y-19235817D01*
X53843034Y-19343980D01*
X53898801Y-19399747D01*
X53898800Y-23091550D01*
X53896589Y-23114000D01*
X53898800Y-23136450D01*
X53898800Y-23136459D01*
X53905415Y-23203626D01*
X53931559Y-23289808D01*
X53974013Y-23369235D01*
X54031147Y-23438853D01*
X54048597Y-23453174D01*
X54614834Y-24019413D01*
X54629147Y-24036853D01*
X54646586Y-24051165D01*
X54646592Y-24051171D01*
X54698764Y-24093987D01*
X54778190Y-24136441D01*
X54798249Y-24142526D01*
X54864373Y-24162585D01*
X54931540Y-24169200D01*
X54931550Y-24169200D01*
X54946680Y-24170690D01*
X54946680Y-24462000D01*
X54953546Y-24531710D01*
X54973879Y-24598740D01*
X55006899Y-24660516D01*
X55051337Y-24714663D01*
X55105484Y-24759101D01*
X55167260Y-24792121D01*
X55234290Y-24812454D01*
X55304000Y-24819320D01*
X56210200Y-24819320D01*
X56210200Y-25549537D01*
X55428276Y-26331462D01*
X55406958Y-26348957D01*
X55389463Y-26370275D01*
X55337128Y-26434046D01*
X55285239Y-26531123D01*
X55253287Y-26636456D01*
X55242497Y-26746000D01*
X55245201Y-26773452D01*
X55245201Y-27510471D01*
X55234290Y-27511546D01*
X55167260Y-27531879D01*
X55105484Y-27564899D01*
X55051337Y-27609337D01*
X55006899Y-27663484D01*
X54973879Y-27725260D01*
X54953546Y-27792290D01*
X54946680Y-27862000D01*
X54946680Y-29362000D01*
X54953546Y-29431710D01*
X54973879Y-29498740D01*
X55006899Y-29560516D01*
X55047692Y-29610222D01*
X55053026Y-29664377D01*
X55096598Y-29808014D01*
X55096599Y-29808015D01*
X55167355Y-29940392D01*
X55180624Y-29956560D01*
X55262578Y-30056422D01*
X55291653Y-30080283D01*
X55310370Y-30099000D01*
X54915950Y-30099000D01*
X54879050Y-30106340D01*
X54841622Y-30110026D01*
X54805633Y-30120943D01*
X54768733Y-30128283D01*
X54733972Y-30142681D01*
X54697985Y-30153598D01*
X54664820Y-30171325D01*
X54630058Y-30185724D01*
X54598773Y-30206628D01*
X54565608Y-30224355D01*
X54536538Y-30248212D01*
X54505253Y-30269116D01*
X54478648Y-30295721D01*
X54449578Y-30319578D01*
X54425721Y-30348648D01*
X54399116Y-30375253D01*
X54378212Y-30406538D01*
X54354355Y-30435608D01*
X54336628Y-30468773D01*
X54315724Y-30500058D01*
X54301325Y-30534820D01*
X54283598Y-30567985D01*
X54272681Y-30603972D01*
X54258283Y-30638733D01*
X54250943Y-30675633D01*
X54240026Y-30711622D01*
X54236340Y-30749050D01*
X54229000Y-30785950D01*
X54229000Y-30823574D01*
X54225314Y-30861000D01*
X54229000Y-30898425D01*
X54229000Y-30936050D01*
X54236340Y-30972950D01*
X54240026Y-31010378D01*
X54250943Y-31046367D01*
X54258283Y-31083267D01*
X54272681Y-31118028D01*
X54283598Y-31154015D01*
X54301325Y-31187180D01*
X54315724Y-31221942D01*
X54336628Y-31253227D01*
X54354355Y-31286392D01*
X54378212Y-31315462D01*
X54399116Y-31346747D01*
X54425721Y-31373352D01*
X54449578Y-31402422D01*
X54478648Y-31426279D01*
X54505253Y-31452884D01*
X54536538Y-31473788D01*
X54565608Y-31497645D01*
X54598773Y-31515372D01*
X54630058Y-31536276D01*
X54664820Y-31550675D01*
X54697985Y-31568402D01*
X54733972Y-31579319D01*
X54768733Y-31593717D01*
X54805633Y-31601057D01*
X54841622Y-31611974D01*
X54879050Y-31615660D01*
X54915950Y-31623000D01*
X55672088Y-31623000D01*
X55699032Y-31673409D01*
X55774560Y-31765440D01*
X55866591Y-31840968D01*
X55971589Y-31897091D01*
X56085518Y-31931651D01*
X56204000Y-31943320D01*
X56704000Y-31943320D01*
X56822482Y-31931651D01*
X56936411Y-31897091D01*
X57041409Y-31840968D01*
X57133440Y-31765440D01*
X57208968Y-31673409D01*
X57243666Y-31608495D01*
X57253220Y-31705503D01*
X57288078Y-31820413D01*
X57344683Y-31926315D01*
X57420862Y-32019138D01*
X57513685Y-32095317D01*
X57619587Y-32151922D01*
X57734497Y-32186780D01*
X57854000Y-32198550D01*
X58049200Y-32195600D01*
X58201600Y-32043200D01*
X58201600Y-31013400D01*
X58506400Y-31013400D01*
X58506400Y-32043200D01*
X58658800Y-32195600D01*
X58854000Y-32198550D01*
X58973503Y-32186780D01*
X59088413Y-32151922D01*
X59194315Y-32095317D01*
X59287138Y-32019138D01*
X59363317Y-31926315D01*
X59419922Y-31820413D01*
X59454780Y-31705503D01*
X59466550Y-31586000D01*
X59463600Y-31165800D01*
X59311200Y-31013400D01*
X58506400Y-31013400D01*
X58201600Y-31013400D01*
X58181600Y-31013400D01*
X58181600Y-30708600D01*
X58201600Y-30708600D01*
X58201600Y-30688600D01*
X58506400Y-30688600D01*
X58506400Y-30708600D01*
X59311200Y-30708600D01*
X59463600Y-30556200D01*
X59466550Y-30136000D01*
X59454780Y-30016497D01*
X59419922Y-29901587D01*
X59363317Y-29795685D01*
X59319868Y-29742742D01*
X61414340Y-29742742D01*
X61414340Y-30059018D01*
X61476042Y-30369216D01*
X61597076Y-30661417D01*
X61772789Y-30924390D01*
X61996430Y-31148031D01*
X62259403Y-31323744D01*
X62551604Y-31444778D01*
X62861802Y-31506480D01*
X63178078Y-31506480D01*
X63488276Y-31444778D01*
X63780477Y-31323744D01*
X64043450Y-31148031D01*
X64267091Y-30924390D01*
X64442804Y-30661417D01*
X64563838Y-30369216D01*
X64625540Y-30059018D01*
X64625540Y-29742742D01*
X64563838Y-29432544D01*
X64442804Y-29140343D01*
X64267091Y-28877370D01*
X64043450Y-28653729D01*
X63780477Y-28478016D01*
X63488276Y-28356982D01*
X63178078Y-28295280D01*
X62861802Y-28295280D01*
X62551604Y-28356982D01*
X62259403Y-28478016D01*
X61996430Y-28653729D01*
X61772789Y-28877370D01*
X61597076Y-29140343D01*
X61476042Y-29432544D01*
X61414340Y-29742742D01*
X59319868Y-29742742D01*
X59300645Y-29719320D01*
X59504000Y-29719320D01*
X59573710Y-29712454D01*
X59640740Y-29692121D01*
X59702516Y-29659101D01*
X59756663Y-29614663D01*
X59801101Y-29560516D01*
X59834121Y-29498740D01*
X59854454Y-29431710D01*
X59861320Y-29362000D01*
X59861320Y-27862000D01*
X59854454Y-27792290D01*
X59834121Y-27725260D01*
X59801101Y-27663484D01*
X59756663Y-27609337D01*
X59702516Y-27564899D01*
X59640740Y-27531879D01*
X59573710Y-27511546D01*
X59504000Y-27504680D01*
X58504000Y-27504680D01*
X58434290Y-27511546D01*
X58367260Y-27531879D01*
X58305484Y-27564899D01*
X58251337Y-27609337D01*
X58206899Y-27663484D01*
X58173879Y-27725260D01*
X58153546Y-27792290D01*
X58146680Y-27862000D01*
X58146680Y-29362000D01*
X58153546Y-29431710D01*
X58173879Y-29498740D01*
X58201598Y-29550599D01*
X58201598Y-29678798D01*
X58049200Y-29526400D01*
X57854000Y-29523450D01*
X57734497Y-29535220D01*
X57619587Y-29570078D01*
X57513685Y-29626683D01*
X57420862Y-29702862D01*
X57344683Y-29795685D01*
X57288078Y-29901587D01*
X57253220Y-30016497D01*
X57243666Y-30113505D01*
X57208968Y-30048591D01*
X57208119Y-30047557D01*
X57204974Y-30015622D01*
X57161402Y-29871985D01*
X57117767Y-29790349D01*
X57090645Y-29739607D01*
X57019279Y-29652648D01*
X56995422Y-29623578D01*
X56966351Y-29599720D01*
X56661320Y-29294690D01*
X56661320Y-27862000D01*
X56654454Y-27792290D01*
X56634121Y-27725260D01*
X56601101Y-27663484D01*
X56556663Y-27609337D01*
X56502516Y-27564899D01*
X56440740Y-27531879D01*
X56373710Y-27511546D01*
X56362800Y-27510471D01*
X56362800Y-26977462D01*
X57144725Y-26195538D01*
X57166043Y-26178043D01*
X57235873Y-26092954D01*
X57287761Y-25995878D01*
X57319714Y-25890544D01*
X57327800Y-25808444D01*
X57327800Y-25808443D01*
X57330503Y-25781001D01*
X57327800Y-25753559D01*
X57327800Y-24462000D01*
X57891450Y-24462000D01*
X57903220Y-24581503D01*
X57938078Y-24696413D01*
X57994683Y-24802315D01*
X58070862Y-24895138D01*
X58163685Y-24971317D01*
X58269587Y-25027922D01*
X58384497Y-25062780D01*
X58504000Y-25074550D01*
X58699200Y-25071600D01*
X58851600Y-24919200D01*
X58851600Y-23864400D01*
X59156400Y-23864400D01*
X59156400Y-24919200D01*
X59308800Y-25071600D01*
X59504000Y-25074550D01*
X59623503Y-25062780D01*
X59738413Y-25027922D01*
X59844315Y-24971317D01*
X59937138Y-24895138D01*
X60013317Y-24802315D01*
X60069922Y-24696413D01*
X60104780Y-24581503D01*
X60116550Y-24462000D01*
X60113600Y-24016800D01*
X59961200Y-23864400D01*
X59156400Y-23864400D01*
X58851600Y-23864400D01*
X58046800Y-23864400D01*
X57894400Y-24016800D01*
X57891450Y-24462000D01*
X57327800Y-24462000D01*
X57327800Y-22962000D01*
X57891450Y-22962000D01*
X57894400Y-23407200D01*
X58046800Y-23559600D01*
X58851600Y-23559600D01*
X58851600Y-22504800D01*
X59156400Y-22504800D01*
X59156400Y-23559600D01*
X59961200Y-23559600D01*
X60113600Y-23407200D01*
X60116550Y-22962000D01*
X60104780Y-22842497D01*
X60069922Y-22727587D01*
X60013317Y-22621685D01*
X59937138Y-22528862D01*
X59844315Y-22452683D01*
X59738413Y-22396078D01*
X59623503Y-22361220D01*
X59504000Y-22349450D01*
X59308800Y-22352400D01*
X59156400Y-22504800D01*
X58851600Y-22504800D01*
X58699200Y-22352400D01*
X58504000Y-22349450D01*
X58384497Y-22361220D01*
X58269587Y-22396078D01*
X58163685Y-22452683D01*
X58070862Y-22528862D01*
X57994683Y-22621685D01*
X57938078Y-22727587D01*
X57903220Y-22842497D01*
X57891450Y-22962000D01*
X57327800Y-22962000D01*
X57327800Y-22242122D01*
X61414340Y-22242122D01*
X61414340Y-22558398D01*
X61476042Y-22868596D01*
X61597076Y-23160797D01*
X61772789Y-23423770D01*
X61996430Y-23647411D01*
X62259403Y-23823124D01*
X62551604Y-23944158D01*
X62861802Y-24005860D01*
X63178078Y-24005860D01*
X63488276Y-23944158D01*
X63780477Y-23823124D01*
X64043450Y-23647411D01*
X64267091Y-23423770D01*
X64442804Y-23160797D01*
X64563838Y-22868596D01*
X64625540Y-22558398D01*
X64625540Y-22242122D01*
X64563838Y-21931924D01*
X64442804Y-21639723D01*
X64267091Y-21376750D01*
X64043450Y-21153109D01*
X63780477Y-20977396D01*
X63488276Y-20856362D01*
X63178078Y-20794660D01*
X62861802Y-20794660D01*
X62551604Y-20856362D01*
X62259403Y-20977396D01*
X61996430Y-21153109D01*
X61772789Y-21376750D01*
X61597076Y-21639723D01*
X61476042Y-21931924D01*
X61414340Y-22242122D01*
X57327800Y-22242122D01*
X57327800Y-20858429D01*
X57372484Y-20895101D01*
X57434260Y-20928121D01*
X57501290Y-20948454D01*
X57556844Y-20953926D01*
X57530979Y-21016369D01*
X57505600Y-21143956D01*
X57505600Y-21274044D01*
X57530979Y-21401631D01*
X57580761Y-21521817D01*
X57653034Y-21629980D01*
X57745020Y-21721966D01*
X57853183Y-21794239D01*
X57973369Y-21844021D01*
X58100956Y-21869400D01*
X58231044Y-21869400D01*
X58358631Y-21844021D01*
X58478817Y-21794239D01*
X58586980Y-21721966D01*
X58678966Y-21629980D01*
X58751239Y-21521817D01*
X58801021Y-21401631D01*
X58826400Y-21274044D01*
X58826400Y-21143956D01*
X58801021Y-21016369D01*
X58775156Y-20953926D01*
X58830710Y-20948454D01*
X58897740Y-20928121D01*
X58959516Y-20895101D01*
X59013663Y-20850663D01*
X59058101Y-20796516D01*
X59091121Y-20734740D01*
X59111454Y-20667710D01*
X59118320Y-20598000D01*
X59118320Y-17298000D01*
X59111454Y-17228290D01*
X59091121Y-17161260D01*
X59058101Y-17099484D01*
X59013663Y-17045337D01*
X58959516Y-17000899D01*
X58897740Y-16967879D01*
X58830710Y-16947546D01*
X58761000Y-16940680D01*
X57571000Y-16940680D01*
X57501290Y-16947546D01*
X57434260Y-16967879D01*
X57372484Y-17000899D01*
X57318337Y-17045337D01*
X57273899Y-17099484D01*
X57240879Y-17161260D01*
X57220546Y-17228290D01*
X57213680Y-17298000D01*
X57213680Y-17669603D01*
X57183537Y-17632874D01*
X57166043Y-17611557D01*
X57144725Y-17594062D01*
X56319943Y-16769281D01*
X56302443Y-16747957D01*
X56217354Y-16678127D01*
X56120278Y-16626239D01*
X56014944Y-16594286D01*
X55932844Y-16586200D01*
X55932842Y-16586200D01*
X55905400Y-16583497D01*
X55877958Y-16586200D01*
X55509831Y-16586200D01*
X55476747Y-16553116D01*
X55351942Y-16469724D01*
X55213267Y-16412283D01*
X55066050Y-16383000D01*
X54915950Y-16383000D01*
X54768733Y-16412283D01*
X54630058Y-16469724D01*
X54505253Y-16553116D01*
X54399116Y-16659253D01*
X54315724Y-16784058D01*
X54258283Y-16922733D01*
X54229000Y-17069950D01*
X54229000Y-17220050D01*
X54258283Y-17367267D01*
X54315724Y-17505942D01*
X54399116Y-17630747D01*
X54505253Y-17736884D01*
X54630058Y-17820276D01*
X54768733Y-17877717D01*
X54915950Y-17907000D01*
X55066050Y-17907000D01*
X55213267Y-17877717D01*
X55351942Y-17820276D01*
X55476747Y-17736884D01*
X55509831Y-17703800D01*
X55673938Y-17703800D01*
X56210201Y-18240064D01*
X56210200Y-22604680D01*
X55304000Y-22604680D01*
X55234290Y-22611546D01*
X55167260Y-22631879D01*
X55105484Y-22664899D01*
X55051337Y-22709337D01*
X55006899Y-22763484D01*
X54973879Y-22825260D01*
X54953546Y-22892290D01*
X54946680Y-22962000D01*
X54946680Y-23058102D01*
X54813200Y-22924623D01*
X54813200Y-19399746D01*
X54868966Y-19343980D01*
X54941239Y-19235817D01*
X54991021Y-19115631D01*
X55016400Y-18988044D01*
X55016400Y-18857956D01*
X54991021Y-18730369D01*
X54941239Y-18610183D01*
X54868966Y-18502020D01*
X54776980Y-18410034D01*
X54668817Y-18337761D01*
X54548631Y-18287979D01*
X54421044Y-18262600D01*
X54290956Y-18262600D01*
X54163369Y-18287979D01*
X54043183Y-18337761D01*
X53935020Y-18410034D01*
X53843034Y-18502020D01*
X53770761Y-18610183D01*
X53720979Y-18730369D01*
X53695600Y-18857956D01*
X22402800Y-18857956D01*
X22402800Y-14655800D01*
X29199169Y-14655800D01*
X29232253Y-14688884D01*
X29357058Y-14772276D01*
X29495733Y-14829717D01*
X29642950Y-14859000D01*
X29793050Y-14859000D01*
X29940267Y-14829717D01*
X30078942Y-14772276D01*
X30203747Y-14688884D01*
X30309884Y-14582747D01*
X30393276Y-14457942D01*
X30450717Y-14319267D01*
X30480000Y-14172050D01*
X30480000Y-14021950D01*
X30450717Y-13874733D01*
X30393276Y-13736058D01*
X30309884Y-13611253D01*
X30203747Y-13505116D01*
X30078942Y-13421724D01*
X29940267Y-13364283D01*
X29793050Y-13335000D01*
X29642950Y-13335000D01*
X29495733Y-13364283D01*
X29357058Y-13421724D01*
X29232253Y-13505116D01*
X29199169Y-13538200D01*
X21871444Y-13538200D01*
X21844000Y-13535497D01*
X21816556Y-13538200D01*
X7977642Y-13538200D01*
X7950200Y-13535497D01*
X7922758Y-13538200D01*
X7922756Y-13538200D01*
X7840656Y-13546286D01*
X7735322Y-13578239D01*
X7638245Y-13630127D01*
X7607026Y-13655748D01*
X7553157Y-13699957D01*
X7535662Y-13721276D01*
X6736281Y-14520657D01*
X6714957Y-14538157D01*
X6645127Y-14623246D01*
X6593239Y-14720323D01*
X6561286Y-14825657D01*
X6557154Y-14867612D01*
X6550497Y-14935200D01*
X6553200Y-14962642D01*
X6553201Y-20516530D01*
X6540934Y-20521611D01*
X6343475Y-20653550D01*
X6175550Y-20821475D01*
X6043611Y-21018934D01*
X5952731Y-21238340D01*
X5906400Y-21471259D01*
X5779320Y-21471259D01*
X5779320Y-20990000D01*
X5767651Y-20871518D01*
X5733091Y-20757589D01*
X5676968Y-20652591D01*
X5601440Y-20560560D01*
X5509409Y-20485032D01*
X5404411Y-20428909D01*
X5290482Y-20394349D01*
X5172000Y-20382680D01*
X3972000Y-20382680D01*
X3853518Y-20394349D01*
X3739589Y-20428909D01*
X3634591Y-20485032D01*
X3542560Y-20560560D01*
X3467032Y-20652591D01*
X3410909Y-20757589D01*
X3376349Y-20871518D01*
X3364680Y-20990000D01*
X419101Y-20990000D01*
X419103Y-15703725D01*
X462216Y-15271307D01*
X582620Y-14874855D01*
X779381Y-14506257D01*
X996789Y-14231401D01*
X2467449Y-12761956D01*
X23342600Y-12761956D01*
X23342600Y-12892044D01*
X23367979Y-13019631D01*
X23417761Y-13139817D01*
X23490034Y-13247980D01*
X23582020Y-13339966D01*
X23690183Y-13412239D01*
X23810369Y-13462021D01*
X23937956Y-13487400D01*
X24068044Y-13487400D01*
X24195631Y-13462021D01*
X24315817Y-13412239D01*
X24423980Y-13339966D01*
X24479746Y-13284200D01*
X39180623Y-13284200D01*
X39979600Y-14083178D01*
X39979600Y-14162044D01*
X40004979Y-14289631D01*
X40054761Y-14409817D01*
X40127034Y-14517980D01*
X40219020Y-14609966D01*
X40327183Y-14682239D01*
X40447369Y-14732021D01*
X40574956Y-14757400D01*
X40705044Y-14757400D01*
X40832631Y-14732021D01*
X40952817Y-14682239D01*
X41060980Y-14609966D01*
X41152966Y-14517980D01*
X41225239Y-14409817D01*
X41275021Y-14289631D01*
X41293247Y-14198000D01*
X54418450Y-14198000D01*
X54430220Y-14317503D01*
X54465078Y-14432413D01*
X54521683Y-14538315D01*
X54597862Y-14631138D01*
X54690685Y-14707317D01*
X54796587Y-14763922D01*
X54911497Y-14798780D01*
X55031000Y-14810550D01*
X55321200Y-14807600D01*
X55473600Y-14655200D01*
X55473600Y-12700400D01*
X55778400Y-12700400D01*
X55778400Y-14655200D01*
X55930800Y-14807600D01*
X56221000Y-14810550D01*
X56340503Y-14798780D01*
X56455413Y-14763922D01*
X56561315Y-14707317D01*
X56654138Y-14631138D01*
X56730317Y-14538315D01*
X56786922Y-14432413D01*
X56821780Y-14317503D01*
X56833550Y-14198000D01*
X56830600Y-12852800D01*
X56678200Y-12700400D01*
X55778400Y-12700400D01*
X55473600Y-12700400D01*
X54573800Y-12700400D01*
X54421400Y-12852800D01*
X54418450Y-14198000D01*
X41293247Y-14198000D01*
X41300400Y-14162044D01*
X41300400Y-14031956D01*
X41275021Y-13904369D01*
X41225239Y-13784183D01*
X41152966Y-13676020D01*
X41060980Y-13584034D01*
X40952817Y-13511761D01*
X40832631Y-13461979D01*
X40705044Y-13436600D01*
X40626178Y-13436600D01*
X39709174Y-12519597D01*
X39694853Y-12502147D01*
X39625236Y-12445013D01*
X39545809Y-12402559D01*
X39459627Y-12376415D01*
X39392460Y-12369800D01*
X39392450Y-12369800D01*
X39370000Y-12367589D01*
X39347550Y-12369800D01*
X24479746Y-12369800D01*
X24423980Y-12314034D01*
X24315817Y-12241761D01*
X24195631Y-12191979D01*
X24068044Y-12166600D01*
X23937956Y-12166600D01*
X23810369Y-12191979D01*
X23690183Y-12241761D01*
X23582020Y-12314034D01*
X23490034Y-12406020D01*
X23417761Y-12514183D01*
X23367979Y-12634369D01*
X23342600Y-12761956D01*
X2467449Y-12761956D01*
X2836323Y-12393387D01*
X4790608Y-10659733D01*
X5739984Y-9913281D01*
X19972181Y-9913281D01*
X20069054Y-10169023D01*
X20289058Y-10488715D01*
X20567204Y-10759344D01*
X20892802Y-10970509D01*
X21253340Y-11114095D01*
X21634963Y-11184585D01*
X21945600Y-11034030D01*
X21945600Y-9618400D01*
X22758400Y-9618400D01*
X22758400Y-11034030D01*
X23069037Y-11184585D01*
X23450660Y-11114095D01*
X23811198Y-10970509D01*
X24136796Y-10759344D01*
X24414942Y-10488715D01*
X24634946Y-10169023D01*
X24731819Y-9913281D01*
X41308181Y-9913281D01*
X41405054Y-10169023D01*
X41625058Y-10488715D01*
X41903204Y-10759344D01*
X42228802Y-10970509D01*
X42589340Y-11114095D01*
X42970963Y-11184585D01*
X43281600Y-11034030D01*
X43281600Y-9618400D01*
X44094400Y-9618400D01*
X44094400Y-11034030D01*
X44405037Y-11184585D01*
X44786660Y-11114095D01*
X45147198Y-10970509D01*
X45259000Y-10898000D01*
X54418450Y-10898000D01*
X54421400Y-12243200D01*
X54573800Y-12395600D01*
X55473600Y-12395600D01*
X55473600Y-10440800D01*
X55778400Y-10440800D01*
X55778400Y-12395600D01*
X56678200Y-12395600D01*
X56830600Y-12243200D01*
X56833550Y-10898000D01*
X56821780Y-10778497D01*
X56786922Y-10663587D01*
X56730317Y-10557685D01*
X56654138Y-10464862D01*
X56561315Y-10388683D01*
X56455413Y-10332078D01*
X56340503Y-10297220D01*
X56221000Y-10285450D01*
X55930800Y-10288400D01*
X55778400Y-10440800D01*
X55473600Y-10440800D01*
X55321200Y-10288400D01*
X55031000Y-10285450D01*
X54911497Y-10297220D01*
X54796587Y-10332078D01*
X54690685Y-10388683D01*
X54597862Y-10464862D01*
X54521683Y-10557685D01*
X54465078Y-10663587D01*
X54430220Y-10778497D01*
X54418450Y-10898000D01*
X45259000Y-10898000D01*
X45472796Y-10759344D01*
X45750942Y-10488715D01*
X45970946Y-10169023D01*
X46067819Y-9913281D01*
X45998912Y-9618400D01*
X44094400Y-9618400D01*
X43281600Y-9618400D01*
X41377088Y-9618400D01*
X41308181Y-9913281D01*
X24731819Y-9913281D01*
X24662912Y-9618400D01*
X22758400Y-9618400D01*
X21945600Y-9618400D01*
X20041088Y-9618400D01*
X19972181Y-9913281D01*
X5739984Y-9913281D01*
X6844280Y-9045024D01*
X7613722Y-8510719D01*
X19972181Y-8510719D01*
X20041088Y-8805600D01*
X21945600Y-8805600D01*
X21945600Y-7389970D01*
X22758400Y-7389970D01*
X22758400Y-8805600D01*
X24662912Y-8805600D01*
X24731819Y-8510719D01*
X41308181Y-8510719D01*
X41377088Y-8805600D01*
X43281600Y-8805600D01*
X43281600Y-7389970D01*
X44094400Y-7389970D01*
X44094400Y-8805600D01*
X45998912Y-8805600D01*
X46067819Y-8510719D01*
X45970946Y-8254977D01*
X45750942Y-7935285D01*
X45472796Y-7664656D01*
X45147198Y-7453491D01*
X44786660Y-7309905D01*
X44405037Y-7239415D01*
X44094400Y-7389970D01*
X43281600Y-7389970D01*
X42970963Y-7239415D01*
X42589340Y-7309905D01*
X42228802Y-7453491D01*
X41903204Y-7664656D01*
X41625058Y-7935285D01*
X41405054Y-8254977D01*
X41308181Y-8510719D01*
X24731819Y-8510719D01*
X24634946Y-8254977D01*
X24414942Y-7935285D01*
X24136796Y-7664656D01*
X23811198Y-7453491D01*
X23450660Y-7309905D01*
X23069037Y-7239415D01*
X22758400Y-7389970D01*
X21945600Y-7389970D01*
X21634963Y-7239415D01*
X21253340Y-7309905D01*
X20892802Y-7453491D01*
X20567204Y-7664656D01*
X20289058Y-7935285D01*
X20069054Y-8254977D01*
X19972181Y-8510719D01*
X7613722Y-8510719D01*
X8990114Y-7554946D01*
X11220509Y-6194772D01*
X13527669Y-4969255D01*
X15903441Y-3882728D01*
X18339465Y-2939014D01*
X20827172Y-2141433D01*
X22668377Y-1669502D01*
X31918400Y-1669502D01*
X31918400Y-1886498D01*
X31960734Y-2099325D01*
X32043775Y-2299803D01*
X32164332Y-2480229D01*
X32317771Y-2633668D01*
X32498197Y-2754225D01*
X32698675Y-2837266D01*
X32911502Y-2879600D01*
X33128498Y-2879600D01*
X33341325Y-2837266D01*
X33541803Y-2754225D01*
X33722229Y-2633668D01*
X33875668Y-2480229D01*
X33996225Y-2299803D01*
X34079266Y-2099325D01*
X34121600Y-1886498D01*
X34121600Y-1669502D01*
X34079266Y-1456675D01*
X33996225Y-1256197D01*
X33875668Y-1075771D01*
X33722229Y-922332D01*
X33541803Y-801775D01*
X33341325Y-718734D01*
X33128498Y-676400D01*
X32911502Y-676400D01*
X32698675Y-718734D01*
X32498197Y-801775D01*
X32317771Y-922332D01*
X32164332Y-1075771D01*
X32043775Y-1256197D01*
X31960734Y-1456675D01*
X31918400Y-1669502D01*
X22668377Y-1669502D01*
X23357803Y-1492791D01*
X25922457Y-995372D01*
X28512082Y-650930D01*
X31117573Y-460677D01*
X33729785Y-425280D01*
X36339487Y-544866D01*
G04 #@! TA.AperFunction,Conductor*
D29*
G36*
X36339487Y-544866D02*
G01*
X38937497Y-819013D01*
X41514670Y-1246755D01*
X44061960Y-1826591D01*
X46570368Y-2556474D01*
X49031065Y-3433834D01*
X51435401Y-4455586D01*
X53774925Y-5618140D01*
X56041374Y-6917392D01*
X58226768Y-8348763D01*
X60323445Y-9907236D01*
X61077721Y-10540680D01*
X60111000Y-10540680D01*
X60041290Y-10547546D01*
X59974260Y-10567879D01*
X59912484Y-10600899D01*
X59858337Y-10645337D01*
X59813899Y-10699484D01*
X59780879Y-10761260D01*
X59760546Y-10828290D01*
X59753680Y-10898000D01*
X59753680Y-12014200D01*
X59573831Y-12014200D01*
X59540747Y-11981116D01*
X59415942Y-11897724D01*
X59277267Y-11840283D01*
X59130050Y-11811000D01*
X58979950Y-11811000D01*
X58832733Y-11840283D01*
X58694058Y-11897724D01*
X58569253Y-11981116D01*
X58463116Y-12087253D01*
X58379724Y-12212058D01*
X58322283Y-12350733D01*
X58293000Y-12497950D01*
X58293000Y-12648050D01*
X58322283Y-12795267D01*
X58379724Y-12933942D01*
X58463116Y-13058747D01*
X58569253Y-13164884D01*
X58694058Y-13248276D01*
X58832733Y-13305717D01*
X58979950Y-13335000D01*
X59130050Y-13335000D01*
X59277267Y-13305717D01*
X59415942Y-13248276D01*
X59540747Y-13164884D01*
X59573831Y-13131800D01*
X59753680Y-13131800D01*
X59753680Y-14198000D01*
X59760546Y-14267710D01*
X59780879Y-14334740D01*
X59813899Y-14396516D01*
X59858337Y-14450663D01*
X59912484Y-14495101D01*
X59974260Y-14528121D01*
X60041290Y-14548454D01*
X60111000Y-14555320D01*
X61301000Y-14555320D01*
X61370710Y-14548454D01*
X61437740Y-14528121D01*
X61499516Y-14495101D01*
X61553663Y-14450663D01*
X61598101Y-14396516D01*
X61631121Y-14334740D01*
X61651454Y-14267710D01*
X61658320Y-14198000D01*
X61658320Y-11028269D01*
X62323998Y-11587308D01*
X64223851Y-13385398D01*
X65038656Y-14226205D01*
X65299978Y-14567014D01*
X65482669Y-14936988D01*
X65590834Y-15338425D01*
X65620901Y-15701823D01*
X65620899Y-32364501D01*
X65602722Y-32549884D01*
X65554837Y-32708488D01*
X65477057Y-32854771D01*
X65372350Y-32983155D01*
X65244695Y-33088761D01*
X65098958Y-33167560D01*
X64940690Y-33216553D01*
X64756609Y-33235900D01*
X60685420Y-33235900D01*
X60667033Y-33237711D01*
X60659151Y-33237656D01*
X60653327Y-33238227D01*
X60406824Y-33264135D01*
X60369662Y-33271763D01*
X60332303Y-33278890D01*
X60326703Y-33280581D01*
X60326697Y-33280583D01*
X60089924Y-33353876D01*
X60054929Y-33368586D01*
X60019688Y-33382825D01*
X60014525Y-33385570D01*
X60014521Y-33385572D01*
X60014520Y-33385573D01*
X59796490Y-33503462D01*
X59765022Y-33524688D01*
X59733217Y-33545501D01*
X59728681Y-33549199D01*
X59537701Y-33707192D01*
X59510960Y-33734120D01*
X59483796Y-33760722D01*
X59480066Y-33765231D01*
X59323411Y-33957309D01*
X59302408Y-33988922D01*
X59280931Y-34020288D01*
X59278147Y-34025436D01*
X59161783Y-34244284D01*
X59147329Y-34279352D01*
X59132344Y-34314315D01*
X59130614Y-34319906D01*
X59058974Y-34557187D01*
X59051602Y-34594417D01*
X59043698Y-34631604D01*
X59043086Y-34637424D01*
X59018899Y-34884102D01*
X59018899Y-34884114D01*
X59016899Y-34904420D01*
X59016901Y-53995580D01*
X59018711Y-54013958D01*
X59018656Y-54021849D01*
X59019227Y-54027673D01*
X59045135Y-54274176D01*
X59052772Y-54311380D01*
X59059891Y-54348699D01*
X59061582Y-54354302D01*
X59134877Y-54591077D01*
X59149607Y-54626118D01*
X59163826Y-54661310D01*
X59166573Y-54666478D01*
X59284461Y-54884507D01*
X59305675Y-54915958D01*
X59326501Y-54947783D01*
X59330200Y-54952318D01*
X59488192Y-55143298D01*
X59515101Y-55170020D01*
X59541721Y-55197203D01*
X59546231Y-55200933D01*
X59738308Y-55357588D01*
X59769939Y-55378603D01*
X59801288Y-55400068D01*
X59806436Y-55402852D01*
X60025284Y-55519216D01*
X60060376Y-55533680D01*
X60095317Y-55548655D01*
X60100908Y-55550386D01*
X60338190Y-55622025D01*
X60375453Y-55629403D01*
X60412605Y-55637300D01*
X60418425Y-55637912D01*
X60665102Y-55662099D01*
X60665113Y-55662099D01*
X60685419Y-55664099D01*
X64749502Y-55664099D01*
X64934887Y-55682276D01*
X65093486Y-55730160D01*
X65239771Y-55807942D01*
X65368159Y-55912653D01*
X65473762Y-56040306D01*
X65552562Y-56186042D01*
X65601552Y-56344306D01*
X65620901Y-56528400D01*
X65620900Y-74114157D01*
X65578454Y-74544957D01*
X65458731Y-74940825D01*
X65264388Y-75305915D01*
X64992628Y-75638841D01*
X63098718Y-77470564D01*
X61090260Y-79194683D01*
X59234482Y-80605529D01*
X59266651Y-80499482D01*
X59278320Y-80381000D01*
X59278320Y-80181269D01*
X59286363Y-80166222D01*
X59347364Y-79965129D01*
X59362800Y-79808402D01*
X59362800Y-74291802D01*
X61414340Y-74291802D01*
X61414340Y-74608078D01*
X61476042Y-74918276D01*
X61597076Y-75210477D01*
X61772789Y-75473450D01*
X61996430Y-75697091D01*
X62259403Y-75872804D01*
X62551604Y-75993838D01*
X62861802Y-76055540D01*
X63178078Y-76055540D01*
X63488276Y-75993838D01*
X63780477Y-75872804D01*
X64043450Y-75697091D01*
X64267091Y-75473450D01*
X64442804Y-75210477D01*
X64563838Y-74918276D01*
X64625540Y-74608078D01*
X64625540Y-74291802D01*
X64563838Y-73981604D01*
X64442804Y-73689403D01*
X64267091Y-73426430D01*
X64043450Y-73202789D01*
X63780477Y-73027076D01*
X63488276Y-72906042D01*
X63178078Y-72844340D01*
X62861802Y-72844340D01*
X62551604Y-72906042D01*
X62259403Y-73027076D01*
X61996430Y-73202789D01*
X61772789Y-73426430D01*
X61597076Y-73689403D01*
X61476042Y-73981604D01*
X61414340Y-74291802D01*
X59362800Y-74291802D01*
X59362800Y-72572390D01*
X59367960Y-72519999D01*
X59362800Y-72467608D01*
X59362800Y-72467598D01*
X59347364Y-72310871D01*
X59286363Y-72109778D01*
X59187303Y-71924450D01*
X59053991Y-71762009D01*
X59013287Y-71728604D01*
X58322400Y-71037718D01*
X58288991Y-70997009D01*
X58126550Y-70863697D01*
X57941222Y-70764637D01*
X57740129Y-70703636D01*
X57583402Y-70688200D01*
X57583399Y-70688200D01*
X57531000Y-70683039D01*
X57478601Y-70688200D01*
X57012095Y-70688200D01*
X56982663Y-70652337D01*
X56928516Y-70607899D01*
X56866740Y-70574879D01*
X56799710Y-70554546D01*
X56730000Y-70547680D01*
X55030000Y-70547680D01*
X54960290Y-70554546D01*
X54893260Y-70574879D01*
X54831484Y-70607899D01*
X54777337Y-70652337D01*
X54732899Y-70706484D01*
X54699879Y-70768260D01*
X54679546Y-70835290D01*
X54672680Y-70905000D01*
X54672680Y-72605000D01*
X54679546Y-72674710D01*
X54699879Y-72741740D01*
X54732899Y-72803516D01*
X54777337Y-72857663D01*
X54831484Y-72902101D01*
X54893260Y-72935121D01*
X54960290Y-72955454D01*
X55030000Y-72962320D01*
X55473598Y-72962320D01*
X55473598Y-73045501D01*
X55259298Y-72973937D01*
X55013498Y-73120414D01*
X54800997Y-73312029D01*
X54629962Y-73541420D01*
X54558953Y-73674301D01*
X54637579Y-73888600D01*
X55473600Y-73888600D01*
X55473600Y-73868600D01*
X56286400Y-73868600D01*
X56286400Y-73888600D01*
X56306400Y-73888600D01*
X56306400Y-74701400D01*
X56286400Y-74701400D01*
X56286400Y-75544498D01*
X56500702Y-75616063D01*
X56746502Y-75469586D01*
X56959003Y-75277971D01*
X57130038Y-75048580D01*
X57201047Y-74915699D01*
X57122422Y-74701402D01*
X57229201Y-74701402D01*
X57229200Y-77522401D01*
X57229201Y-77522411D01*
X57229200Y-79808401D01*
X57244636Y-79965128D01*
X57305637Y-80166221D01*
X57313680Y-80181268D01*
X57313680Y-80381000D01*
X57325349Y-80499482D01*
X57359909Y-80613411D01*
X57416032Y-80718409D01*
X57491560Y-80810440D01*
X57583591Y-80885968D01*
X57688589Y-80942091D01*
X57802518Y-80976651D01*
X57921000Y-80988320D01*
X58671000Y-80988320D01*
X58701769Y-80985290D01*
X56784574Y-82270860D01*
X54500163Y-83613462D01*
X53208838Y-84294120D01*
X52572745Y-84541932D01*
X51905392Y-84660627D01*
X51645167Y-84670900D01*
X14404515Y-84670905D01*
X13729117Y-84605536D01*
X13087813Y-84412792D01*
X12845067Y-84301275D01*
X10583881Y-83072746D01*
X9818109Y-82597655D01*
X13833400Y-82597655D01*
X13833400Y-82756345D01*
X13864359Y-82911985D01*
X13925087Y-83058595D01*
X14013250Y-83190540D01*
X14125460Y-83302750D01*
X14257405Y-83390913D01*
X14404015Y-83451641D01*
X14559655Y-83482600D01*
X14718345Y-83482600D01*
X14873985Y-83451641D01*
X15020595Y-83390913D01*
X15152540Y-83302750D01*
X15264750Y-83190540D01*
X15352913Y-83058595D01*
X15413641Y-82911985D01*
X15444600Y-82756345D01*
X15444600Y-82597655D01*
X18083400Y-82597655D01*
X18083400Y-82756345D01*
X18114359Y-82911985D01*
X18175087Y-83058595D01*
X18263250Y-83190540D01*
X18375460Y-83302750D01*
X18507405Y-83390913D01*
X18654015Y-83451641D01*
X18809655Y-83482600D01*
X18968345Y-83482600D01*
X19123985Y-83451641D01*
X19270595Y-83390913D01*
X19402540Y-83302750D01*
X19514750Y-83190540D01*
X19602913Y-83058595D01*
X19663641Y-82911985D01*
X19694600Y-82756345D01*
X19694600Y-82597655D01*
X19663641Y-82442015D01*
X19602913Y-82295405D01*
X19514750Y-82163460D01*
X19402540Y-82051250D01*
X19270595Y-81963087D01*
X19123985Y-81902359D01*
X18968345Y-81871400D01*
X18809655Y-81871400D01*
X18654015Y-81902359D01*
X18507405Y-81963087D01*
X18375460Y-82051250D01*
X18263250Y-82163460D01*
X18175087Y-82295405D01*
X18114359Y-82442015D01*
X18083400Y-82597655D01*
X15444600Y-82597655D01*
X15413641Y-82442015D01*
X15352913Y-82295405D01*
X15264750Y-82163460D01*
X15152540Y-82051250D01*
X15020595Y-81963087D01*
X14873985Y-81902359D01*
X14718345Y-81871400D01*
X14559655Y-81871400D01*
X14404015Y-81902359D01*
X14257405Y-81963087D01*
X14125460Y-82051250D01*
X14013250Y-82163460D01*
X13925087Y-82295405D01*
X13864359Y-82442015D01*
X13833400Y-82597655D01*
X9818109Y-82597655D01*
X8395486Y-81715050D01*
X6288863Y-80233626D01*
X6236374Y-80192000D01*
X8031450Y-80192000D01*
X8043220Y-80311503D01*
X8078078Y-80426413D01*
X8134683Y-80532315D01*
X8210862Y-80625138D01*
X8303685Y-80701317D01*
X8409587Y-80757922D01*
X8524497Y-80792780D01*
X8644000Y-80804550D01*
X8839200Y-80801600D01*
X8991600Y-80649200D01*
X8991600Y-79719400D01*
X9296400Y-79719400D01*
X9296400Y-80649200D01*
X9448800Y-80801600D01*
X9644000Y-80804550D01*
X9763503Y-80792780D01*
X9878413Y-80757922D01*
X9984315Y-80701317D01*
X10077138Y-80625138D01*
X10153317Y-80532315D01*
X10209922Y-80426413D01*
X10244780Y-80311503D01*
X10256550Y-80192000D01*
X10253600Y-79871800D01*
X10243800Y-79862000D01*
X20094680Y-79862000D01*
X20094680Y-82562000D01*
X20101546Y-82631710D01*
X20121879Y-82698740D01*
X20154899Y-82760516D01*
X20199337Y-82814663D01*
X20253484Y-82859101D01*
X20315260Y-82892121D01*
X20382290Y-82912454D01*
X20452000Y-82919320D01*
X24252000Y-82919320D01*
X24321710Y-82912454D01*
X24388740Y-82892121D01*
X24450516Y-82859101D01*
X24504663Y-82814663D01*
X24549101Y-82760516D01*
X24582121Y-82698740D01*
X24602454Y-82631710D01*
X24609320Y-82562000D01*
X24609320Y-82278800D01*
X38115601Y-82278800D01*
X38168000Y-82283961D01*
X38220399Y-82278800D01*
X38220402Y-82278800D01*
X38377129Y-82263364D01*
X38578222Y-82202363D01*
X38763550Y-82103303D01*
X38925991Y-81969991D01*
X38959400Y-81929282D01*
X42351883Y-78536800D01*
X54706621Y-78536800D01*
X54783591Y-78599968D01*
X54807972Y-78613000D01*
X54783591Y-78626032D01*
X54706621Y-78689200D01*
X47804399Y-78689200D01*
X47752000Y-78684039D01*
X47699601Y-78689200D01*
X47699598Y-78689200D01*
X47542871Y-78704636D01*
X47363608Y-78759015D01*
X47341778Y-78765637D01*
X47156449Y-78864697D01*
X47074169Y-78932223D01*
X46994009Y-78998009D01*
X46960604Y-79038713D01*
X45945320Y-80053998D01*
X45945320Y-79862000D01*
X45938454Y-79792290D01*
X45918121Y-79725260D01*
X45885101Y-79663484D01*
X45840663Y-79609337D01*
X45786516Y-79564899D01*
X45724740Y-79531879D01*
X45657710Y-79511546D01*
X45588000Y-79504680D01*
X41788000Y-79504680D01*
X41718290Y-79511546D01*
X41651260Y-79531879D01*
X41589484Y-79564899D01*
X41535337Y-79609337D01*
X41490899Y-79663484D01*
X41457879Y-79725260D01*
X41437546Y-79792290D01*
X41430680Y-79862000D01*
X41430680Y-82562000D01*
X41437546Y-82631710D01*
X41457879Y-82698740D01*
X41490899Y-82760516D01*
X41535337Y-82814663D01*
X41589484Y-82859101D01*
X41651260Y-82892121D01*
X41718290Y-82912454D01*
X41788000Y-82919320D01*
X45588000Y-82919320D01*
X45657710Y-82912454D01*
X45724740Y-82892121D01*
X45786516Y-82859101D01*
X45840663Y-82814663D01*
X45885101Y-82760516D01*
X45918121Y-82698740D01*
X45938454Y-82631710D01*
X45945320Y-82562000D01*
X45945320Y-82278800D01*
X46243601Y-82278800D01*
X46296000Y-82283961D01*
X46348399Y-82278800D01*
X46348402Y-82278800D01*
X46505129Y-82263364D01*
X46706222Y-82202363D01*
X46891550Y-82103303D01*
X47053991Y-81969991D01*
X47087400Y-81929282D01*
X48193883Y-80822800D01*
X54706621Y-80822800D01*
X54783591Y-80885968D01*
X54888589Y-80942091D01*
X55002518Y-80976651D01*
X55121000Y-80988320D01*
X55871000Y-80988320D01*
X55989482Y-80976651D01*
X56103411Y-80942091D01*
X56208409Y-80885968D01*
X56300440Y-80810440D01*
X56375968Y-80718409D01*
X56432091Y-80613411D01*
X56466651Y-80499482D01*
X56478320Y-80381000D01*
X56478320Y-80181269D01*
X56486363Y-80166222D01*
X56547364Y-79965129D01*
X56567961Y-79756000D01*
X56547364Y-79546871D01*
X56486363Y-79345778D01*
X56478320Y-79330731D01*
X56478320Y-79131000D01*
X56466651Y-79012518D01*
X56432091Y-78898589D01*
X56375968Y-78793591D01*
X56300440Y-78701560D01*
X56208409Y-78626032D01*
X56184028Y-78613000D01*
X56208409Y-78599968D01*
X56300440Y-78524440D01*
X56375968Y-78432409D01*
X56432091Y-78327411D01*
X56466651Y-78213482D01*
X56478320Y-78095000D01*
X56478320Y-77895269D01*
X56486363Y-77880222D01*
X56547364Y-77679129D01*
X56567961Y-77470000D01*
X56547364Y-77260871D01*
X56486363Y-77059778D01*
X56478320Y-77044731D01*
X56478320Y-76845000D01*
X56466651Y-76726518D01*
X56432091Y-76612589D01*
X56375968Y-76507591D01*
X56300440Y-76415560D01*
X56208409Y-76340032D01*
X56103411Y-76283909D01*
X55989482Y-76249349D01*
X55871000Y-76237680D01*
X55121000Y-76237680D01*
X55002518Y-76249349D01*
X54888589Y-76283909D01*
X54783591Y-76340032D01*
X54706621Y-76403200D01*
X41962398Y-76403200D01*
X41909999Y-76398039D01*
X41857600Y-76403200D01*
X41857598Y-76403200D01*
X41700871Y-76418636D01*
X41499778Y-76479637D01*
X41314449Y-76578697D01*
X41208018Y-76666043D01*
X41152009Y-76712009D01*
X41118604Y-76752713D01*
X37726118Y-80145200D01*
X24609320Y-80145200D01*
X24609320Y-79862000D01*
X24602454Y-79792290D01*
X24582121Y-79725260D01*
X24549101Y-79663484D01*
X24504663Y-79609337D01*
X24450516Y-79564899D01*
X24388740Y-79531879D01*
X24321710Y-79511546D01*
X24252000Y-79504680D01*
X20452000Y-79504680D01*
X20382290Y-79511546D01*
X20315260Y-79531879D01*
X20253484Y-79564899D01*
X20199337Y-79609337D01*
X20154899Y-79663484D01*
X20121879Y-79725260D01*
X20101546Y-79792290D01*
X20094680Y-79862000D01*
X10243800Y-79862000D01*
X10101200Y-79719400D01*
X9296400Y-79719400D01*
X8991600Y-79719400D01*
X8186800Y-79719400D01*
X8034400Y-79871800D01*
X8031450Y-80192000D01*
X6236374Y-80192000D01*
X4660157Y-78942000D01*
X8031450Y-78942000D01*
X8034400Y-79262200D01*
X8186800Y-79414600D01*
X8991600Y-79414600D01*
X8991600Y-78484800D01*
X9296400Y-78484800D01*
X9296400Y-79414600D01*
X10101200Y-79414600D01*
X10253600Y-79262200D01*
X10256550Y-78942000D01*
X10244780Y-78822497D01*
X10238549Y-78801956D01*
X25755600Y-78801956D01*
X25755600Y-78932044D01*
X25780979Y-79059631D01*
X25830761Y-79179817D01*
X25903034Y-79287980D01*
X25995020Y-79379966D01*
X26103183Y-79452239D01*
X26223369Y-79502021D01*
X26350956Y-79527400D01*
X26481044Y-79527400D01*
X26608631Y-79502021D01*
X26728817Y-79452239D01*
X26836980Y-79379966D01*
X26928966Y-79287980D01*
X27001239Y-79179817D01*
X27051021Y-79059631D01*
X27076400Y-78932044D01*
X27076400Y-78914655D01*
X30014400Y-78914655D01*
X30014400Y-79073345D01*
X30045359Y-79228985D01*
X30106087Y-79375595D01*
X30194250Y-79507540D01*
X30306460Y-79619750D01*
X30438405Y-79707913D01*
X30585015Y-79768641D01*
X30740655Y-79799600D01*
X30899345Y-79799600D01*
X31054985Y-79768641D01*
X31201595Y-79707913D01*
X31333540Y-79619750D01*
X31445750Y-79507540D01*
X31533913Y-79375595D01*
X31594641Y-79228985D01*
X31625600Y-79073345D01*
X31625600Y-78914655D01*
X34414400Y-78914655D01*
X34414400Y-79073345D01*
X34445359Y-79228985D01*
X34506087Y-79375595D01*
X34594250Y-79507540D01*
X34706460Y-79619750D01*
X34838405Y-79707913D01*
X34985015Y-79768641D01*
X35140655Y-79799600D01*
X35299345Y-79799600D01*
X35454985Y-79768641D01*
X35601595Y-79707913D01*
X35733540Y-79619750D01*
X35845750Y-79507540D01*
X35933913Y-79375595D01*
X35994641Y-79228985D01*
X36025600Y-79073345D01*
X36025600Y-78914655D01*
X35994641Y-78759015D01*
X35933913Y-78612405D01*
X35845750Y-78480460D01*
X35733540Y-78368250D01*
X35601595Y-78280087D01*
X35454985Y-78219359D01*
X35299345Y-78188400D01*
X35140655Y-78188400D01*
X34985015Y-78219359D01*
X34838405Y-78280087D01*
X34706460Y-78368250D01*
X34594250Y-78480460D01*
X34506087Y-78612405D01*
X34445359Y-78759015D01*
X34414400Y-78914655D01*
X31625600Y-78914655D01*
X31594641Y-78759015D01*
X31533913Y-78612405D01*
X31445750Y-78480460D01*
X31333540Y-78368250D01*
X31201595Y-78280087D01*
X31054985Y-78219359D01*
X30899345Y-78188400D01*
X30740655Y-78188400D01*
X30585015Y-78219359D01*
X30438405Y-78280087D01*
X30306460Y-78368250D01*
X30194250Y-78480460D01*
X30106087Y-78612405D01*
X30045359Y-78759015D01*
X30014400Y-78914655D01*
X27076400Y-78914655D01*
X27076400Y-78801956D01*
X27051021Y-78674369D01*
X27001239Y-78554183D01*
X26928966Y-78446020D01*
X26873200Y-78390254D01*
X26873200Y-75626956D01*
X42392600Y-75626956D01*
X42392600Y-75757044D01*
X42417979Y-75884631D01*
X42467761Y-76004817D01*
X42540034Y-76112980D01*
X42632020Y-76204966D01*
X42740183Y-76277239D01*
X42860369Y-76327021D01*
X42987956Y-76352400D01*
X43118044Y-76352400D01*
X43245631Y-76327021D01*
X43365817Y-76277239D01*
X43473980Y-76204966D01*
X43529746Y-76149200D01*
X50269550Y-76149200D01*
X50292000Y-76151411D01*
X50314450Y-76149200D01*
X50314460Y-76149200D01*
X50381627Y-76142585D01*
X50467809Y-76116441D01*
X50547236Y-76073987D01*
X50616853Y-76016853D01*
X50631174Y-75999403D01*
X51361415Y-75269164D01*
X51378853Y-75254853D01*
X51393165Y-75237414D01*
X51393171Y-75237408D01*
X51435987Y-75185236D01*
X51478441Y-75105810D01*
X51493254Y-75056979D01*
X51504585Y-75019627D01*
X51511200Y-74952460D01*
X51511200Y-74952450D01*
X51513411Y-74930000D01*
X51512003Y-74915699D01*
X54558953Y-74915699D01*
X54629962Y-75048580D01*
X54800997Y-75277971D01*
X55013498Y-75469586D01*
X55259298Y-75616063D01*
X55473600Y-75544498D01*
X55473600Y-74701400D01*
X54637579Y-74701400D01*
X54558953Y-74915699D01*
X51512003Y-74915699D01*
X51511200Y-74907550D01*
X51511200Y-72866746D01*
X51566966Y-72810980D01*
X51639239Y-72702817D01*
X51689021Y-72582631D01*
X51714400Y-72455044D01*
X51714400Y-72324956D01*
X51689021Y-72197369D01*
X51639239Y-72077183D01*
X51566966Y-71969020D01*
X51474980Y-71877034D01*
X51366817Y-71804761D01*
X51246631Y-71754979D01*
X51119044Y-71729600D01*
X50988956Y-71729600D01*
X50861369Y-71754979D01*
X50741183Y-71804761D01*
X50633020Y-71877034D01*
X50541034Y-71969020D01*
X50468761Y-72077183D01*
X50418979Y-72197369D01*
X50393600Y-72324956D01*
X50393600Y-72455044D01*
X50418979Y-72582631D01*
X50468761Y-72702817D01*
X50541034Y-72810980D01*
X50596801Y-72866747D01*
X50596800Y-74740621D01*
X50102623Y-75234800D01*
X43529746Y-75234800D01*
X43473980Y-75179034D01*
X43365817Y-75106761D01*
X43245631Y-75056979D01*
X43118044Y-75031600D01*
X42987956Y-75031600D01*
X42860369Y-75056979D01*
X42740183Y-75106761D01*
X42632020Y-75179034D01*
X42540034Y-75271020D01*
X42467761Y-75379183D01*
X42417979Y-75499369D01*
X42392600Y-75626956D01*
X26873200Y-75626956D01*
X26873200Y-70928377D01*
X27164178Y-70637400D01*
X27243044Y-70637400D01*
X27370631Y-70612021D01*
X27490817Y-70562239D01*
X27598980Y-70489966D01*
X27690966Y-70397980D01*
X27763239Y-70289817D01*
X27813021Y-70169631D01*
X27838400Y-70042044D01*
X27838400Y-69911956D01*
X27813021Y-69784369D01*
X27763239Y-69664183D01*
X27690966Y-69556020D01*
X27598980Y-69464034D01*
X27490817Y-69391761D01*
X27370631Y-69341979D01*
X27243044Y-69316600D01*
X27112956Y-69316600D01*
X26985369Y-69341979D01*
X26865183Y-69391761D01*
X26757020Y-69464034D01*
X26665034Y-69556020D01*
X26592761Y-69664183D01*
X26542979Y-69784369D01*
X26517600Y-69911956D01*
X26517600Y-69990822D01*
X26108592Y-70399831D01*
X26091148Y-70414147D01*
X26076831Y-70431592D01*
X26076830Y-70431593D01*
X26034013Y-70483765D01*
X25999851Y-70547680D01*
X25991560Y-70563191D01*
X25976379Y-70613236D01*
X25965416Y-70649374D01*
X25956589Y-70739000D01*
X25958801Y-70761460D01*
X25958800Y-78390254D01*
X25903034Y-78446020D01*
X25830761Y-78554183D01*
X25780979Y-78674369D01*
X25755600Y-78801956D01*
X10238549Y-78801956D01*
X10209922Y-78707587D01*
X10153317Y-78601685D01*
X10077138Y-78508862D01*
X9984315Y-78432683D01*
X9878413Y-78376078D01*
X9763503Y-78341220D01*
X9644000Y-78329450D01*
X9448800Y-78332400D01*
X9296400Y-78484800D01*
X8991600Y-78484800D01*
X8839200Y-78332400D01*
X8644000Y-78329450D01*
X8524497Y-78341220D01*
X8409587Y-78376078D01*
X8303685Y-78432683D01*
X8210862Y-78508862D01*
X8134683Y-78601685D01*
X8078078Y-78707587D01*
X8043220Y-78822497D01*
X8031450Y-78942000D01*
X4660157Y-78942000D01*
X4271031Y-78633409D01*
X2347410Y-76918577D01*
X1026107Y-75617152D01*
X759495Y-75281123D01*
X570295Y-74913438D01*
X455721Y-74514638D01*
X435386Y-74291802D01*
X1414460Y-74291802D01*
X1414460Y-74608078D01*
X1476162Y-74918276D01*
X1597196Y-75210477D01*
X1772909Y-75473450D01*
X1996550Y-75697091D01*
X2259523Y-75872804D01*
X2551724Y-75993838D01*
X2861922Y-76055540D01*
X3178198Y-76055540D01*
X3488396Y-75993838D01*
X3780597Y-75872804D01*
X4043570Y-75697091D01*
X4267211Y-75473450D01*
X4442924Y-75210477D01*
X4563958Y-74918276D01*
X4625660Y-74608078D01*
X4625660Y-74291802D01*
X4563958Y-73981604D01*
X4442924Y-73689403D01*
X4267211Y-73426430D01*
X4043570Y-73202789D01*
X3780597Y-73027076D01*
X3488396Y-72906042D01*
X3178198Y-72844340D01*
X2861922Y-72844340D01*
X2551724Y-72906042D01*
X2259523Y-73027076D01*
X1996550Y-73202789D01*
X1772909Y-73426430D01*
X1597196Y-73689403D01*
X1476162Y-73981604D01*
X1414460Y-74291802D01*
X435386Y-74291802D01*
X419099Y-74113342D01*
X419099Y-67172000D01*
X2333450Y-67172000D01*
X2345220Y-67291503D01*
X2380078Y-67406413D01*
X2436683Y-67512315D01*
X2512862Y-67605138D01*
X2591837Y-67669952D01*
X2588680Y-67702000D01*
X2588680Y-68442000D01*
X2595546Y-68511710D01*
X2615879Y-68578740D01*
X2648899Y-68640516D01*
X2693337Y-68694663D01*
X2708369Y-68707000D01*
X2693337Y-68719337D01*
X2648899Y-68773484D01*
X2615879Y-68835260D01*
X2595546Y-68902290D01*
X2588680Y-68972000D01*
X2588680Y-69712000D01*
X2595546Y-69781710D01*
X2615879Y-69848740D01*
X2648899Y-69910516D01*
X2693337Y-69964663D01*
X2747484Y-70009101D01*
X2809260Y-70042121D01*
X2876290Y-70062454D01*
X2946000Y-70069320D01*
X5346000Y-70069320D01*
X5415710Y-70062454D01*
X5482740Y-70042121D01*
X5544516Y-70009101D01*
X5598663Y-69964663D01*
X5643101Y-69910516D01*
X5676121Y-69848740D01*
X5696454Y-69781710D01*
X5703320Y-69712000D01*
X5703320Y-68972000D01*
X5696454Y-68902290D01*
X5676121Y-68835260D01*
X5643101Y-68773484D01*
X5598663Y-68719337D01*
X5583631Y-68707000D01*
X5598663Y-68694663D01*
X5643101Y-68640516D01*
X5676121Y-68578740D01*
X5696454Y-68511710D01*
X5703320Y-68442000D01*
X5703320Y-67702000D01*
X5700163Y-67669952D01*
X5779138Y-67605138D01*
X5855317Y-67512315D01*
X5911922Y-67406413D01*
X5946780Y-67291503D01*
X5958550Y-67172000D01*
X5955600Y-67106800D01*
X5803200Y-66954400D01*
X4298400Y-66954400D01*
X4298400Y-66974400D01*
X3993600Y-66974400D01*
X3993600Y-66954400D01*
X2488800Y-66954400D01*
X2336400Y-67106800D01*
X2333450Y-67172000D01*
X419099Y-67172000D01*
X419099Y-65902000D01*
X2333450Y-65902000D01*
X2345220Y-66021503D01*
X2380078Y-66136413D01*
X2396427Y-66167000D01*
X2380078Y-66197587D01*
X2345220Y-66312497D01*
X2333450Y-66432000D01*
X2336400Y-66497200D01*
X2488800Y-66649600D01*
X3993600Y-66649600D01*
X3993600Y-65684400D01*
X4298400Y-65684400D01*
X4298400Y-66649600D01*
X5803200Y-66649600D01*
X5955600Y-66497200D01*
X5958550Y-66432000D01*
X5946780Y-66312497D01*
X5911922Y-66197587D01*
X5895573Y-66167000D01*
X5911922Y-66136413D01*
X5946780Y-66021503D01*
X5958550Y-65902000D01*
X5955600Y-65836800D01*
X5803200Y-65684400D01*
X4298400Y-65684400D01*
X3993600Y-65684400D01*
X2488800Y-65684400D01*
X2336400Y-65836800D01*
X2333450Y-65902000D01*
X419099Y-65902000D01*
X419100Y-65162000D01*
X2333450Y-65162000D01*
X2336400Y-65227200D01*
X2488800Y-65379600D01*
X3993600Y-65379600D01*
X3993600Y-65359600D01*
X4298400Y-65359600D01*
X4298400Y-65379600D01*
X5803200Y-65379600D01*
X5955600Y-65227200D01*
X5958550Y-65162000D01*
X5946780Y-65042497D01*
X5911922Y-64927587D01*
X5855317Y-64821685D01*
X5779138Y-64728862D01*
X5700163Y-64664048D01*
X5703320Y-64632000D01*
X5703320Y-63931800D01*
X6488680Y-63931800D01*
X6488680Y-64632000D01*
X6495546Y-64701710D01*
X6515879Y-64768740D01*
X6548899Y-64830516D01*
X6593337Y-64884663D01*
X6608369Y-64897000D01*
X6593337Y-64909337D01*
X6548899Y-64963484D01*
X6515879Y-65025260D01*
X6495546Y-65092290D01*
X6488680Y-65162000D01*
X6488680Y-65902000D01*
X6495546Y-65971710D01*
X6515879Y-66038740D01*
X6548899Y-66100516D01*
X6593337Y-66154663D01*
X6608369Y-66167000D01*
X6593337Y-66179337D01*
X6548899Y-66233484D01*
X6515879Y-66295260D01*
X6495546Y-66362290D01*
X6488680Y-66432000D01*
X6488680Y-67172000D01*
X6495546Y-67241710D01*
X6515879Y-67308740D01*
X6548899Y-67370516D01*
X6593337Y-67424663D01*
X6608369Y-67437000D01*
X6593337Y-67449337D01*
X6548899Y-67503484D01*
X6515879Y-67565260D01*
X6495546Y-67632290D01*
X6488680Y-67702000D01*
X6488680Y-68442000D01*
X6495546Y-68511710D01*
X6515879Y-68578740D01*
X6548899Y-68640516D01*
X6593337Y-68694663D01*
X6608369Y-68707000D01*
X6593337Y-68719337D01*
X6548899Y-68773484D01*
X6515879Y-68835260D01*
X6495546Y-68902290D01*
X6488680Y-68972000D01*
X6488680Y-69712000D01*
X6495546Y-69781710D01*
X6515879Y-69848740D01*
X6548899Y-69910516D01*
X6593337Y-69964663D01*
X6647484Y-70009101D01*
X6709260Y-70042121D01*
X6776290Y-70062454D01*
X6846000Y-70069320D01*
X9194800Y-70069320D01*
X9194800Y-70168622D01*
X8836592Y-70526831D01*
X8819148Y-70541147D01*
X8804831Y-70558592D01*
X8804830Y-70558593D01*
X8762013Y-70610765D01*
X8723482Y-70682853D01*
X8719560Y-70690191D01*
X8704754Y-70739000D01*
X8693416Y-70776374D01*
X8687674Y-70834680D01*
X8644000Y-70834680D01*
X8574290Y-70841546D01*
X8507260Y-70861879D01*
X8445484Y-70894899D01*
X8391337Y-70939337D01*
X8346899Y-70993484D01*
X8313879Y-71055260D01*
X8293546Y-71122290D01*
X8286680Y-71192000D01*
X8286680Y-72442000D01*
X8293546Y-72511710D01*
X8313879Y-72578740D01*
X8346899Y-72640516D01*
X8391337Y-72694663D01*
X8445484Y-72739101D01*
X8507260Y-72772121D01*
X8574290Y-72792454D01*
X8644000Y-72799320D01*
X9644000Y-72799320D01*
X9713710Y-72792454D01*
X9780740Y-72772121D01*
X9842516Y-72739101D01*
X9896663Y-72694663D01*
X9941101Y-72640516D01*
X9974121Y-72578740D01*
X9994454Y-72511710D01*
X10001320Y-72442000D01*
X10001320Y-71192000D01*
X9994454Y-71122290D01*
X9974121Y-71055260D01*
X9941101Y-70993484D01*
X9896663Y-70939337D01*
X9842516Y-70894899D01*
X9789836Y-70866741D01*
X9959409Y-70697169D01*
X9976853Y-70682853D01*
X10014156Y-70637400D01*
X10033987Y-70613237D01*
X10069027Y-70547680D01*
X10076441Y-70533809D01*
X10102585Y-70447627D01*
X10109200Y-70380460D01*
X10109200Y-70380451D01*
X10111411Y-70358001D01*
X10109200Y-70335551D01*
X10109200Y-69339050D01*
X10111411Y-69316601D01*
X10109200Y-69294151D01*
X10109200Y-67090902D01*
X16413160Y-67090902D01*
X16413160Y-67407178D01*
X16474862Y-67717376D01*
X16595896Y-68009577D01*
X16771609Y-68272550D01*
X16995250Y-68496191D01*
X17258223Y-68671904D01*
X17550424Y-68792938D01*
X17860622Y-68854640D01*
X18176898Y-68854640D01*
X18487096Y-68792938D01*
X18779297Y-68671904D01*
X19042270Y-68496191D01*
X19265911Y-68272550D01*
X19441624Y-68009577D01*
X19562658Y-67717376D01*
X19624360Y-67407178D01*
X19624360Y-67090902D01*
X23913780Y-67090902D01*
X23913780Y-67407178D01*
X23975482Y-67717376D01*
X24096516Y-68009577D01*
X24272229Y-68272550D01*
X24495870Y-68496191D01*
X24758843Y-68671904D01*
X25051044Y-68792938D01*
X25361242Y-68854640D01*
X25677518Y-68854640D01*
X25987716Y-68792938D01*
X26279917Y-68671904D01*
X26542890Y-68496191D01*
X26766531Y-68272550D01*
X26942244Y-68009577D01*
X27063278Y-67717376D01*
X27124980Y-67407178D01*
X27124980Y-67090902D01*
X31414400Y-67090902D01*
X31414400Y-67407178D01*
X31476102Y-67717376D01*
X31597136Y-68009577D01*
X31772849Y-68272550D01*
X31996490Y-68496191D01*
X32259463Y-68671904D01*
X32551664Y-68792938D01*
X32861862Y-68854640D01*
X33178138Y-68854640D01*
X33488336Y-68792938D01*
X33780537Y-68671904D01*
X34043510Y-68496191D01*
X34267151Y-68272550D01*
X34442864Y-68009577D01*
X34563898Y-67717376D01*
X34625600Y-67407178D01*
X34625600Y-67090902D01*
X38915020Y-67090902D01*
X38915020Y-67407178D01*
X38976722Y-67717376D01*
X39097756Y-68009577D01*
X39273469Y-68272550D01*
X39497110Y-68496191D01*
X39760083Y-68671904D01*
X40052284Y-68792938D01*
X40362482Y-68854640D01*
X40678758Y-68854640D01*
X40988956Y-68792938D01*
X41281157Y-68671904D01*
X41544130Y-68496191D01*
X41767771Y-68272550D01*
X41943484Y-68009577D01*
X42064518Y-67717376D01*
X42126220Y-67407178D01*
X42126220Y-67090902D01*
X46415640Y-67090902D01*
X46415640Y-67407178D01*
X46477342Y-67717376D01*
X46598376Y-68009577D01*
X46774089Y-68272550D01*
X46997730Y-68496191D01*
X47260703Y-68671904D01*
X47552904Y-68792938D01*
X47863102Y-68854640D01*
X48179378Y-68854640D01*
X48489576Y-68792938D01*
X48781777Y-68671904D01*
X49044750Y-68496191D01*
X49268391Y-68272550D01*
X49444104Y-68009577D01*
X49565138Y-67717376D01*
X49626840Y-67407178D01*
X49626840Y-67090902D01*
X49565138Y-66780704D01*
X49444104Y-66488503D01*
X49268391Y-66225530D01*
X49248861Y-66206000D01*
X58736680Y-66206000D01*
X58736680Y-67906000D01*
X58743546Y-67975710D01*
X58763879Y-68042740D01*
X58796899Y-68104516D01*
X58841337Y-68158663D01*
X58895484Y-68203101D01*
X58957260Y-68236121D01*
X59024290Y-68256454D01*
X59094000Y-68263320D01*
X60794000Y-68263320D01*
X60863710Y-68256454D01*
X60930740Y-68236121D01*
X60992516Y-68203101D01*
X61046663Y-68158663D01*
X61091101Y-68104516D01*
X61124121Y-68042740D01*
X61144454Y-67975710D01*
X61151320Y-67906000D01*
X61151320Y-66937259D01*
X61278400Y-66937259D01*
X61278400Y-67174741D01*
X61324731Y-67407660D01*
X61415611Y-67627066D01*
X61547550Y-67824525D01*
X61715475Y-67992450D01*
X61912934Y-68124389D01*
X62132340Y-68215269D01*
X62365259Y-68261600D01*
X62602741Y-68261600D01*
X62835660Y-68215269D01*
X63055066Y-68124389D01*
X63252525Y-67992450D01*
X63420450Y-67824525D01*
X63552389Y-67627066D01*
X63643269Y-67407660D01*
X63689600Y-67174741D01*
X63689600Y-66937259D01*
X63643269Y-66704340D01*
X63552389Y-66484934D01*
X63420450Y-66287475D01*
X63252525Y-66119550D01*
X63055066Y-65987611D01*
X62835660Y-65896731D01*
X62602741Y-65850400D01*
X62365259Y-65850400D01*
X62132340Y-65896731D01*
X61912934Y-65987611D01*
X61715475Y-66119550D01*
X61547550Y-66287475D01*
X61415611Y-66484934D01*
X61324731Y-66704340D01*
X61278400Y-66937259D01*
X61151320Y-66937259D01*
X61151320Y-66206000D01*
X61144454Y-66136290D01*
X61124121Y-66069260D01*
X61091101Y-66007484D01*
X61046663Y-65953337D01*
X60992516Y-65908899D01*
X60930740Y-65875879D01*
X60863710Y-65855546D01*
X60794000Y-65848680D01*
X59094000Y-65848680D01*
X59024290Y-65855546D01*
X58957260Y-65875879D01*
X58895484Y-65908899D01*
X58841337Y-65953337D01*
X58796899Y-66007484D01*
X58763879Y-66069260D01*
X58743546Y-66136290D01*
X58736680Y-66206000D01*
X49248861Y-66206000D01*
X49044750Y-66001889D01*
X48781777Y-65826176D01*
X48489576Y-65705142D01*
X48179378Y-65643440D01*
X47863102Y-65643440D01*
X47552904Y-65705142D01*
X47260703Y-65826176D01*
X46997730Y-66001889D01*
X46774089Y-66225530D01*
X46598376Y-66488503D01*
X46477342Y-66780704D01*
X46415640Y-67090902D01*
X42126220Y-67090902D01*
X42064518Y-66780704D01*
X41943484Y-66488503D01*
X41767771Y-66225530D01*
X41544130Y-66001889D01*
X41281157Y-65826176D01*
X40988956Y-65705142D01*
X40678758Y-65643440D01*
X40362482Y-65643440D01*
X40052284Y-65705142D01*
X39760083Y-65826176D01*
X39497110Y-66001889D01*
X39273469Y-66225530D01*
X39097756Y-66488503D01*
X38976722Y-66780704D01*
X38915020Y-67090902D01*
X34625600Y-67090902D01*
X34563898Y-66780704D01*
X34442864Y-66488503D01*
X34267151Y-66225530D01*
X34043510Y-66001889D01*
X33780537Y-65826176D01*
X33488336Y-65705142D01*
X33178138Y-65643440D01*
X32861862Y-65643440D01*
X32551664Y-65705142D01*
X32259463Y-65826176D01*
X31996490Y-66001889D01*
X31772849Y-66225530D01*
X31597136Y-66488503D01*
X31476102Y-66780704D01*
X31414400Y-67090902D01*
X27124980Y-67090902D01*
X27063278Y-66780704D01*
X26942244Y-66488503D01*
X26766531Y-66225530D01*
X26542890Y-66001889D01*
X26279917Y-65826176D01*
X25987716Y-65705142D01*
X25677518Y-65643440D01*
X25361242Y-65643440D01*
X25051044Y-65705142D01*
X24758843Y-65826176D01*
X24495870Y-66001889D01*
X24272229Y-66225530D01*
X24096516Y-66488503D01*
X23975482Y-66780704D01*
X23913780Y-67090902D01*
X19624360Y-67090902D01*
X19562658Y-66780704D01*
X19441624Y-66488503D01*
X19265911Y-66225530D01*
X19042270Y-66001889D01*
X18779297Y-65826176D01*
X18487096Y-65705142D01*
X18176898Y-65643440D01*
X17860622Y-65643440D01*
X17550424Y-65705142D01*
X17258223Y-65826176D01*
X16995250Y-66001889D01*
X16771609Y-66225530D01*
X16595896Y-66488503D01*
X16474862Y-66780704D01*
X16413160Y-67090902D01*
X10109200Y-67090902D01*
X10109200Y-66229377D01*
X11136778Y-65201800D01*
X15623950Y-65201800D01*
X15646400Y-65204011D01*
X15668850Y-65201800D01*
X15668860Y-65201800D01*
X15736027Y-65195185D01*
X15822209Y-65169041D01*
X15901636Y-65126587D01*
X15971253Y-65069453D01*
X15985574Y-65052003D01*
X17249208Y-63788370D01*
X17266653Y-63774053D01*
X17287439Y-63748726D01*
X17323787Y-63704437D01*
X17351073Y-63653387D01*
X17366241Y-63625009D01*
X17392385Y-63538827D01*
X17399000Y-63471660D01*
X17399000Y-63471651D01*
X17401211Y-63449201D01*
X17399000Y-63426751D01*
X17399000Y-59276328D01*
X17490031Y-59258221D01*
X17610217Y-59208439D01*
X17718380Y-59136166D01*
X17810366Y-59044180D01*
X17882639Y-58936017D01*
X17932421Y-58815831D01*
X17957800Y-58688244D01*
X17957800Y-58558156D01*
X17932421Y-58430569D01*
X17928043Y-58420000D01*
X20043550Y-58420000D01*
X20066000Y-58422211D01*
X20088450Y-58420000D01*
X20088460Y-58420000D01*
X20155627Y-58413385D01*
X20241809Y-58387241D01*
X20321236Y-58344787D01*
X20390853Y-58287653D01*
X20405174Y-58270203D01*
X21059215Y-57616164D01*
X21076653Y-57601853D01*
X21090965Y-57584414D01*
X21090971Y-57584408D01*
X21133787Y-57532236D01*
X21176241Y-57452810D01*
X21190748Y-57404987D01*
X21202385Y-57366627D01*
X21209000Y-57299460D01*
X21209000Y-57299450D01*
X21211211Y-57277000D01*
X21209000Y-57254550D01*
X21209000Y-51663601D01*
X21267817Y-51639239D01*
X21375980Y-51566966D01*
X21467966Y-51474980D01*
X21540239Y-51366817D01*
X21590021Y-51246631D01*
X21615400Y-51119044D01*
X21615400Y-50988956D01*
X21590021Y-50861369D01*
X21540239Y-50741183D01*
X21467966Y-50633020D01*
X21375980Y-50541034D01*
X21267817Y-50468761D01*
X21147631Y-50418979D01*
X21020044Y-50393600D01*
X20889956Y-50393600D01*
X20799531Y-50411587D01*
X20778239Y-50360183D01*
X20705966Y-50252020D01*
X20613980Y-50160034D01*
X20505817Y-50087761D01*
X20385631Y-50037979D01*
X20258044Y-50012600D01*
X20127956Y-50012600D01*
X20000369Y-50037979D01*
X19880183Y-50087761D01*
X19772020Y-50160034D01*
X19680034Y-50252020D01*
X19607761Y-50360183D01*
X19557979Y-50480369D01*
X19532600Y-50607956D01*
X19532600Y-50738044D01*
X19557979Y-50865631D01*
X19607761Y-50985817D01*
X19680034Y-51093980D01*
X19772020Y-51185966D01*
X19880183Y-51258239D01*
X19888201Y-51261560D01*
X19888200Y-56909822D01*
X19698823Y-57099200D01*
X16913450Y-57099200D01*
X16891000Y-57096989D01*
X16868550Y-57099200D01*
X16868540Y-57099200D01*
X16801373Y-57105815D01*
X16735249Y-57125874D01*
X16715190Y-57131959D01*
X16635764Y-57174413D01*
X16583592Y-57217229D01*
X16583586Y-57217235D01*
X16566147Y-57231547D01*
X16551835Y-57248987D01*
X15821592Y-57979231D01*
X15804148Y-57993547D01*
X15789831Y-58010992D01*
X15789830Y-58010993D01*
X15747013Y-58063165D01*
X15721855Y-58110234D01*
X15704560Y-58142591D01*
X15681674Y-58218035D01*
X15678416Y-58228774D01*
X15669589Y-58318400D01*
X15671801Y-58340860D01*
X15671801Y-59382991D01*
X15563867Y-59338283D01*
X15416650Y-59309000D01*
X15266550Y-59309000D01*
X15119333Y-59338283D01*
X14980658Y-59395724D01*
X14855853Y-59479116D01*
X14749716Y-59585253D01*
X14666324Y-59710058D01*
X14608883Y-59848733D01*
X14579600Y-59995950D01*
X14579600Y-60146050D01*
X14608883Y-60293267D01*
X14666324Y-60431942D01*
X14749716Y-60556747D01*
X14855853Y-60662884D01*
X14980658Y-60746276D01*
X15011400Y-60759010D01*
X15011401Y-62608136D01*
X14805338Y-62814200D01*
X4624841Y-62814200D01*
X4597399Y-62811497D01*
X4569957Y-62814200D01*
X4569956Y-62814200D01*
X4487856Y-62822286D01*
X4382522Y-62854239D01*
X4285446Y-62906127D01*
X4200357Y-62975957D01*
X4182862Y-62997275D01*
X3770280Y-63409858D01*
X3748957Y-63427357D01*
X3679127Y-63512446D01*
X3667243Y-63534680D01*
X2946000Y-63534680D01*
X2876290Y-63541546D01*
X2809260Y-63561879D01*
X2747484Y-63594899D01*
X2693337Y-63639337D01*
X2648899Y-63693484D01*
X2615879Y-63755260D01*
X2595546Y-63822290D01*
X2588680Y-63892000D01*
X2588680Y-64632000D01*
X2591837Y-64664048D01*
X2512862Y-64728862D01*
X2436683Y-64821685D01*
X2380078Y-64927587D01*
X2345220Y-65042497D01*
X2333450Y-65162000D01*
X419100Y-65162000D01*
X419100Y-60206259D01*
X2604400Y-60206259D01*
X2604400Y-60443741D01*
X2650731Y-60676660D01*
X2741611Y-60896066D01*
X2873550Y-61093525D01*
X3041475Y-61261450D01*
X3238934Y-61393389D01*
X3458340Y-61484269D01*
X3691259Y-61530600D01*
X3928741Y-61530600D01*
X4161660Y-61484269D01*
X4381066Y-61393389D01*
X4578525Y-61261450D01*
X4734473Y-61105502D01*
X7026400Y-61105502D01*
X7026400Y-61322498D01*
X7068734Y-61535325D01*
X7151775Y-61735803D01*
X7272332Y-61916229D01*
X7425771Y-62069668D01*
X7606197Y-62190225D01*
X7806675Y-62273266D01*
X8019502Y-62315600D01*
X8236498Y-62315600D01*
X8449325Y-62273266D01*
X8649803Y-62190225D01*
X8830229Y-62069668D01*
X8983668Y-61916229D01*
X9104225Y-61735803D01*
X9187266Y-61535325D01*
X9229600Y-61322498D01*
X9229600Y-61105502D01*
X9187266Y-60892675D01*
X9104225Y-60692197D01*
X8983668Y-60511771D01*
X8830229Y-60358332D01*
X8649803Y-60237775D01*
X8449325Y-60154734D01*
X8236498Y-60112400D01*
X8019502Y-60112400D01*
X7806675Y-60154734D01*
X7606197Y-60237775D01*
X7425771Y-60358332D01*
X7272332Y-60511771D01*
X7151775Y-60692197D01*
X7068734Y-60892675D01*
X7026400Y-61105502D01*
X4734473Y-61105502D01*
X4746450Y-61093525D01*
X4878389Y-60896066D01*
X4969269Y-60676660D01*
X5015600Y-60443741D01*
X5015600Y-60206259D01*
X4969269Y-59973340D01*
X4878389Y-59753934D01*
X4746450Y-59556475D01*
X4578525Y-59388550D01*
X4381066Y-59256611D01*
X4161660Y-59165731D01*
X3928741Y-59119400D01*
X3691259Y-59119400D01*
X3458340Y-59165731D01*
X3238934Y-59256611D01*
X3041475Y-59388550D01*
X2873550Y-59556475D01*
X2741611Y-59753934D01*
X2650731Y-59973340D01*
X2604400Y-60206259D01*
X419100Y-60206259D01*
X419100Y-56935000D01*
X2602680Y-56935000D01*
X2602680Y-58635000D01*
X2609546Y-58704710D01*
X2629879Y-58771740D01*
X2662899Y-58833516D01*
X2707337Y-58887663D01*
X2761484Y-58932101D01*
X2823260Y-58965121D01*
X2890290Y-58985454D01*
X2960000Y-58992320D01*
X4660000Y-58992320D01*
X4729710Y-58985454D01*
X4796740Y-58965121D01*
X4858516Y-58932101D01*
X4912663Y-58887663D01*
X4957101Y-58833516D01*
X4990121Y-58771740D01*
X5010454Y-58704710D01*
X5017320Y-58635000D01*
X5017320Y-56935000D01*
X5010454Y-56865290D01*
X4990121Y-56798260D01*
X4957101Y-56736484D01*
X4912663Y-56682337D01*
X4858516Y-56637899D01*
X4796740Y-56604879D01*
X4729710Y-56584546D01*
X4660000Y-56577680D01*
X2960000Y-56577680D01*
X2890290Y-56584546D01*
X2823260Y-56604879D01*
X2761484Y-56637899D01*
X2707337Y-56682337D01*
X2662899Y-56736484D01*
X2629879Y-56798260D01*
X2609546Y-56865290D01*
X2602680Y-56935000D01*
X419100Y-56935000D01*
X419101Y-56535499D01*
X437278Y-56350115D01*
X485163Y-56191512D01*
X562943Y-56045229D01*
X667654Y-55916841D01*
X795305Y-55811239D01*
X941040Y-55732441D01*
X1099310Y-55683447D01*
X1283391Y-55664100D01*
X5354580Y-55664100D01*
X5372967Y-55662289D01*
X5380849Y-55662344D01*
X5386673Y-55661773D01*
X5633176Y-55635865D01*
X5670338Y-55628237D01*
X5707697Y-55621110D01*
X5713300Y-55619418D01*
X5950076Y-55546124D01*
X5985058Y-55531419D01*
X6020313Y-55517175D01*
X6025475Y-55514430D01*
X6025479Y-55514428D01*
X6025482Y-55514426D01*
X6243510Y-55396538D01*
X6274977Y-55375314D01*
X6306784Y-55354499D01*
X6311317Y-55350802D01*
X6311321Y-55350799D01*
X6311325Y-55350795D01*
X6502299Y-55192808D01*
X6529021Y-55165899D01*
X6556204Y-55139279D01*
X6559934Y-55134769D01*
X6716589Y-54942692D01*
X6737604Y-54911061D01*
X6759069Y-54879712D01*
X6761853Y-54874564D01*
X6878217Y-54655716D01*
X6892671Y-54620648D01*
X6907656Y-54585685D01*
X6909386Y-54580094D01*
X6981026Y-54342813D01*
X6988399Y-54305576D01*
X6996302Y-54268396D01*
X6996914Y-54262576D01*
X7021101Y-54015898D01*
X7021101Y-54015886D01*
X7023101Y-53995580D01*
X7023101Y-42330000D01*
X7936680Y-42330000D01*
X7936680Y-44030000D01*
X7943546Y-44099710D01*
X7963879Y-44166740D01*
X7996899Y-44228516D01*
X8041337Y-44282663D01*
X8095484Y-44327101D01*
X8157260Y-44360121D01*
X8224290Y-44380454D01*
X8294000Y-44387320D01*
X9994000Y-44387320D01*
X10063710Y-44380454D01*
X10130740Y-44360121D01*
X10192516Y-44327101D01*
X10246663Y-44282663D01*
X10291101Y-44228516D01*
X10324121Y-44166740D01*
X10334975Y-44130956D01*
X14071600Y-44130956D01*
X14071600Y-44261044D01*
X14096979Y-44388631D01*
X14146761Y-44508817D01*
X14219034Y-44616980D01*
X14311020Y-44708966D01*
X14419183Y-44781239D01*
X14539369Y-44831021D01*
X14666956Y-44856400D01*
X14745822Y-44856400D01*
X14875429Y-44986007D01*
X14889747Y-45003453D01*
X14907192Y-45017770D01*
X14959363Y-45060587D01*
X15001313Y-45083009D01*
X15038791Y-45103041D01*
X15124973Y-45129185D01*
X15192140Y-45135800D01*
X15192149Y-45135800D01*
X15214599Y-45138011D01*
X15237049Y-45135800D01*
X18022423Y-45135800D01*
X18186400Y-45299778D01*
X18186401Y-54649221D01*
X17961784Y-54873838D01*
X17946980Y-54859034D01*
X17838817Y-54786761D01*
X17718631Y-54736979D01*
X17591044Y-54711600D01*
X17460956Y-54711600D01*
X17333369Y-54736979D01*
X17213183Y-54786761D01*
X17105020Y-54859034D01*
X17013034Y-54951020D01*
X16940761Y-55059183D01*
X16890979Y-55179369D01*
X16865600Y-55306956D01*
X16865600Y-55437044D01*
X16890979Y-55564631D01*
X16940761Y-55684817D01*
X17013034Y-55792980D01*
X17105020Y-55884966D01*
X17213183Y-55957239D01*
X17260479Y-55976830D01*
X17194761Y-56075183D01*
X17144979Y-56195369D01*
X17119600Y-56322956D01*
X17119600Y-56453044D01*
X17144979Y-56580631D01*
X17194761Y-56700817D01*
X17267034Y-56808980D01*
X17359020Y-56900966D01*
X17467183Y-56973239D01*
X17587369Y-57023021D01*
X17714956Y-57048400D01*
X17845044Y-57048400D01*
X17972631Y-57023021D01*
X18092817Y-56973239D01*
X18200980Y-56900966D01*
X18256746Y-56845200D01*
X18494150Y-56845200D01*
X18516600Y-56847411D01*
X18539050Y-56845200D01*
X18539060Y-56845200D01*
X18606227Y-56838585D01*
X18692409Y-56812441D01*
X18771836Y-56769987D01*
X18841453Y-56712853D01*
X18855774Y-56695403D01*
X19357414Y-56193764D01*
X19374853Y-56179453D01*
X19389165Y-56162014D01*
X19389171Y-56162008D01*
X19431987Y-56109836D01*
X19474441Y-56030410D01*
X19500585Y-55944227D01*
X19501907Y-55930800D01*
X19507200Y-55877060D01*
X19507200Y-55877052D01*
X19509411Y-55854600D01*
X19507200Y-55832148D01*
X19507200Y-44929650D01*
X19509411Y-44907200D01*
X19507200Y-44884750D01*
X19507200Y-44884740D01*
X19500585Y-44817573D01*
X19474441Y-44731391D01*
X19431987Y-44651964D01*
X19374853Y-44582347D01*
X19357408Y-44568030D01*
X18550974Y-43761597D01*
X18536653Y-43744147D01*
X18467036Y-43687013D01*
X18387609Y-43644559D01*
X18301427Y-43618415D01*
X18234260Y-43611800D01*
X18234250Y-43611800D01*
X18211800Y-43609589D01*
X18189350Y-43611800D01*
X16097746Y-43611800D01*
X16041980Y-43556034D01*
X15933817Y-43483761D01*
X15813631Y-43433979D01*
X15686044Y-43408600D01*
X15555956Y-43408600D01*
X15428369Y-43433979D01*
X15308183Y-43483761D01*
X15200020Y-43556034D01*
X15108034Y-43648020D01*
X15105733Y-43651464D01*
X15044817Y-43610761D01*
X14924631Y-43560979D01*
X14797044Y-43535600D01*
X14666956Y-43535600D01*
X14539369Y-43560979D01*
X14419183Y-43610761D01*
X14311020Y-43683034D01*
X14219034Y-43775020D01*
X14146761Y-43883183D01*
X14096979Y-44003369D01*
X14071600Y-44130956D01*
X10334975Y-44130956D01*
X10344454Y-44099710D01*
X10351320Y-44030000D01*
X10351320Y-42330000D01*
X10344454Y-42260290D01*
X10324121Y-42193260D01*
X10291101Y-42131484D01*
X10246663Y-42077337D01*
X10192516Y-42032899D01*
X10130740Y-41999879D01*
X10063710Y-41979546D01*
X9994000Y-41972680D01*
X8294000Y-41972680D01*
X8224290Y-41979546D01*
X8157260Y-41999879D01*
X8095484Y-42032899D01*
X8041337Y-42077337D01*
X7996899Y-42131484D01*
X7963879Y-42193260D01*
X7943546Y-42260290D01*
X7936680Y-42330000D01*
X7023101Y-42330000D01*
X7023101Y-40521259D01*
X7938400Y-40521259D01*
X7938400Y-40758741D01*
X7984731Y-40991660D01*
X8075611Y-41211066D01*
X8207550Y-41408525D01*
X8375475Y-41576450D01*
X8572934Y-41708389D01*
X8792340Y-41799269D01*
X9025259Y-41845600D01*
X9262741Y-41845600D01*
X9495660Y-41799269D01*
X9715066Y-41708389D01*
X9912525Y-41576450D01*
X10080450Y-41408525D01*
X10212389Y-41211066D01*
X10303269Y-40991660D01*
X10349600Y-40758741D01*
X10349600Y-40521259D01*
X10303269Y-40288340D01*
X10212389Y-40068934D01*
X10080450Y-39871475D01*
X9912525Y-39703550D01*
X9715066Y-39571611D01*
X9495660Y-39480731D01*
X9262741Y-39434400D01*
X9025259Y-39434400D01*
X8792340Y-39480731D01*
X8572934Y-39571611D01*
X8375475Y-39703550D01*
X8207550Y-39871475D01*
X8075611Y-40068934D01*
X7984731Y-40288340D01*
X7938400Y-40521259D01*
X7023101Y-40521259D01*
X7023100Y-35937607D01*
X7734090Y-35937607D01*
X7761911Y-36029338D01*
X7880031Y-36289952D01*
X8046724Y-36522514D01*
X8255585Y-36718087D01*
X8498587Y-36869156D01*
X8743068Y-36961140D01*
X8572934Y-37031611D01*
X8375475Y-37163550D01*
X8207550Y-37331475D01*
X8075611Y-37528934D01*
X7984731Y-37748340D01*
X7938400Y-37981259D01*
X7938400Y-38218741D01*
X7984731Y-38451660D01*
X8075611Y-38671066D01*
X8207550Y-38868525D01*
X8375475Y-39036450D01*
X8572934Y-39168389D01*
X8792340Y-39259269D01*
X9025259Y-39305600D01*
X9262741Y-39305600D01*
X9495660Y-39259269D01*
X9715066Y-39168389D01*
X9912525Y-39036450D01*
X10080450Y-38868525D01*
X10212389Y-38671066D01*
X10303269Y-38451660D01*
X10349600Y-38218741D01*
X10349600Y-37981259D01*
X10303269Y-37748340D01*
X10212389Y-37528934D01*
X10080450Y-37331475D01*
X9912525Y-37163550D01*
X9715066Y-37031611D01*
X9544932Y-36961140D01*
X9789413Y-36869156D01*
X10032415Y-36718087D01*
X10241276Y-36522514D01*
X10407969Y-36289952D01*
X10526089Y-36029338D01*
X10553910Y-35937607D01*
X10442286Y-35712400D01*
X9296400Y-35712400D01*
X9296400Y-35732400D01*
X8991600Y-35732400D01*
X8991600Y-35712400D01*
X7845714Y-35712400D01*
X7734090Y-35937607D01*
X7023100Y-35937607D01*
X7023100Y-35182393D01*
X7734090Y-35182393D01*
X7845714Y-35407600D01*
X8991600Y-35407600D01*
X8991600Y-34260772D01*
X9296400Y-34260772D01*
X9296400Y-35407600D01*
X10442286Y-35407600D01*
X10553910Y-35182393D01*
X10526089Y-35090662D01*
X10407969Y-34830048D01*
X10241276Y-34597486D01*
X10032415Y-34401913D01*
X9789413Y-34250844D01*
X9521608Y-34150085D01*
X9296400Y-34260772D01*
X8991600Y-34260772D01*
X8766392Y-34150085D01*
X8498587Y-34250844D01*
X8255585Y-34401913D01*
X8046724Y-34597486D01*
X7880031Y-34830048D01*
X7761911Y-35090662D01*
X7734090Y-35182393D01*
X7023100Y-35182393D01*
X7023099Y-34904420D01*
X7021289Y-34886042D01*
X7021344Y-34878151D01*
X7020773Y-34872327D01*
X6994865Y-34625824D01*
X6987228Y-34588620D01*
X6980109Y-34551301D01*
X6978418Y-34545698D01*
X6905123Y-34308923D01*
X6890399Y-34273895D01*
X6876174Y-34238689D01*
X6873427Y-34233522D01*
X6755539Y-34015492D01*
X6734301Y-33984006D01*
X6713499Y-33952218D01*
X6709801Y-33947682D01*
X6551808Y-33756702D01*
X6524880Y-33729961D01*
X6498278Y-33702797D01*
X6493769Y-33699067D01*
X6301691Y-33542412D01*
X6270078Y-33521409D01*
X6238712Y-33499932D01*
X6233564Y-33497148D01*
X6014716Y-33380784D01*
X5979636Y-33366325D01*
X5944683Y-33351345D01*
X5939093Y-33349614D01*
X5701810Y-33277975D01*
X5664547Y-33270597D01*
X5627395Y-33262700D01*
X5621575Y-33262088D01*
X5374898Y-33237901D01*
X5374887Y-33237901D01*
X5354581Y-33235901D01*
X1290498Y-33235901D01*
X1105113Y-33217724D01*
X946514Y-33169840D01*
X800229Y-33092058D01*
X671845Y-32987351D01*
X566237Y-32859693D01*
X487438Y-32713957D01*
X438448Y-32555694D01*
X419099Y-32371600D01*
X419099Y-31801950D01*
X16129000Y-31801950D01*
X16129000Y-31952050D01*
X16158283Y-32099267D01*
X16215724Y-32237942D01*
X16299116Y-32362747D01*
X16332201Y-32395832D01*
X16332200Y-35041169D01*
X16299116Y-35074253D01*
X16215724Y-35199058D01*
X16158283Y-35337733D01*
X16129000Y-35484950D01*
X16129000Y-35635050D01*
X16158283Y-35782267D01*
X16215724Y-35920942D01*
X16299116Y-36045747D01*
X16405253Y-36151884D01*
X16530058Y-36235276D01*
X16668733Y-36292717D01*
X16815950Y-36322000D01*
X16966050Y-36322000D01*
X17113267Y-36292717D01*
X17251942Y-36235276D01*
X17376747Y-36151884D01*
X17482884Y-36045747D01*
X17566276Y-35920942D01*
X17623717Y-35782267D01*
X17653000Y-35635050D01*
X17653000Y-35484950D01*
X17623717Y-35337733D01*
X17566276Y-35199058D01*
X17482884Y-35074253D01*
X17449800Y-35041169D01*
X17449800Y-32395831D01*
X17482884Y-32362747D01*
X17566276Y-32237942D01*
X17623717Y-32099267D01*
X17653000Y-31952050D01*
X17653000Y-31801950D01*
X17623717Y-31654733D01*
X17566276Y-31516058D01*
X17482884Y-31391253D01*
X17376747Y-31285116D01*
X17251942Y-31201724D01*
X17113267Y-31144283D01*
X16966050Y-31115000D01*
X16815950Y-31115000D01*
X16668733Y-31144283D01*
X16530058Y-31201724D01*
X16405253Y-31285116D01*
X16299116Y-31391253D01*
X16215724Y-31516058D01*
X16158283Y-31654733D01*
X16129000Y-31801950D01*
X419099Y-31801950D01*
X419100Y-26551259D01*
X3366400Y-26551259D01*
X3366400Y-26788741D01*
X3412731Y-27021660D01*
X3503611Y-27241066D01*
X3635550Y-27438525D01*
X3803475Y-27606450D01*
X4000934Y-27738389D01*
X4220340Y-27829269D01*
X4453259Y-27875600D01*
X4690741Y-27875600D01*
X4923660Y-27829269D01*
X5143066Y-27738389D01*
X5199295Y-27700817D01*
X6296709Y-27700817D01*
X6377878Y-27939710D01*
X6639692Y-28058533D01*
X6919657Y-28123995D01*
X7207013Y-28133582D01*
X7490718Y-28086923D01*
X7759869Y-27985813D01*
X7846122Y-27939710D01*
X7927291Y-27700817D01*
X7112000Y-26885526D01*
X6296709Y-27700817D01*
X5199295Y-27700817D01*
X5340525Y-27606450D01*
X5508450Y-27438525D01*
X5640389Y-27241066D01*
X5706960Y-27080349D01*
X5796187Y-27317869D01*
X5842290Y-27404122D01*
X6081183Y-27485291D01*
X6896474Y-26670000D01*
X7327526Y-26670000D01*
X8142817Y-27485291D01*
X8381710Y-27404122D01*
X8500533Y-27142308D01*
X8565995Y-26862343D01*
X8575582Y-26574987D01*
X8528923Y-26291282D01*
X8427813Y-26022131D01*
X8411260Y-25991162D01*
X16413160Y-25991162D01*
X16413160Y-26307438D01*
X16474862Y-26617636D01*
X16595896Y-26909837D01*
X16771609Y-27172810D01*
X16995250Y-27396451D01*
X17258223Y-27572164D01*
X17550424Y-27693198D01*
X17860622Y-27754900D01*
X18176898Y-27754900D01*
X18487096Y-27693198D01*
X18779297Y-27572164D01*
X19042270Y-27396451D01*
X19265911Y-27172810D01*
X19441624Y-26909837D01*
X19562658Y-26617636D01*
X19624360Y-26307438D01*
X19624360Y-25991162D01*
X19562658Y-25680964D01*
X19441624Y-25388763D01*
X19265911Y-25125790D01*
X19042270Y-24902149D01*
X18779297Y-24726436D01*
X18487096Y-24605402D01*
X18176898Y-24543700D01*
X17860622Y-24543700D01*
X17550424Y-24605402D01*
X17258223Y-24726436D01*
X16995250Y-24902149D01*
X16771609Y-25125790D01*
X16595896Y-25388763D01*
X16474862Y-25680964D01*
X16413160Y-25991162D01*
X8411260Y-25991162D01*
X8381710Y-25935878D01*
X8142817Y-25854709D01*
X7327526Y-26670000D01*
X6896474Y-26670000D01*
X6081183Y-25854709D01*
X5842290Y-25935878D01*
X5723467Y-26197692D01*
X5708251Y-26262768D01*
X5640389Y-26098934D01*
X5508450Y-25901475D01*
X5340525Y-25733550D01*
X5143066Y-25601611D01*
X4923660Y-25510731D01*
X4690741Y-25464400D01*
X4453259Y-25464400D01*
X4220340Y-25510731D01*
X4000934Y-25601611D01*
X3803475Y-25733550D01*
X3635550Y-25901475D01*
X3503611Y-26098934D01*
X3412731Y-26318340D01*
X3366400Y-26551259D01*
X419100Y-26551259D01*
X419100Y-24011259D01*
X3366400Y-24011259D01*
X3366400Y-24248741D01*
X3412731Y-24481660D01*
X3503611Y-24701066D01*
X3635550Y-24898525D01*
X3803475Y-25066450D01*
X4000934Y-25198389D01*
X4220340Y-25289269D01*
X4453259Y-25335600D01*
X4690741Y-25335600D01*
X4923660Y-25289269D01*
X5143066Y-25198389D01*
X5340525Y-25066450D01*
X5508450Y-24898525D01*
X5640389Y-24701066D01*
X5731269Y-24481660D01*
X5777600Y-24248741D01*
X5777600Y-24011259D01*
X5906400Y-24011259D01*
X5906400Y-24248741D01*
X5952731Y-24481660D01*
X6043611Y-24701066D01*
X6175550Y-24898525D01*
X6343475Y-25066450D01*
X6540934Y-25198389D01*
X6701651Y-25264960D01*
X6464131Y-25354187D01*
X6377878Y-25400290D01*
X6296709Y-25639183D01*
X7112000Y-26454474D01*
X7927291Y-25639183D01*
X7846122Y-25400290D01*
X7584308Y-25281467D01*
X7519232Y-25266251D01*
X7683066Y-25198389D01*
X7880525Y-25066450D01*
X8048450Y-24898525D01*
X8180389Y-24701066D01*
X8259116Y-24511000D01*
X21181389Y-24511000D01*
X21183600Y-24533450D01*
X21183601Y-37163140D01*
X21181389Y-37185600D01*
X21190216Y-37275226D01*
X21216360Y-37361409D01*
X21258813Y-37440835D01*
X21280461Y-37467212D01*
X21315948Y-37510453D01*
X21333393Y-37524770D01*
X23672800Y-39864178D01*
X23672801Y-57943253D01*
X23617034Y-57999020D01*
X23544761Y-58107183D01*
X23494979Y-58227369D01*
X23469600Y-58354956D01*
X23469600Y-58485044D01*
X23494979Y-58612631D01*
X23544761Y-58732817D01*
X23617034Y-58840980D01*
X23709020Y-58932966D01*
X23817183Y-59005239D01*
X23937369Y-59055021D01*
X24064956Y-59080400D01*
X24195044Y-59080400D01*
X24322631Y-59055021D01*
X24442817Y-59005239D01*
X24550980Y-58932966D01*
X24642966Y-58840980D01*
X24715239Y-58732817D01*
X24765021Y-58612631D01*
X24790400Y-58485044D01*
X24790400Y-58354956D01*
X24765021Y-58227369D01*
X24715239Y-58107183D01*
X24642966Y-57999020D01*
X24587200Y-57943254D01*
X24587200Y-50607956D01*
X38328600Y-50607956D01*
X38328600Y-50738044D01*
X38353979Y-50865631D01*
X38403761Y-50985817D01*
X38476034Y-51093980D01*
X38531801Y-51149747D01*
X38531800Y-56546254D01*
X38476034Y-56602020D01*
X38403761Y-56710183D01*
X38353979Y-56830369D01*
X38328600Y-56957956D01*
X38328600Y-57088044D01*
X38353979Y-57215631D01*
X38403761Y-57335817D01*
X38476034Y-57443980D01*
X38568020Y-57535966D01*
X38676183Y-57608239D01*
X38796369Y-57658021D01*
X38923956Y-57683400D01*
X39054044Y-57683400D01*
X39181631Y-57658021D01*
X39301817Y-57608239D01*
X39409980Y-57535966D01*
X39501966Y-57443980D01*
X39574239Y-57335817D01*
X39624021Y-57215631D01*
X39649400Y-57088044D01*
X39649400Y-56957956D01*
X39624021Y-56830369D01*
X39574239Y-56710183D01*
X39501966Y-56602020D01*
X39446200Y-56546254D01*
X39446200Y-51149746D01*
X39501966Y-51093980D01*
X39574239Y-50985817D01*
X39624021Y-50865631D01*
X39649400Y-50738044D01*
X39649400Y-50607956D01*
X39624021Y-50480369D01*
X39574239Y-50360183D01*
X39501966Y-50252020D01*
X39409980Y-50160034D01*
X39301817Y-50087761D01*
X39181631Y-50037979D01*
X39054044Y-50012600D01*
X38923956Y-50012600D01*
X38796369Y-50037979D01*
X38676183Y-50087761D01*
X38568020Y-50160034D01*
X38476034Y-50252020D01*
X38403761Y-50360183D01*
X38353979Y-50480369D01*
X38328600Y-50607956D01*
X24587200Y-50607956D01*
X24587200Y-44341502D01*
X56810400Y-44341502D01*
X56810400Y-44558498D01*
X56852734Y-44771325D01*
X56935775Y-44971803D01*
X57056332Y-45152229D01*
X57209771Y-45305668D01*
X57390197Y-45426225D01*
X57590675Y-45509266D01*
X57803502Y-45551600D01*
X58020498Y-45551600D01*
X58233325Y-45509266D01*
X58433803Y-45426225D01*
X58614229Y-45305668D01*
X58767668Y-45152229D01*
X58888225Y-44971803D01*
X58971266Y-44771325D01*
X59013600Y-44558498D01*
X59013600Y-44341502D01*
X58971266Y-44128675D01*
X58888225Y-43928197D01*
X58767668Y-43747771D01*
X58614229Y-43594332D01*
X58433803Y-43473775D01*
X58233325Y-43390734D01*
X58020498Y-43348400D01*
X57803502Y-43348400D01*
X57590675Y-43390734D01*
X57390197Y-43473775D01*
X57209771Y-43594332D01*
X57056332Y-43747771D01*
X56935775Y-43928197D01*
X56852734Y-44128675D01*
X56810400Y-44341502D01*
X24587200Y-44341502D01*
X24587200Y-39697249D01*
X24589411Y-39674799D01*
X24587200Y-39652349D01*
X24587200Y-39652340D01*
X24580585Y-39585173D01*
X24554441Y-39498991D01*
X24519917Y-39434400D01*
X24511987Y-39419563D01*
X24469170Y-39367392D01*
X24454853Y-39349947D01*
X24437409Y-39335631D01*
X23730585Y-38628807D01*
X42351118Y-38628807D01*
X42356506Y-38807902D01*
X42396731Y-38982503D01*
X42444331Y-39097422D01*
X42616537Y-39110066D01*
X42622471Y-39116000D01*
X42616537Y-39121934D01*
X42444331Y-39134578D01*
X42380773Y-39302103D01*
X42351118Y-39478807D01*
X42356506Y-39657902D01*
X42396731Y-39832503D01*
X42444331Y-39947422D01*
X42627596Y-39960878D01*
X43017683Y-39570791D01*
X43024103Y-39573227D01*
X43200807Y-39602882D01*
X43204847Y-39602760D01*
X43206506Y-39657902D01*
X43235551Y-39783975D01*
X42843122Y-40176404D01*
X42856578Y-40359669D01*
X43024103Y-40423227D01*
X43200807Y-40452882D01*
X43379902Y-40447494D01*
X43554503Y-40407269D01*
X43669422Y-40359669D01*
X43682066Y-40187463D01*
X43688000Y-40181529D01*
X43693934Y-40187463D01*
X43706578Y-40359669D01*
X43874103Y-40423227D01*
X44050807Y-40452882D01*
X44229902Y-40447494D01*
X44404503Y-40407269D01*
X44519422Y-40359669D01*
X44532878Y-40176404D01*
X44142791Y-39786317D01*
X44145227Y-39779897D01*
X44174882Y-39603193D01*
X44174760Y-39599153D01*
X44229902Y-39597494D01*
X44355975Y-39568449D01*
X44748404Y-39960878D01*
X44931669Y-39947422D01*
X44995227Y-39779897D01*
X45024882Y-39603193D01*
X45019494Y-39424098D01*
X44979269Y-39249497D01*
X44931669Y-39134578D01*
X44759463Y-39121934D01*
X44753529Y-39116000D01*
X44759463Y-39110066D01*
X44931669Y-39097422D01*
X44995227Y-38929897D01*
X45024882Y-38753193D01*
X45019494Y-38574098D01*
X44979269Y-38399497D01*
X44931669Y-38284578D01*
X44748404Y-38271122D01*
X44358317Y-38661209D01*
X44351897Y-38658773D01*
X44175193Y-38629118D01*
X44171153Y-38629240D01*
X44169494Y-38574098D01*
X44140449Y-38448025D01*
X44532878Y-38055596D01*
X44519422Y-37872331D01*
X44351897Y-37808773D01*
X44175193Y-37779118D01*
X43996098Y-37784506D01*
X43821497Y-37824731D01*
X43706578Y-37872331D01*
X43693934Y-38044537D01*
X43688000Y-38050471D01*
X43682066Y-38044537D01*
X43669422Y-37872331D01*
X43501897Y-37808773D01*
X43325193Y-37779118D01*
X43146098Y-37784506D01*
X42971497Y-37824731D01*
X42856578Y-37872331D01*
X42843122Y-38055596D01*
X43233209Y-38445683D01*
X43230773Y-38452103D01*
X43201118Y-38628807D01*
X43201240Y-38632847D01*
X43146098Y-38634506D01*
X43020025Y-38663551D01*
X42627596Y-38271122D01*
X42444331Y-38284578D01*
X42380773Y-38452103D01*
X42351118Y-38628807D01*
X23730585Y-38628807D01*
X23208361Y-38106584D01*
X23302956Y-38125400D01*
X23433044Y-38125400D01*
X23560631Y-38100021D01*
X23680817Y-38050239D01*
X23788980Y-37977966D01*
X23880966Y-37885980D01*
X23953239Y-37777817D01*
X24003021Y-37657631D01*
X24028400Y-37530044D01*
X24028400Y-37399956D01*
X24003021Y-37272369D01*
X23953239Y-37152183D01*
X23880966Y-37044020D01*
X23788980Y-36952034D01*
X23680817Y-36879761D01*
X23560631Y-36829979D01*
X23433044Y-36804600D01*
X23302956Y-36804600D01*
X23175369Y-36829979D01*
X23055183Y-36879761D01*
X22947020Y-36952034D01*
X22891254Y-37007800D01*
X22693778Y-37007800D01*
X22504400Y-36818423D01*
X22504400Y-35613662D01*
X22606000Y-35715263D01*
X22606000Y-35762050D01*
X22635283Y-35909267D01*
X22692724Y-36047942D01*
X22776116Y-36172747D01*
X22882253Y-36278884D01*
X23007058Y-36362276D01*
X23145733Y-36419717D01*
X23292950Y-36449000D01*
X23443050Y-36449000D01*
X23590267Y-36419717D01*
X23728942Y-36362276D01*
X23853747Y-36278884D01*
X23959884Y-36172747D01*
X24043276Y-36047942D01*
X24100717Y-35909267D01*
X24130000Y-35762050D01*
X24130000Y-35611950D01*
X24100717Y-35464733D01*
X24043276Y-35326058D01*
X23959884Y-35201253D01*
X23853747Y-35095116D01*
X23728942Y-35011724D01*
X23590267Y-34954283D01*
X23443050Y-34925000D01*
X23396263Y-34925000D01*
X23164800Y-34693538D01*
X23164800Y-34412643D01*
X23175369Y-34417021D01*
X23302956Y-34442400D01*
X23433044Y-34442400D01*
X23560631Y-34417021D01*
X23680817Y-34367239D01*
X23788980Y-34294966D01*
X23880966Y-34202980D01*
X23953239Y-34094817D01*
X24003021Y-33974631D01*
X24028400Y-33847044D01*
X24028400Y-33768178D01*
X24192379Y-33604200D01*
X29949550Y-33604200D01*
X29972000Y-33606411D01*
X29994450Y-33604200D01*
X29994460Y-33604200D01*
X30061627Y-33597585D01*
X30147809Y-33571441D01*
X30227236Y-33528987D01*
X30296853Y-33471853D01*
X30311174Y-33454403D01*
X30466177Y-33299400D01*
X30545044Y-33299400D01*
X30672631Y-33274021D01*
X30792817Y-33224239D01*
X30900980Y-33151966D01*
X30992966Y-33059980D01*
X31065239Y-32951817D01*
X31115021Y-32831631D01*
X31140400Y-32704044D01*
X31140400Y-32573956D01*
X31115021Y-32446369D01*
X31065239Y-32326183D01*
X30992966Y-32218020D01*
X30900980Y-32126034D01*
X30792817Y-32053761D01*
X30672631Y-32003979D01*
X30545044Y-31978600D01*
X30414956Y-31978600D01*
X30287369Y-32003979D01*
X30167183Y-32053761D01*
X30059020Y-32126034D01*
X29967034Y-32218020D01*
X29894761Y-32326183D01*
X29844979Y-32446369D01*
X29819600Y-32573956D01*
X29819600Y-32652823D01*
X29782623Y-32689800D01*
X28638531Y-32689800D01*
X28672717Y-32607267D01*
X28702000Y-32460050D01*
X28702000Y-32309950D01*
X28672717Y-32162733D01*
X28615276Y-32024058D01*
X28531884Y-31899253D01*
X28425747Y-31793116D01*
X28300942Y-31709724D01*
X28162267Y-31652283D01*
X28015050Y-31623000D01*
X27864950Y-31623000D01*
X27717733Y-31652283D01*
X27579058Y-31709724D01*
X27454253Y-31793116D01*
X27348116Y-31899253D01*
X27312070Y-31953200D01*
X24234462Y-31953200D01*
X24110083Y-31828821D01*
X24100717Y-31781733D01*
X24043276Y-31643058D01*
X23959884Y-31518253D01*
X23853747Y-31412116D01*
X23728942Y-31328724D01*
X23590267Y-31271283D01*
X23443050Y-31242000D01*
X23292950Y-31242000D01*
X23145733Y-31271283D01*
X23007058Y-31328724D01*
X22882253Y-31412116D01*
X22776116Y-31518253D01*
X22692724Y-31643058D01*
X22635283Y-31781733D01*
X22606000Y-31928950D01*
X22606000Y-31975737D01*
X22504400Y-32077338D01*
X22504400Y-29196177D01*
X22922379Y-28778200D01*
X29695550Y-28778200D01*
X29718000Y-28780411D01*
X29740450Y-28778200D01*
X29740460Y-28778200D01*
X29807627Y-28771585D01*
X29893809Y-28745441D01*
X29973236Y-28702987D01*
X30042853Y-28645853D01*
X30057174Y-28628403D01*
X30466178Y-28219400D01*
X30545044Y-28219400D01*
X30672631Y-28194021D01*
X30792817Y-28144239D01*
X30900980Y-28071966D01*
X30992966Y-27979980D01*
X31065239Y-27871817D01*
X31115021Y-27751631D01*
X31140400Y-27624044D01*
X31140400Y-27493956D01*
X31115021Y-27366369D01*
X31065239Y-27246183D01*
X30992966Y-27138020D01*
X30900980Y-27046034D01*
X30792817Y-26973761D01*
X30672631Y-26923979D01*
X30545044Y-26898600D01*
X30414956Y-26898600D01*
X30287369Y-26923979D01*
X30167183Y-26973761D01*
X30059020Y-27046034D01*
X29967034Y-27138020D01*
X29894761Y-27246183D01*
X29844979Y-27366369D01*
X29819600Y-27493956D01*
X29819600Y-27572822D01*
X29528623Y-27863800D01*
X22755450Y-27863800D01*
X22733000Y-27861589D01*
X22710550Y-27863800D01*
X22710540Y-27863800D01*
X22643373Y-27870415D01*
X22577249Y-27890474D01*
X22557190Y-27896559D01*
X22477764Y-27939013D01*
X22425592Y-27981829D01*
X22425586Y-27981835D01*
X22408147Y-27996147D01*
X22393834Y-28013587D01*
X22098000Y-28309422D01*
X22098000Y-25991162D01*
X23913780Y-25991162D01*
X23913780Y-26307438D01*
X23975482Y-26617636D01*
X24096516Y-26909837D01*
X24272229Y-27172810D01*
X24495870Y-27396451D01*
X24758843Y-27572164D01*
X25051044Y-27693198D01*
X25361242Y-27754900D01*
X25677518Y-27754900D01*
X25987716Y-27693198D01*
X26279917Y-27572164D01*
X26542890Y-27396451D01*
X26766531Y-27172810D01*
X26942244Y-26909837D01*
X27063278Y-26617636D01*
X27124980Y-26307438D01*
X27124980Y-25991162D01*
X31414400Y-25991162D01*
X31414400Y-26307438D01*
X31476102Y-26617636D01*
X31597136Y-26909837D01*
X31772849Y-27172810D01*
X31996490Y-27396451D01*
X32259463Y-27572164D01*
X32551664Y-27693198D01*
X32861862Y-27754900D01*
X33178138Y-27754900D01*
X33488336Y-27693198D01*
X33780537Y-27572164D01*
X34043510Y-27396451D01*
X34267151Y-27172810D01*
X34442864Y-26909837D01*
X34563898Y-26617636D01*
X34625600Y-26307438D01*
X34625600Y-25991162D01*
X38915020Y-25991162D01*
X38915020Y-26307438D01*
X38976722Y-26617636D01*
X39097756Y-26909837D01*
X39273469Y-27172810D01*
X39497110Y-27396451D01*
X39760083Y-27572164D01*
X40052284Y-27693198D01*
X40362482Y-27754900D01*
X40678758Y-27754900D01*
X40988956Y-27693198D01*
X41281157Y-27572164D01*
X41544130Y-27396451D01*
X41767771Y-27172810D01*
X41943484Y-26909837D01*
X42064518Y-26617636D01*
X42126220Y-26307438D01*
X42126220Y-25991162D01*
X46415640Y-25991162D01*
X46415640Y-26307438D01*
X46477342Y-26617636D01*
X46598376Y-26909837D01*
X46774089Y-27172810D01*
X46997730Y-27396451D01*
X47260703Y-27572164D01*
X47552904Y-27693198D01*
X47863102Y-27754900D01*
X48179378Y-27754900D01*
X48489576Y-27693198D01*
X48781777Y-27572164D01*
X49044750Y-27396451D01*
X49268391Y-27172810D01*
X49444104Y-26909837D01*
X49565138Y-26617636D01*
X49626840Y-26307438D01*
X49626840Y-25991162D01*
X49565138Y-25680964D01*
X49444104Y-25388763D01*
X49268391Y-25125790D01*
X49044750Y-24902149D01*
X48781777Y-24726436D01*
X48489576Y-24605402D01*
X48179378Y-24543700D01*
X47863102Y-24543700D01*
X47552904Y-24605402D01*
X47260703Y-24726436D01*
X46997730Y-24902149D01*
X46774089Y-25125790D01*
X46598376Y-25388763D01*
X46477342Y-25680964D01*
X46415640Y-25991162D01*
X42126220Y-25991162D01*
X42064518Y-25680964D01*
X41943484Y-25388763D01*
X41767771Y-25125790D01*
X41544130Y-24902149D01*
X41281157Y-24726436D01*
X40988956Y-24605402D01*
X40678758Y-24543700D01*
X40362482Y-24543700D01*
X40052284Y-24605402D01*
X39760083Y-24726436D01*
X39497110Y-24902149D01*
X39273469Y-25125790D01*
X39097756Y-25388763D01*
X38976722Y-25680964D01*
X38915020Y-25991162D01*
X34625600Y-25991162D01*
X34563898Y-25680964D01*
X34442864Y-25388763D01*
X34267151Y-25125790D01*
X34043510Y-24902149D01*
X33780537Y-24726436D01*
X33488336Y-24605402D01*
X33178138Y-24543700D01*
X32861862Y-24543700D01*
X32551664Y-24605402D01*
X32259463Y-24726436D01*
X31996490Y-24902149D01*
X31772849Y-25125790D01*
X31597136Y-25388763D01*
X31476102Y-25680964D01*
X31414400Y-25991162D01*
X27124980Y-25991162D01*
X27063278Y-25680964D01*
X26942244Y-25388763D01*
X26766531Y-25125790D01*
X26542890Y-24902149D01*
X26279917Y-24726436D01*
X25987716Y-24605402D01*
X25677518Y-24543700D01*
X25361242Y-24543700D01*
X25051044Y-24605402D01*
X24758843Y-24726436D01*
X24495870Y-24902149D01*
X24272229Y-25125790D01*
X24096516Y-25388763D01*
X23975482Y-25680964D01*
X23913780Y-25991162D01*
X22098000Y-25991162D01*
X22098000Y-24700377D01*
X22338178Y-24460200D01*
X30838550Y-24460200D01*
X30861000Y-24462411D01*
X30883450Y-24460200D01*
X30883460Y-24460200D01*
X30950627Y-24453585D01*
X31036809Y-24427441D01*
X31116236Y-24384987D01*
X31185853Y-24327853D01*
X31200174Y-24310403D01*
X31676408Y-23834170D01*
X31693853Y-23819853D01*
X31708812Y-23801626D01*
X31750987Y-23750237D01*
X31789518Y-23678148D01*
X31793441Y-23670809D01*
X31819585Y-23584627D01*
X31826200Y-23517460D01*
X31826200Y-23517451D01*
X31828411Y-23495001D01*
X31826200Y-23472551D01*
X31826200Y-22320746D01*
X31881966Y-22264980D01*
X31954239Y-22156817D01*
X32004021Y-22036631D01*
X32029400Y-21909044D01*
X32029400Y-21778956D01*
X32004021Y-21651369D01*
X31954239Y-21531183D01*
X31881966Y-21423020D01*
X31789980Y-21331034D01*
X31681817Y-21258761D01*
X31561631Y-21208979D01*
X31434044Y-21183600D01*
X31303956Y-21183600D01*
X31176369Y-21208979D01*
X31056183Y-21258761D01*
X30948020Y-21331034D01*
X30856034Y-21423020D01*
X30783761Y-21531183D01*
X30733979Y-21651369D01*
X30708600Y-21778956D01*
X30708600Y-21909044D01*
X30733979Y-22036631D01*
X30783761Y-22156817D01*
X30856034Y-22264980D01*
X30911800Y-22320746D01*
X30911801Y-23305621D01*
X30671623Y-23545800D01*
X22171249Y-23545800D01*
X22148799Y-23543589D01*
X22126349Y-23545800D01*
X22126340Y-23545800D01*
X22059173Y-23552415D01*
X21972991Y-23578559D01*
X21936017Y-23598322D01*
X21893563Y-23621013D01*
X21861398Y-23647411D01*
X21823947Y-23678147D01*
X21809630Y-23695592D01*
X21333397Y-24171826D01*
X21315947Y-24186147D01*
X21258813Y-24255765D01*
X21216359Y-24335192D01*
X21190215Y-24421374D01*
X21183600Y-24488541D01*
X21183600Y-24488550D01*
X21181389Y-24511000D01*
X8259116Y-24511000D01*
X8271269Y-24481660D01*
X8317600Y-24248741D01*
X8317600Y-24011259D01*
X8271269Y-23778340D01*
X8180389Y-23558934D01*
X8048450Y-23361475D01*
X7880525Y-23193550D01*
X7683066Y-23061611D01*
X7463660Y-22970731D01*
X7230741Y-22924400D01*
X6993259Y-22924400D01*
X6760340Y-22970731D01*
X6540934Y-23061611D01*
X6343475Y-23193550D01*
X6175550Y-23361475D01*
X6043611Y-23558934D01*
X5952731Y-23778340D01*
X5906400Y-24011259D01*
X5777600Y-24011259D01*
X5731269Y-23778340D01*
X5640389Y-23558934D01*
X5508450Y-23361475D01*
X5340525Y-23193550D01*
X5143066Y-23061611D01*
X4923660Y-22970731D01*
X4690741Y-22924400D01*
X4453259Y-22924400D01*
X4220340Y-22970731D01*
X4000934Y-23061611D01*
X3803475Y-23193550D01*
X3635550Y-23361475D01*
X3503611Y-23558934D01*
X3412731Y-23778340D01*
X3366400Y-24011259D01*
X419100Y-24011259D01*
X419101Y-20990000D01*
X3364680Y-20990000D01*
X3364680Y-22190000D01*
X3376349Y-22308482D01*
X3410909Y-22422411D01*
X3467032Y-22527409D01*
X3542560Y-22619440D01*
X3634591Y-22694968D01*
X3739589Y-22751091D01*
X3853518Y-22785651D01*
X3972000Y-22797320D01*
X5172000Y-22797320D01*
X5290482Y-22785651D01*
X5404411Y-22751091D01*
X5509409Y-22694968D01*
X5601440Y-22619440D01*
X5676968Y-22527409D01*
X5733091Y-22422411D01*
X5767651Y-22308482D01*
X5779320Y-22190000D01*
X5779320Y-21471259D01*
X5906400Y-21471259D01*
X5906400Y-21708741D01*
X5952731Y-21941660D01*
X6043611Y-22161066D01*
X6175550Y-22358525D01*
X6343475Y-22526450D01*
X6540934Y-22658389D01*
X6760340Y-22749269D01*
X6993259Y-22795600D01*
X7230741Y-22795600D01*
X7463660Y-22749269D01*
X7683066Y-22658389D01*
X7880525Y-22526450D01*
X8048450Y-22358525D01*
X8180389Y-22161066D01*
X8271269Y-21941660D01*
X8317600Y-21708741D01*
X8317600Y-21471259D01*
X8271269Y-21238340D01*
X8180389Y-21018934D01*
X8048450Y-20821475D01*
X7880525Y-20653550D01*
X7683066Y-20521611D01*
X7670800Y-20516530D01*
X7670800Y-15166662D01*
X8181663Y-14655800D01*
X21285201Y-14655800D01*
X21285200Y-21706169D01*
X21252116Y-21739253D01*
X21168724Y-21864058D01*
X21111283Y-22002733D01*
X21082000Y-22149950D01*
X21082000Y-22300050D01*
X21111283Y-22447267D01*
X21168724Y-22585942D01*
X21252116Y-22710747D01*
X21358253Y-22816884D01*
X21483058Y-22900276D01*
X21621733Y-22957717D01*
X21768950Y-22987000D01*
X21919050Y-22987000D01*
X22066267Y-22957717D01*
X22204942Y-22900276D01*
X22329747Y-22816884D01*
X22435884Y-22710747D01*
X22519276Y-22585942D01*
X22576717Y-22447267D01*
X22606000Y-22300050D01*
X22606000Y-22149950D01*
X22576717Y-22002733D01*
X22519276Y-21864058D01*
X22435884Y-21739253D01*
X22402800Y-21706169D01*
X22402800Y-18857956D01*
X53695600Y-18857956D01*
X53695600Y-18988044D01*
X53720979Y-19115631D01*
X53770761Y-19235817D01*
X53843034Y-19343980D01*
X53898801Y-19399747D01*
X53898800Y-23091550D01*
X53896589Y-23114000D01*
X53898800Y-23136450D01*
X53898800Y-23136459D01*
X53905415Y-23203626D01*
X53931559Y-23289808D01*
X53974013Y-23369235D01*
X54031147Y-23438853D01*
X54048597Y-23453174D01*
X54614834Y-24019413D01*
X54629147Y-24036853D01*
X54646586Y-24051165D01*
X54646592Y-24051171D01*
X54698764Y-24093987D01*
X54778190Y-24136441D01*
X54798249Y-24142526D01*
X54864373Y-24162585D01*
X54931540Y-24169200D01*
X54931550Y-24169200D01*
X54946680Y-24170690D01*
X54946680Y-24462000D01*
X54953546Y-24531710D01*
X54973879Y-24598740D01*
X55006899Y-24660516D01*
X55051337Y-24714663D01*
X55105484Y-24759101D01*
X55167260Y-24792121D01*
X55234290Y-24812454D01*
X55304000Y-24819320D01*
X56210200Y-24819320D01*
X56210200Y-25549537D01*
X55428276Y-26331462D01*
X55406958Y-26348957D01*
X55389463Y-26370275D01*
X55337128Y-26434046D01*
X55285239Y-26531123D01*
X55253287Y-26636456D01*
X55242497Y-26746000D01*
X55245201Y-26773452D01*
X55245201Y-27510471D01*
X55234290Y-27511546D01*
X55167260Y-27531879D01*
X55105484Y-27564899D01*
X55051337Y-27609337D01*
X55006899Y-27663484D01*
X54973879Y-27725260D01*
X54953546Y-27792290D01*
X54946680Y-27862000D01*
X54946680Y-29362000D01*
X54953546Y-29431710D01*
X54973879Y-29498740D01*
X55006899Y-29560516D01*
X55047692Y-29610222D01*
X55053026Y-29664377D01*
X55096598Y-29808014D01*
X55096599Y-29808015D01*
X55167355Y-29940392D01*
X55180624Y-29956560D01*
X55262578Y-30056422D01*
X55291653Y-30080283D01*
X55310370Y-30099000D01*
X54915950Y-30099000D01*
X54879050Y-30106340D01*
X54841622Y-30110026D01*
X54805633Y-30120943D01*
X54768733Y-30128283D01*
X54733972Y-30142681D01*
X54697985Y-30153598D01*
X54664820Y-30171325D01*
X54630058Y-30185724D01*
X54598773Y-30206628D01*
X54565608Y-30224355D01*
X54536538Y-30248212D01*
X54505253Y-30269116D01*
X54478648Y-30295721D01*
X54449578Y-30319578D01*
X54425721Y-30348648D01*
X54399116Y-30375253D01*
X54378212Y-30406538D01*
X54354355Y-30435608D01*
X54336628Y-30468773D01*
X54315724Y-30500058D01*
X54301325Y-30534820D01*
X54283598Y-30567985D01*
X54272681Y-30603972D01*
X54258283Y-30638733D01*
X54250943Y-30675633D01*
X54240026Y-30711622D01*
X54236340Y-30749050D01*
X54229000Y-30785950D01*
X54229000Y-30823574D01*
X54225314Y-30861000D01*
X54229000Y-30898425D01*
X54229000Y-30936050D01*
X54236340Y-30972950D01*
X54240026Y-31010378D01*
X54250943Y-31046367D01*
X54258283Y-31083267D01*
X54272681Y-31118028D01*
X54283598Y-31154015D01*
X54301325Y-31187180D01*
X54315724Y-31221942D01*
X54336628Y-31253227D01*
X54354355Y-31286392D01*
X54378212Y-31315462D01*
X54399116Y-31346747D01*
X54425721Y-31373352D01*
X54449578Y-31402422D01*
X54478648Y-31426279D01*
X54505253Y-31452884D01*
X54536538Y-31473788D01*
X54565608Y-31497645D01*
X54598773Y-31515372D01*
X54630058Y-31536276D01*
X54664820Y-31550675D01*
X54697985Y-31568402D01*
X54733972Y-31579319D01*
X54768733Y-31593717D01*
X54805633Y-31601057D01*
X54841622Y-31611974D01*
X54879050Y-31615660D01*
X54915950Y-31623000D01*
X55672088Y-31623000D01*
X55699032Y-31673409D01*
X55774560Y-31765440D01*
X55866591Y-31840968D01*
X55971589Y-31897091D01*
X56085518Y-31931651D01*
X56204000Y-31943320D01*
X56704000Y-31943320D01*
X56822482Y-31931651D01*
X56936411Y-31897091D01*
X57041409Y-31840968D01*
X57133440Y-31765440D01*
X57208968Y-31673409D01*
X57243666Y-31608495D01*
X57253220Y-31705503D01*
X57288078Y-31820413D01*
X57344683Y-31926315D01*
X57420862Y-32019138D01*
X57513685Y-32095317D01*
X57619587Y-32151922D01*
X57734497Y-32186780D01*
X57854000Y-32198550D01*
X58049200Y-32195600D01*
X58201600Y-32043200D01*
X58201600Y-31013400D01*
X58506400Y-31013400D01*
X58506400Y-32043200D01*
X58658800Y-32195600D01*
X58854000Y-32198550D01*
X58973503Y-32186780D01*
X59088413Y-32151922D01*
X59194315Y-32095317D01*
X59287138Y-32019138D01*
X59363317Y-31926315D01*
X59419922Y-31820413D01*
X59454780Y-31705503D01*
X59466550Y-31586000D01*
X59463600Y-31165800D01*
X59311200Y-31013400D01*
X58506400Y-31013400D01*
X58201600Y-31013400D01*
X58181600Y-31013400D01*
X58181600Y-30708600D01*
X58201600Y-30708600D01*
X58201600Y-30688600D01*
X58506400Y-30688600D01*
X58506400Y-30708600D01*
X59311200Y-30708600D01*
X59463600Y-30556200D01*
X59466550Y-30136000D01*
X59454780Y-30016497D01*
X59419922Y-29901587D01*
X59363317Y-29795685D01*
X59319868Y-29742742D01*
X61414340Y-29742742D01*
X61414340Y-30059018D01*
X61476042Y-30369216D01*
X61597076Y-30661417D01*
X61772789Y-30924390D01*
X61996430Y-31148031D01*
X62259403Y-31323744D01*
X62551604Y-31444778D01*
X62861802Y-31506480D01*
X63178078Y-31506480D01*
X63488276Y-31444778D01*
X63780477Y-31323744D01*
X64043450Y-31148031D01*
X64267091Y-30924390D01*
X64442804Y-30661417D01*
X64563838Y-30369216D01*
X64625540Y-30059018D01*
X64625540Y-29742742D01*
X64563838Y-29432544D01*
X64442804Y-29140343D01*
X64267091Y-28877370D01*
X64043450Y-28653729D01*
X63780477Y-28478016D01*
X63488276Y-28356982D01*
X63178078Y-28295280D01*
X62861802Y-28295280D01*
X62551604Y-28356982D01*
X62259403Y-28478016D01*
X61996430Y-28653729D01*
X61772789Y-28877370D01*
X61597076Y-29140343D01*
X61476042Y-29432544D01*
X61414340Y-29742742D01*
X59319868Y-29742742D01*
X59300645Y-29719320D01*
X59504000Y-29719320D01*
X59573710Y-29712454D01*
X59640740Y-29692121D01*
X59702516Y-29659101D01*
X59756663Y-29614663D01*
X59801101Y-29560516D01*
X59834121Y-29498740D01*
X59854454Y-29431710D01*
X59861320Y-29362000D01*
X59861320Y-27862000D01*
X59854454Y-27792290D01*
X59834121Y-27725260D01*
X59801101Y-27663484D01*
X59756663Y-27609337D01*
X59702516Y-27564899D01*
X59640740Y-27531879D01*
X59573710Y-27511546D01*
X59504000Y-27504680D01*
X58504000Y-27504680D01*
X58434290Y-27511546D01*
X58367260Y-27531879D01*
X58305484Y-27564899D01*
X58251337Y-27609337D01*
X58206899Y-27663484D01*
X58173879Y-27725260D01*
X58153546Y-27792290D01*
X58146680Y-27862000D01*
X58146680Y-29362000D01*
X58153546Y-29431710D01*
X58173879Y-29498740D01*
X58201598Y-29550599D01*
X58201598Y-29678798D01*
X58049200Y-29526400D01*
X57854000Y-29523450D01*
X57734497Y-29535220D01*
X57619587Y-29570078D01*
X57513685Y-29626683D01*
X57420862Y-29702862D01*
X57344683Y-29795685D01*
X57288078Y-29901587D01*
X57253220Y-30016497D01*
X57243666Y-30113505D01*
X57208968Y-30048591D01*
X57208119Y-30047557D01*
X57204974Y-30015622D01*
X57161402Y-29871985D01*
X57117767Y-29790349D01*
X57090645Y-29739607D01*
X57019279Y-29652648D01*
X56995422Y-29623578D01*
X56966351Y-29599720D01*
X56661320Y-29294690D01*
X56661320Y-27862000D01*
X56654454Y-27792290D01*
X56634121Y-27725260D01*
X56601101Y-27663484D01*
X56556663Y-27609337D01*
X56502516Y-27564899D01*
X56440740Y-27531879D01*
X56373710Y-27511546D01*
X56362800Y-27510471D01*
X56362800Y-26977462D01*
X57144725Y-26195538D01*
X57166043Y-26178043D01*
X57235873Y-26092954D01*
X57287761Y-25995878D01*
X57319714Y-25890544D01*
X57327800Y-25808444D01*
X57327800Y-25808443D01*
X57330503Y-25781001D01*
X57327800Y-25753559D01*
X57327800Y-24462000D01*
X57891450Y-24462000D01*
X57903220Y-24581503D01*
X57938078Y-24696413D01*
X57994683Y-24802315D01*
X58070862Y-24895138D01*
X58163685Y-24971317D01*
X58269587Y-25027922D01*
X58384497Y-25062780D01*
X58504000Y-25074550D01*
X58699200Y-25071600D01*
X58851600Y-24919200D01*
X58851600Y-23864400D01*
X59156400Y-23864400D01*
X59156400Y-24919200D01*
X59308800Y-25071600D01*
X59504000Y-25074550D01*
X59623503Y-25062780D01*
X59738413Y-25027922D01*
X59844315Y-24971317D01*
X59937138Y-24895138D01*
X60013317Y-24802315D01*
X60069922Y-24696413D01*
X60104780Y-24581503D01*
X60116550Y-24462000D01*
X60113600Y-24016800D01*
X59961200Y-23864400D01*
X59156400Y-23864400D01*
X58851600Y-23864400D01*
X58046800Y-23864400D01*
X57894400Y-24016800D01*
X57891450Y-24462000D01*
X57327800Y-24462000D01*
X57327800Y-22962000D01*
X57891450Y-22962000D01*
X57894400Y-23407200D01*
X58046800Y-23559600D01*
X58851600Y-23559600D01*
X58851600Y-22504800D01*
X59156400Y-22504800D01*
X59156400Y-23559600D01*
X59961200Y-23559600D01*
X60113600Y-23407200D01*
X60116550Y-22962000D01*
X60104780Y-22842497D01*
X60069922Y-22727587D01*
X60013317Y-22621685D01*
X59937138Y-22528862D01*
X59844315Y-22452683D01*
X59738413Y-22396078D01*
X59623503Y-22361220D01*
X59504000Y-22349450D01*
X59308800Y-22352400D01*
X59156400Y-22504800D01*
X58851600Y-22504800D01*
X58699200Y-22352400D01*
X58504000Y-22349450D01*
X58384497Y-22361220D01*
X58269587Y-22396078D01*
X58163685Y-22452683D01*
X58070862Y-22528862D01*
X57994683Y-22621685D01*
X57938078Y-22727587D01*
X57903220Y-22842497D01*
X57891450Y-22962000D01*
X57327800Y-22962000D01*
X57327800Y-22242122D01*
X61414340Y-22242122D01*
X61414340Y-22558398D01*
X61476042Y-22868596D01*
X61597076Y-23160797D01*
X61772789Y-23423770D01*
X61996430Y-23647411D01*
X62259403Y-23823124D01*
X62551604Y-23944158D01*
X62861802Y-24005860D01*
X63178078Y-24005860D01*
X63488276Y-23944158D01*
X63780477Y-23823124D01*
X64043450Y-23647411D01*
X64267091Y-23423770D01*
X64442804Y-23160797D01*
X64563838Y-22868596D01*
X64625540Y-22558398D01*
X64625540Y-22242122D01*
X64563838Y-21931924D01*
X64442804Y-21639723D01*
X64267091Y-21376750D01*
X64043450Y-21153109D01*
X63780477Y-20977396D01*
X63488276Y-20856362D01*
X63178078Y-20794660D01*
X62861802Y-20794660D01*
X62551604Y-20856362D01*
X62259403Y-20977396D01*
X61996430Y-21153109D01*
X61772789Y-21376750D01*
X61597076Y-21639723D01*
X61476042Y-21931924D01*
X61414340Y-22242122D01*
X57327800Y-22242122D01*
X57327800Y-20858429D01*
X57372484Y-20895101D01*
X57434260Y-20928121D01*
X57501290Y-20948454D01*
X57556844Y-20953926D01*
X57530979Y-21016369D01*
X57505600Y-21143956D01*
X57505600Y-21274044D01*
X57530979Y-21401631D01*
X57580761Y-21521817D01*
X57653034Y-21629980D01*
X57745020Y-21721966D01*
X57853183Y-21794239D01*
X57973369Y-21844021D01*
X58100956Y-21869400D01*
X58231044Y-21869400D01*
X58358631Y-21844021D01*
X58478817Y-21794239D01*
X58586980Y-21721966D01*
X58678966Y-21629980D01*
X58751239Y-21521817D01*
X58801021Y-21401631D01*
X58826400Y-21274044D01*
X58826400Y-21143956D01*
X58801021Y-21016369D01*
X58775156Y-20953926D01*
X58830710Y-20948454D01*
X58897740Y-20928121D01*
X58959516Y-20895101D01*
X59013663Y-20850663D01*
X59058101Y-20796516D01*
X59091121Y-20734740D01*
X59111454Y-20667710D01*
X59118320Y-20598000D01*
X59118320Y-17298000D01*
X59111454Y-17228290D01*
X59091121Y-17161260D01*
X59058101Y-17099484D01*
X59013663Y-17045337D01*
X58959516Y-17000899D01*
X58897740Y-16967879D01*
X58830710Y-16947546D01*
X58761000Y-16940680D01*
X57571000Y-16940680D01*
X57501290Y-16947546D01*
X57434260Y-16967879D01*
X57372484Y-17000899D01*
X57318337Y-17045337D01*
X57273899Y-17099484D01*
X57240879Y-17161260D01*
X57220546Y-17228290D01*
X57213680Y-17298000D01*
X57213680Y-17669603D01*
X57183537Y-17632874D01*
X57166043Y-17611557D01*
X57144725Y-17594062D01*
X56319943Y-16769281D01*
X56302443Y-16747957D01*
X56217354Y-16678127D01*
X56120278Y-16626239D01*
X56014944Y-16594286D01*
X55932844Y-16586200D01*
X55932842Y-16586200D01*
X55905400Y-16583497D01*
X55877958Y-16586200D01*
X55509831Y-16586200D01*
X55476747Y-16553116D01*
X55351942Y-16469724D01*
X55213267Y-16412283D01*
X55066050Y-16383000D01*
X54915950Y-16383000D01*
X54768733Y-16412283D01*
X54630058Y-16469724D01*
X54505253Y-16553116D01*
X54399116Y-16659253D01*
X54315724Y-16784058D01*
X54258283Y-16922733D01*
X54229000Y-17069950D01*
X54229000Y-17220050D01*
X54258283Y-17367267D01*
X54315724Y-17505942D01*
X54399116Y-17630747D01*
X54505253Y-17736884D01*
X54630058Y-17820276D01*
X54768733Y-17877717D01*
X54915950Y-17907000D01*
X55066050Y-17907000D01*
X55213267Y-17877717D01*
X55351942Y-17820276D01*
X55476747Y-17736884D01*
X55509831Y-17703800D01*
X55673938Y-17703800D01*
X56210201Y-18240064D01*
X56210200Y-22604680D01*
X55304000Y-22604680D01*
X55234290Y-22611546D01*
X55167260Y-22631879D01*
X55105484Y-22664899D01*
X55051337Y-22709337D01*
X55006899Y-22763484D01*
X54973879Y-22825260D01*
X54953546Y-22892290D01*
X54946680Y-22962000D01*
X54946680Y-23058102D01*
X54813200Y-22924623D01*
X54813200Y-19399746D01*
X54868966Y-19343980D01*
X54941239Y-19235817D01*
X54991021Y-19115631D01*
X55016400Y-18988044D01*
X55016400Y-18857956D01*
X54991021Y-18730369D01*
X54941239Y-18610183D01*
X54868966Y-18502020D01*
X54776980Y-18410034D01*
X54668817Y-18337761D01*
X54548631Y-18287979D01*
X54421044Y-18262600D01*
X54290956Y-18262600D01*
X54163369Y-18287979D01*
X54043183Y-18337761D01*
X53935020Y-18410034D01*
X53843034Y-18502020D01*
X53770761Y-18610183D01*
X53720979Y-18730369D01*
X53695600Y-18857956D01*
X22402800Y-18857956D01*
X22402800Y-14655800D01*
X29199169Y-14655800D01*
X29232253Y-14688884D01*
X29357058Y-14772276D01*
X29495733Y-14829717D01*
X29642950Y-14859000D01*
X29793050Y-14859000D01*
X29940267Y-14829717D01*
X30078942Y-14772276D01*
X30203747Y-14688884D01*
X30309884Y-14582747D01*
X30393276Y-14457942D01*
X30450717Y-14319267D01*
X30480000Y-14172050D01*
X30480000Y-14021950D01*
X30450717Y-13874733D01*
X30393276Y-13736058D01*
X30309884Y-13611253D01*
X30203747Y-13505116D01*
X30078942Y-13421724D01*
X29940267Y-13364283D01*
X29793050Y-13335000D01*
X29642950Y-13335000D01*
X29495733Y-13364283D01*
X29357058Y-13421724D01*
X29232253Y-13505116D01*
X29199169Y-13538200D01*
X21871444Y-13538200D01*
X21844000Y-13535497D01*
X21816556Y-13538200D01*
X7977642Y-13538200D01*
X7950200Y-13535497D01*
X7922758Y-13538200D01*
X7922756Y-13538200D01*
X7840656Y-13546286D01*
X7735322Y-13578239D01*
X7638245Y-13630127D01*
X7607026Y-13655748D01*
X7553157Y-13699957D01*
X7535662Y-13721276D01*
X6736281Y-14520657D01*
X6714957Y-14538157D01*
X6645127Y-14623246D01*
X6593239Y-14720323D01*
X6561286Y-14825657D01*
X6557154Y-14867612D01*
X6550497Y-14935200D01*
X6553200Y-14962642D01*
X6553201Y-20516530D01*
X6540934Y-20521611D01*
X6343475Y-20653550D01*
X6175550Y-20821475D01*
X6043611Y-21018934D01*
X5952731Y-21238340D01*
X5906400Y-21471259D01*
X5779320Y-21471259D01*
X5779320Y-20990000D01*
X5767651Y-20871518D01*
X5733091Y-20757589D01*
X5676968Y-20652591D01*
X5601440Y-20560560D01*
X5509409Y-20485032D01*
X5404411Y-20428909D01*
X5290482Y-20394349D01*
X5172000Y-20382680D01*
X3972000Y-20382680D01*
X3853518Y-20394349D01*
X3739589Y-20428909D01*
X3634591Y-20485032D01*
X3542560Y-20560560D01*
X3467032Y-20652591D01*
X3410909Y-20757589D01*
X3376349Y-20871518D01*
X3364680Y-20990000D01*
X419101Y-20990000D01*
X419103Y-15703725D01*
X462216Y-15271307D01*
X582620Y-14874855D01*
X779381Y-14506257D01*
X996789Y-14231401D01*
X2467449Y-12761956D01*
X23342600Y-12761956D01*
X23342600Y-12892044D01*
X23367979Y-13019631D01*
X23417761Y-13139817D01*
X23490034Y-13247980D01*
X23582020Y-13339966D01*
X23690183Y-13412239D01*
X23810369Y-13462021D01*
X23937956Y-13487400D01*
X24068044Y-13487400D01*
X24195631Y-13462021D01*
X24315817Y-13412239D01*
X24423980Y-13339966D01*
X24479746Y-13284200D01*
X39180623Y-13284200D01*
X39979600Y-14083178D01*
X39979600Y-14162044D01*
X40004979Y-14289631D01*
X40054761Y-14409817D01*
X40127034Y-14517980D01*
X40219020Y-14609966D01*
X40327183Y-14682239D01*
X40447369Y-14732021D01*
X40574956Y-14757400D01*
X40705044Y-14757400D01*
X40832631Y-14732021D01*
X40952817Y-14682239D01*
X41060980Y-14609966D01*
X41152966Y-14517980D01*
X41225239Y-14409817D01*
X41275021Y-14289631D01*
X41293247Y-14198000D01*
X54418450Y-14198000D01*
X54430220Y-14317503D01*
X54465078Y-14432413D01*
X54521683Y-14538315D01*
X54597862Y-14631138D01*
X54690685Y-14707317D01*
X54796587Y-14763922D01*
X54911497Y-14798780D01*
X55031000Y-14810550D01*
X55321200Y-14807600D01*
X55473600Y-14655200D01*
X55473600Y-12700400D01*
X55778400Y-12700400D01*
X55778400Y-14655200D01*
X55930800Y-14807600D01*
X56221000Y-14810550D01*
X56340503Y-14798780D01*
X56455413Y-14763922D01*
X56561315Y-14707317D01*
X56654138Y-14631138D01*
X56730317Y-14538315D01*
X56786922Y-14432413D01*
X56821780Y-14317503D01*
X56833550Y-14198000D01*
X56830600Y-12852800D01*
X56678200Y-12700400D01*
X55778400Y-12700400D01*
X55473600Y-12700400D01*
X54573800Y-12700400D01*
X54421400Y-12852800D01*
X54418450Y-14198000D01*
X41293247Y-14198000D01*
X41300400Y-14162044D01*
X41300400Y-14031956D01*
X41275021Y-13904369D01*
X41225239Y-13784183D01*
X41152966Y-13676020D01*
X41060980Y-13584034D01*
X40952817Y-13511761D01*
X40832631Y-13461979D01*
X40705044Y-13436600D01*
X40626178Y-13436600D01*
X39709174Y-12519597D01*
X39694853Y-12502147D01*
X39625236Y-12445013D01*
X39545809Y-12402559D01*
X39459627Y-12376415D01*
X39392460Y-12369800D01*
X39392450Y-12369800D01*
X39370000Y-12367589D01*
X39347550Y-12369800D01*
X24479746Y-12369800D01*
X24423980Y-12314034D01*
X24315817Y-12241761D01*
X24195631Y-12191979D01*
X24068044Y-12166600D01*
X23937956Y-12166600D01*
X23810369Y-12191979D01*
X23690183Y-12241761D01*
X23582020Y-12314034D01*
X23490034Y-12406020D01*
X23417761Y-12514183D01*
X23367979Y-12634369D01*
X23342600Y-12761956D01*
X2467449Y-12761956D01*
X2836323Y-12393387D01*
X4790608Y-10659733D01*
X5739984Y-9913281D01*
X19972181Y-9913281D01*
X20069054Y-10169023D01*
X20289058Y-10488715D01*
X20567204Y-10759344D01*
X20892802Y-10970509D01*
X21253340Y-11114095D01*
X21634963Y-11184585D01*
X21945600Y-11034030D01*
X21945600Y-9618400D01*
X22758400Y-9618400D01*
X22758400Y-11034030D01*
X23069037Y-11184585D01*
X23450660Y-11114095D01*
X23811198Y-10970509D01*
X24136796Y-10759344D01*
X24414942Y-10488715D01*
X24634946Y-10169023D01*
X24731819Y-9913281D01*
X41308181Y-9913281D01*
X41405054Y-10169023D01*
X41625058Y-10488715D01*
X41903204Y-10759344D01*
X42228802Y-10970509D01*
X42589340Y-11114095D01*
X42970963Y-11184585D01*
X43281600Y-11034030D01*
X43281600Y-9618400D01*
X44094400Y-9618400D01*
X44094400Y-11034030D01*
X44405037Y-11184585D01*
X44786660Y-11114095D01*
X45147198Y-10970509D01*
X45259000Y-10898000D01*
X54418450Y-10898000D01*
X54421400Y-12243200D01*
X54573800Y-12395600D01*
X55473600Y-12395600D01*
X55473600Y-10440800D01*
X55778400Y-10440800D01*
X55778400Y-12395600D01*
X56678200Y-12395600D01*
X56830600Y-12243200D01*
X56833550Y-10898000D01*
X56821780Y-10778497D01*
X56786922Y-10663587D01*
X56730317Y-10557685D01*
X56654138Y-10464862D01*
X56561315Y-10388683D01*
X56455413Y-10332078D01*
X56340503Y-10297220D01*
X56221000Y-10285450D01*
X55930800Y-10288400D01*
X55778400Y-10440800D01*
X55473600Y-10440800D01*
X55321200Y-10288400D01*
X55031000Y-10285450D01*
X54911497Y-10297220D01*
X54796587Y-10332078D01*
X54690685Y-10388683D01*
X54597862Y-10464862D01*
X54521683Y-10557685D01*
X54465078Y-10663587D01*
X54430220Y-10778497D01*
X54418450Y-10898000D01*
X45259000Y-10898000D01*
X45472796Y-10759344D01*
X45750942Y-10488715D01*
X45970946Y-10169023D01*
X46067819Y-9913281D01*
X45998912Y-9618400D01*
X44094400Y-9618400D01*
X43281600Y-9618400D01*
X41377088Y-9618400D01*
X41308181Y-9913281D01*
X24731819Y-9913281D01*
X24662912Y-9618400D01*
X22758400Y-9618400D01*
X21945600Y-9618400D01*
X20041088Y-9618400D01*
X19972181Y-9913281D01*
X5739984Y-9913281D01*
X6844280Y-9045024D01*
X7613722Y-8510719D01*
X19972181Y-8510719D01*
X20041088Y-8805600D01*
X21945600Y-8805600D01*
X21945600Y-7389970D01*
X22758400Y-7389970D01*
X22758400Y-8805600D01*
X24662912Y-8805600D01*
X24731819Y-8510719D01*
X41308181Y-8510719D01*
X41377088Y-8805600D01*
X43281600Y-8805600D01*
X43281600Y-7389970D01*
X44094400Y-7389970D01*
X44094400Y-8805600D01*
X45998912Y-8805600D01*
X46067819Y-8510719D01*
X45970946Y-8254977D01*
X45750942Y-7935285D01*
X45472796Y-7664656D01*
X45147198Y-7453491D01*
X44786660Y-7309905D01*
X44405037Y-7239415D01*
X44094400Y-7389970D01*
X43281600Y-7389970D01*
X42970963Y-7239415D01*
X42589340Y-7309905D01*
X42228802Y-7453491D01*
X41903204Y-7664656D01*
X41625058Y-7935285D01*
X41405054Y-8254977D01*
X41308181Y-8510719D01*
X24731819Y-8510719D01*
X24634946Y-8254977D01*
X24414942Y-7935285D01*
X24136796Y-7664656D01*
X23811198Y-7453491D01*
X23450660Y-7309905D01*
X23069037Y-7239415D01*
X22758400Y-7389970D01*
X21945600Y-7389970D01*
X21634963Y-7239415D01*
X21253340Y-7309905D01*
X20892802Y-7453491D01*
X20567204Y-7664656D01*
X20289058Y-7935285D01*
X20069054Y-8254977D01*
X19972181Y-8510719D01*
X7613722Y-8510719D01*
X8990114Y-7554946D01*
X11220509Y-6194772D01*
X13527669Y-4969255D01*
X15903441Y-3882728D01*
X18339465Y-2939014D01*
X20827172Y-2141433D01*
X22668377Y-1669502D01*
X31918400Y-1669502D01*
X31918400Y-1886498D01*
X31960734Y-2099325D01*
X32043775Y-2299803D01*
X32164332Y-2480229D01*
X32317771Y-2633668D01*
X32498197Y-2754225D01*
X32698675Y-2837266D01*
X32911502Y-2879600D01*
X33128498Y-2879600D01*
X33341325Y-2837266D01*
X33541803Y-2754225D01*
X33722229Y-2633668D01*
X33875668Y-2480229D01*
X33996225Y-2299803D01*
X34079266Y-2099325D01*
X34121600Y-1886498D01*
X34121600Y-1669502D01*
X34079266Y-1456675D01*
X33996225Y-1256197D01*
X33875668Y-1075771D01*
X33722229Y-922332D01*
X33541803Y-801775D01*
X33341325Y-718734D01*
X33128498Y-676400D01*
X32911502Y-676400D01*
X32698675Y-718734D01*
X32498197Y-801775D01*
X32317771Y-922332D01*
X32164332Y-1075771D01*
X32043775Y-1256197D01*
X31960734Y-1456675D01*
X31918400Y-1669502D01*
X22668377Y-1669502D01*
X23357803Y-1492791D01*
X25922457Y-995372D01*
X28512082Y-650930D01*
X31117573Y-460677D01*
X33729785Y-425280D01*
X36339487Y-544866D01*
G37*
G04 #@! TD.AperFunction*
M02*
