G04 #@! TF.GenerationSoftware,KiCad,Pcbnew,5.1.12-84ad8e8a86~92~ubuntu18.04.1*
G04 #@! TF.CreationDate,2022-01-20T14:35:06+01:00*
G04 #@! TF.ProjectId,pololu-3pi+-audio-expansion,706f6c6f-6c75-42d3-9370-692b2d617564,rev?*
G04 #@! TF.SameCoordinates,Original*
G04 #@! TF.FileFunction,Profile,NP*
%FSLAX46Y46*%
G04 Gerber Fmt 4.6, Leading zero omitted, Abs format (unit mm)*
G04 Created by KiCad (PCBNEW 5.1.12-84ad8e8a86~92~ubuntu18.04.1) date 2022-01-20 14:35:06*
%MOMM*%
%LPD*%
G01*
G04 APERTURE LIST*
G04 #@! TA.AperFunction,Profile*
%ADD10C,0.127000*%
G04 #@! TD*
G04 APERTURE END LIST*
D10*
X6604001Y-53975001D02*
X6604000Y-34925000D01*
X59436000Y-53975000D02*
X59435999Y-34924999D01*
X0Y-74132440D02*
X1Y-56514999D01*
X0Y-32385000D02*
X3Y-15682898D01*
X1270000Y-55245000D02*
X5334000Y-55245000D01*
X1269999Y-33655001D02*
X5334001Y-33655001D01*
X66039999Y-32385001D02*
X66040000Y-15684500D01*
X66040000Y-74133572D02*
X66040000Y-56515000D01*
X60705999Y-55244999D02*
X64770001Y-55244999D01*
X60706000Y-33655000D02*
X64770000Y-33655000D01*
X14384246Y-85090004D02*
X51653440Y-85090000D01*
X6604001Y-53975001D02*
G75*
G02*
X5334000Y-55245000I-1270000J1D01*
G01*
X5334001Y-33655001D02*
G75*
G02*
X6604000Y-34925000I0J-1269999D01*
G01*
X1Y-15682898D02*
G75*
G02*
X683260Y-13952219I2544056J-4161D01*
G01*
X713740Y-75897740D02*
G75*
G02*
X0Y-74132440I1826134J1765275D01*
G01*
X53383180Y-84675980D02*
G75*
G02*
X51653440Y-85090000I-1732168J3416485D01*
G01*
X60705999Y-55244999D02*
G75*
G02*
X59436000Y-53975000I0J1269999D01*
G01*
X59435999Y-34924999D02*
G75*
G02*
X60706000Y-33655000I1270000J-1D01*
G01*
X1Y-56514999D02*
G75*
G02*
X1270000Y-55245000I1269999J0D01*
G01*
X1269999Y-33655001D02*
G75*
G02*
X0Y-32385000I1J1270000D01*
G01*
X64770001Y-55244999D02*
G75*
G02*
X66040000Y-56515000I-1J-1270000D01*
G01*
X66039999Y-32385001D02*
G75*
G02*
X64770000Y-33655000I-1269999J0D01*
G01*
X65356486Y-13951948D02*
G75*
G02*
X66040000Y-15684500I-1851798J-1731662D01*
G01*
X66040117Y-74133572D02*
G75*
G02*
X65301707Y-75922958I-2540221J1200D01*
G01*
X14384247Y-85090002D02*
G75*
G02*
X12657342Y-84676244I-4750J3790854D01*
G01*
X65301707Y-75922958D02*
G75*
G02*
X53383180Y-84675980I-32253199J31426551D01*
G01*
X12657342Y-84676244D02*
G75*
G02*
X713740Y-75897740I20398684J40267638D01*
G01*
X683260Y-13952219D02*
G75*
G02*
X65356485Y-13951948I32336740J-30497826D01*
G01*
M02*
