G04 #@! TF.GenerationSoftware,KiCad,Pcbnew,5.1.12-84ad8e8a86~92~ubuntu18.04.1*
G04 #@! TF.CreationDate,2022-01-20T14:35:06+01:00*
G04 #@! TF.ProjectId,pololu-3pi+-audio-expansion,706f6c6f-6c75-42d3-9370-692b2d617564,rev?*
G04 #@! TF.SameCoordinates,Original*
G04 #@! TF.FileFunction,Soldermask,Bot*
G04 #@! TF.FilePolarity,Negative*
%FSLAX46Y46*%
G04 Gerber Fmt 4.6, Leading zero omitted, Abs format (unit mm)*
G04 Created by KiCad (PCBNEW 5.1.12-84ad8e8a86~92~ubuntu18.04.1) date 2022-01-20 14:35:06*
%MOMM*%
%LPD*%
G01*
G04 APERTURE LIST*
%ADD10C,2.000000*%
%ADD11R,1.700000X1.700000*%
%ADD12O,1.700000X1.700000*%
%ADD13C,0.900000*%
%ADD14C,2.500000*%
%ADD15O,3.800000X2.700000*%
%ADD16R,3.800000X2.700000*%
%ADD17R,0.700000X0.510000*%
%ADD18R,1.500000X0.800000*%
%ADD19R,2.000000X1.450000*%
%ADD20R,2.000000X2.500000*%
%ADD21R,0.500000X2.500000*%
%ADD22R,1.000000X3.149999*%
%ADD23R,1.000000X3.150000*%
%ADD24C,1.700000*%
%ADD25R,0.900000X0.800000*%
%ADD26R,0.250000X1.300000*%
%ADD27R,1.300000X0.250000*%
%ADD28R,1.450000X1.450000*%
%ADD29R,1.060000X0.650000*%
%ADD30R,1.700000X0.650000*%
%ADD31R,1.000000X1.800000*%
G04 APERTURE END LIST*
D10*
X49657000Y-33782000D03*
X27813000Y-57023000D03*
X57912000Y-44450000D03*
X33020000Y-1778000D03*
D11*
X9144000Y-43180000D03*
D12*
X9144000Y-40640000D03*
X9144000Y-38100000D03*
X9144000Y-35560000D03*
G36*
G01*
X15564000Y-83502000D02*
X15564000Y-83952000D01*
G75*
G02*
X15339000Y-84177000I-225000J0D01*
G01*
X14489000Y-84177000D01*
G75*
G02*
X14264000Y-83952000I0J225000D01*
G01*
X14264000Y-83502000D01*
G75*
G02*
X14489000Y-83277000I225000J0D01*
G01*
X15339000Y-83277000D01*
G75*
G02*
X15564000Y-83502000I0J-225000D01*
G01*
G37*
G36*
G01*
X19264000Y-83502000D02*
X19264000Y-83952000D01*
G75*
G02*
X19039000Y-84177000I-225000J0D01*
G01*
X18189000Y-84177000D01*
G75*
G02*
X17964000Y-83952000I0J225000D01*
G01*
X17964000Y-83502000D01*
G75*
G02*
X18189000Y-83277000I225000J0D01*
G01*
X19039000Y-83277000D01*
G75*
G02*
X19264000Y-83502000I0J-225000D01*
G01*
G37*
G36*
G01*
X17064000Y-81027000D02*
X17064000Y-82527000D01*
G75*
G02*
X16914000Y-82677000I-150000J0D01*
G01*
X16614000Y-82677000D01*
G75*
G02*
X16464000Y-82527000I0J150000D01*
G01*
X16464000Y-81027000D01*
G75*
G02*
X16614000Y-80877000I150000J0D01*
G01*
X16914000Y-80877000D01*
G75*
G02*
X17064000Y-81027000I0J-150000D01*
G01*
G37*
G36*
G01*
X15914000Y-81064500D02*
X15914000Y-82489500D01*
G75*
G02*
X15726500Y-82677000I-187500J0D01*
G01*
X15351500Y-82677000D01*
G75*
G02*
X15164000Y-82489500I0J187500D01*
G01*
X15164000Y-81064500D01*
G75*
G02*
X15351500Y-80877000I187500J0D01*
G01*
X15726500Y-80877000D01*
G75*
G02*
X15914000Y-81064500I0J-187500D01*
G01*
G37*
G36*
G01*
X18364000Y-81064500D02*
X18364000Y-82489500D01*
G75*
G02*
X18176500Y-82677000I-187500J0D01*
G01*
X17801500Y-82677000D01*
G75*
G02*
X17614000Y-82489500I0J187500D01*
G01*
X17614000Y-81064500D01*
G75*
G02*
X17801500Y-80877000I187500J0D01*
G01*
X18176500Y-80877000D01*
G75*
G02*
X18364000Y-81064500I0J-187500D01*
G01*
G37*
D13*
X14639000Y-82677000D03*
X18889000Y-82677000D03*
D14*
X18018760Y-26149300D03*
X25519380Y-26149300D03*
X33020000Y-26149300D03*
X40520620Y-26149300D03*
X48021240Y-26149300D03*
X63019940Y-22400260D03*
X63019940Y-29900880D03*
X3020060Y-74449940D03*
X63019940Y-74449940D03*
X48021240Y-67249040D03*
X40520620Y-67249040D03*
X33020000Y-67249040D03*
X25519380Y-67249040D03*
X18018760Y-67249040D03*
D15*
X22352000Y-9212000D03*
D16*
X22352000Y-81212000D03*
X43688000Y-81212000D03*
D15*
X43688000Y-9212000D03*
G36*
G01*
X19525000Y-43614000D02*
X18575000Y-43614000D01*
G75*
G02*
X18325000Y-43364000I0J250000D01*
G01*
X18325000Y-42864000D01*
G75*
G02*
X18575000Y-42614000I250000J0D01*
G01*
X19525000Y-42614000D01*
G75*
G02*
X19775000Y-42864000I0J-250000D01*
G01*
X19775000Y-43364000D01*
G75*
G02*
X19525000Y-43614000I-250000J0D01*
G01*
G37*
G36*
G01*
X19525000Y-41714000D02*
X18575000Y-41714000D01*
G75*
G02*
X18325000Y-41464000I0J250000D01*
G01*
X18325000Y-40964000D01*
G75*
G02*
X18575000Y-40714000I250000J0D01*
G01*
X19525000Y-40714000D01*
G75*
G02*
X19775000Y-40964000I0J-250000D01*
G01*
X19775000Y-41464000D01*
G75*
G02*
X19525000Y-41714000I-250000J0D01*
G01*
G37*
G36*
G01*
X22065000Y-41714000D02*
X21115000Y-41714000D01*
G75*
G02*
X20865000Y-41464000I0J250000D01*
G01*
X20865000Y-40964000D01*
G75*
G02*
X21115000Y-40714000I250000J0D01*
G01*
X22065000Y-40714000D01*
G75*
G02*
X22315000Y-40964000I0J-250000D01*
G01*
X22315000Y-41464000D01*
G75*
G02*
X22065000Y-41714000I-250000J0D01*
G01*
G37*
G36*
G01*
X22065000Y-43614000D02*
X21115000Y-43614000D01*
G75*
G02*
X20865000Y-43364000I0J250000D01*
G01*
X20865000Y-42864000D01*
G75*
G02*
X21115000Y-42614000I250000J0D01*
G01*
X22065000Y-42614000D01*
G75*
G02*
X22315000Y-42864000I0J-250000D01*
G01*
X22315000Y-43364000D01*
G75*
G02*
X22065000Y-43614000I-250000J0D01*
G01*
G37*
G36*
G01*
X13241000Y-50874000D02*
X14191000Y-50874000D01*
G75*
G02*
X14441000Y-51124000I0J-250000D01*
G01*
X14441000Y-51624000D01*
G75*
G02*
X14191000Y-51874000I-250000J0D01*
G01*
X13241000Y-51874000D01*
G75*
G02*
X12991000Y-51624000I0J250000D01*
G01*
X12991000Y-51124000D01*
G75*
G02*
X13241000Y-50874000I250000J0D01*
G01*
G37*
G36*
G01*
X13241000Y-52774000D02*
X14191000Y-52774000D01*
G75*
G02*
X14441000Y-53024000I0J-250000D01*
G01*
X14441000Y-53524000D01*
G75*
G02*
X14191000Y-53774000I-250000J0D01*
G01*
X13241000Y-53774000D01*
G75*
G02*
X12991000Y-53524000I0J250000D01*
G01*
X12991000Y-53024000D01*
G75*
G02*
X13241000Y-52774000I250000J0D01*
G01*
G37*
G36*
G01*
X24834000Y-45687000D02*
X24834000Y-44737000D01*
G75*
G02*
X25084000Y-44487000I250000J0D01*
G01*
X25584000Y-44487000D01*
G75*
G02*
X25834000Y-44737000I0J-250000D01*
G01*
X25834000Y-45687000D01*
G75*
G02*
X25584000Y-45937000I-250000J0D01*
G01*
X25084000Y-45937000D01*
G75*
G02*
X24834000Y-45687000I0J250000D01*
G01*
G37*
G36*
G01*
X22934000Y-45687000D02*
X22934000Y-44737000D01*
G75*
G02*
X23184000Y-44487000I250000J0D01*
G01*
X23684000Y-44487000D01*
G75*
G02*
X23934000Y-44737000I0J-250000D01*
G01*
X23934000Y-45687000D01*
G75*
G02*
X23684000Y-45937000I-250000J0D01*
G01*
X23184000Y-45937000D01*
G75*
G02*
X22934000Y-45687000I0J250000D01*
G01*
G37*
G36*
G01*
X30046000Y-51275000D02*
X30046000Y-50325000D01*
G75*
G02*
X30296000Y-50075000I250000J0D01*
G01*
X30796000Y-50075000D01*
G75*
G02*
X31046000Y-50325000I0J-250000D01*
G01*
X31046000Y-51275000D01*
G75*
G02*
X30796000Y-51525000I-250000J0D01*
G01*
X30296000Y-51525000D01*
G75*
G02*
X30046000Y-51275000I0J250000D01*
G01*
G37*
G36*
G01*
X31946000Y-51275000D02*
X31946000Y-50325000D01*
G75*
G02*
X32196000Y-50075000I250000J0D01*
G01*
X32696000Y-50075000D01*
G75*
G02*
X32946000Y-50325000I0J-250000D01*
G01*
X32946000Y-51275000D01*
G75*
G02*
X32696000Y-51525000I-250000J0D01*
G01*
X32196000Y-51525000D01*
G75*
G02*
X31946000Y-51275000I0J250000D01*
G01*
G37*
G36*
G01*
X18702000Y-60902000D02*
X19652000Y-60902000D01*
G75*
G02*
X19902000Y-61152000I0J-250000D01*
G01*
X19902000Y-61652000D01*
G75*
G02*
X19652000Y-61902000I-250000J0D01*
G01*
X18702000Y-61902000D01*
G75*
G02*
X18452000Y-61652000I0J250000D01*
G01*
X18452000Y-61152000D01*
G75*
G02*
X18702000Y-60902000I250000J0D01*
G01*
G37*
G36*
G01*
X18702000Y-59002000D02*
X19652000Y-59002000D01*
G75*
G02*
X19902000Y-59252000I0J-250000D01*
G01*
X19902000Y-59752000D01*
G75*
G02*
X19652000Y-60002000I-250000J0D01*
G01*
X18702000Y-60002000D01*
G75*
G02*
X18452000Y-59752000I0J250000D01*
G01*
X18452000Y-59252000D01*
G75*
G02*
X18702000Y-59002000I250000J0D01*
G01*
G37*
G36*
G01*
X15400000Y-50874000D02*
X16350000Y-50874000D01*
G75*
G02*
X16600000Y-51124000I0J-250000D01*
G01*
X16600000Y-51624000D01*
G75*
G02*
X16350000Y-51874000I-250000J0D01*
G01*
X15400000Y-51874000D01*
G75*
G02*
X15150000Y-51624000I0J250000D01*
G01*
X15150000Y-51124000D01*
G75*
G02*
X15400000Y-50874000I250000J0D01*
G01*
G37*
G36*
G01*
X15400000Y-52774000D02*
X16350000Y-52774000D01*
G75*
G02*
X16600000Y-53024000I0J-250000D01*
G01*
X16600000Y-53524000D01*
G75*
G02*
X16350000Y-53774000I-250000J0D01*
G01*
X15400000Y-53774000D01*
G75*
G02*
X15150000Y-53524000I0J250000D01*
G01*
X15150000Y-53024000D01*
G75*
G02*
X15400000Y-52774000I250000J0D01*
G01*
G37*
G36*
G01*
X16563000Y-48928000D02*
X16563000Y-49878000D01*
G75*
G02*
X16313000Y-50128000I-250000J0D01*
G01*
X15813000Y-50128000D01*
G75*
G02*
X15563000Y-49878000I0J250000D01*
G01*
X15563000Y-48928000D01*
G75*
G02*
X15813000Y-48678000I250000J0D01*
G01*
X16313000Y-48678000D01*
G75*
G02*
X16563000Y-48928000I0J-250000D01*
G01*
G37*
G36*
G01*
X14663000Y-48928000D02*
X14663000Y-49878000D01*
G75*
G02*
X14413000Y-50128000I-250000J0D01*
G01*
X13913000Y-50128000D01*
G75*
G02*
X13663000Y-49878000I0J250000D01*
G01*
X13663000Y-48928000D01*
G75*
G02*
X13913000Y-48678000I250000J0D01*
G01*
X14413000Y-48678000D01*
G75*
G02*
X14663000Y-48928000I0J-250000D01*
G01*
G37*
G36*
G01*
X43741000Y-61120000D02*
X43741000Y-62070000D01*
G75*
G02*
X43491000Y-62320000I-250000J0D01*
G01*
X42991000Y-62320000D01*
G75*
G02*
X42741000Y-62070000I0J250000D01*
G01*
X42741000Y-61120000D01*
G75*
G02*
X42991000Y-60870000I250000J0D01*
G01*
X43491000Y-60870000D01*
G75*
G02*
X43741000Y-61120000I0J-250000D01*
G01*
G37*
G36*
G01*
X41841000Y-61120000D02*
X41841000Y-62070000D01*
G75*
G02*
X41591000Y-62320000I-250000J0D01*
G01*
X41091000Y-62320000D01*
G75*
G02*
X40841000Y-62070000I0J250000D01*
G01*
X40841000Y-61120000D01*
G75*
G02*
X41091000Y-60870000I250000J0D01*
G01*
X41591000Y-60870000D01*
G75*
G02*
X41841000Y-61120000I0J-250000D01*
G01*
G37*
G36*
G01*
X42852000Y-34577000D02*
X42852000Y-35527000D01*
G75*
G02*
X42602000Y-35777000I-250000J0D01*
G01*
X42102000Y-35777000D01*
G75*
G02*
X41852000Y-35527000I0J250000D01*
G01*
X41852000Y-34577000D01*
G75*
G02*
X42102000Y-34327000I250000J0D01*
G01*
X42602000Y-34327000D01*
G75*
G02*
X42852000Y-34577000I0J-250000D01*
G01*
G37*
G36*
G01*
X40952000Y-34577000D02*
X40952000Y-35527000D01*
G75*
G02*
X40702000Y-35777000I-250000J0D01*
G01*
X40202000Y-35777000D01*
G75*
G02*
X39952000Y-35527000I0J250000D01*
G01*
X39952000Y-34577000D01*
G75*
G02*
X40202000Y-34327000I250000J0D01*
G01*
X40702000Y-34327000D01*
G75*
G02*
X40952000Y-34577000I0J-250000D01*
G01*
G37*
G36*
G01*
X43508000Y-35527000D02*
X43508000Y-34577000D01*
G75*
G02*
X43758000Y-34327000I250000J0D01*
G01*
X44258000Y-34327000D01*
G75*
G02*
X44508000Y-34577000I0J-250000D01*
G01*
X44508000Y-35527000D01*
G75*
G02*
X44258000Y-35777000I-250000J0D01*
G01*
X43758000Y-35777000D01*
G75*
G02*
X43508000Y-35527000I0J250000D01*
G01*
G37*
G36*
G01*
X45408000Y-35527000D02*
X45408000Y-34577000D01*
G75*
G02*
X45658000Y-34327000I250000J0D01*
G01*
X46158000Y-34327000D01*
G75*
G02*
X46408000Y-34577000I0J-250000D01*
G01*
X46408000Y-35527000D01*
G75*
G02*
X46158000Y-35777000I-250000J0D01*
G01*
X45658000Y-35777000D01*
G75*
G02*
X45408000Y-35527000I0J250000D01*
G01*
G37*
G36*
G01*
X48318000Y-35593000D02*
X48318000Y-36543000D01*
G75*
G02*
X48068000Y-36793000I-250000J0D01*
G01*
X47568000Y-36793000D01*
G75*
G02*
X47318000Y-36543000I0J250000D01*
G01*
X47318000Y-35593000D01*
G75*
G02*
X47568000Y-35343000I250000J0D01*
G01*
X48068000Y-35343000D01*
G75*
G02*
X48318000Y-35593000I0J-250000D01*
G01*
G37*
G36*
G01*
X50218000Y-35593000D02*
X50218000Y-36543000D01*
G75*
G02*
X49968000Y-36793000I-250000J0D01*
G01*
X49468000Y-36793000D01*
G75*
G02*
X49218000Y-36543000I0J250000D01*
G01*
X49218000Y-35593000D01*
G75*
G02*
X49468000Y-35343000I250000J0D01*
G01*
X49968000Y-35343000D01*
G75*
G02*
X50218000Y-35593000I0J-250000D01*
G01*
G37*
G36*
G01*
X48318000Y-41689000D02*
X48318000Y-42639000D01*
G75*
G02*
X48068000Y-42889000I-250000J0D01*
G01*
X47568000Y-42889000D01*
G75*
G02*
X47318000Y-42639000I0J250000D01*
G01*
X47318000Y-41689000D01*
G75*
G02*
X47568000Y-41439000I250000J0D01*
G01*
X48068000Y-41439000D01*
G75*
G02*
X48318000Y-41689000I0J-250000D01*
G01*
G37*
G36*
G01*
X50218000Y-41689000D02*
X50218000Y-42639000D01*
G75*
G02*
X49968000Y-42889000I-250000J0D01*
G01*
X49468000Y-42889000D01*
G75*
G02*
X49218000Y-42639000I0J250000D01*
G01*
X49218000Y-41689000D01*
G75*
G02*
X49468000Y-41439000I250000J0D01*
G01*
X49968000Y-41439000D01*
G75*
G02*
X50218000Y-41689000I0J-250000D01*
G01*
G37*
G36*
G01*
X22918000Y-77249000D02*
X22918000Y-78199000D01*
G75*
G02*
X22668000Y-78449000I-250000J0D01*
G01*
X22168000Y-78449000D01*
G75*
G02*
X21918000Y-78199000I0J250000D01*
G01*
X21918000Y-77249000D01*
G75*
G02*
X22168000Y-76999000I250000J0D01*
G01*
X22668000Y-76999000D01*
G75*
G02*
X22918000Y-77249000I0J-250000D01*
G01*
G37*
G36*
G01*
X24818000Y-77249000D02*
X24818000Y-78199000D01*
G75*
G02*
X24568000Y-78449000I-250000J0D01*
G01*
X24068000Y-78449000D01*
G75*
G02*
X23818000Y-78199000I0J250000D01*
G01*
X23818000Y-77249000D01*
G75*
G02*
X24068000Y-76999000I250000J0D01*
G01*
X24568000Y-76999000D01*
G75*
G02*
X24818000Y-77249000I0J-250000D01*
G01*
G37*
G36*
G01*
X41623000Y-72956000D02*
X40673000Y-72956000D01*
G75*
G02*
X40423000Y-72706000I0J250000D01*
G01*
X40423000Y-72206000D01*
G75*
G02*
X40673000Y-71956000I250000J0D01*
G01*
X41623000Y-71956000D01*
G75*
G02*
X41873000Y-72206000I0J-250000D01*
G01*
X41873000Y-72706000D01*
G75*
G02*
X41623000Y-72956000I-250000J0D01*
G01*
G37*
G36*
G01*
X41623000Y-74856000D02*
X40673000Y-74856000D01*
G75*
G02*
X40423000Y-74606000I0J250000D01*
G01*
X40423000Y-74106000D01*
G75*
G02*
X40673000Y-73856000I250000J0D01*
G01*
X41623000Y-73856000D01*
G75*
G02*
X41873000Y-74106000I0J-250000D01*
G01*
X41873000Y-74606000D01*
G75*
G02*
X41623000Y-74856000I-250000J0D01*
G01*
G37*
G36*
G01*
X47531000Y-73988000D02*
X48481000Y-73988000D01*
G75*
G02*
X48731000Y-74238000I0J-250000D01*
G01*
X48731000Y-74738000D01*
G75*
G02*
X48481000Y-74988000I-250000J0D01*
G01*
X47531000Y-74988000D01*
G75*
G02*
X47281000Y-74738000I0J250000D01*
G01*
X47281000Y-74238000D01*
G75*
G02*
X47531000Y-73988000I250000J0D01*
G01*
G37*
G36*
G01*
X47531000Y-75888000D02*
X48481000Y-75888000D01*
G75*
G02*
X48731000Y-76138000I0J-250000D01*
G01*
X48731000Y-76638000D01*
G75*
G02*
X48481000Y-76888000I-250000J0D01*
G01*
X47531000Y-76888000D01*
G75*
G02*
X47281000Y-76638000I0J250000D01*
G01*
X47281000Y-76138000D01*
G75*
G02*
X47531000Y-75888000I250000J0D01*
G01*
G37*
G36*
G01*
X31554000Y-11209000D02*
X31554000Y-12159000D01*
G75*
G02*
X31304000Y-12409000I-250000J0D01*
G01*
X30804000Y-12409000D01*
G75*
G02*
X30554000Y-12159000I0J250000D01*
G01*
X30554000Y-11209000D01*
G75*
G02*
X30804000Y-10959000I250000J0D01*
G01*
X31304000Y-10959000D01*
G75*
G02*
X31554000Y-11209000I0J-250000D01*
G01*
G37*
G36*
G01*
X33454000Y-11209000D02*
X33454000Y-12159000D01*
G75*
G02*
X33204000Y-12409000I-250000J0D01*
G01*
X32704000Y-12409000D01*
G75*
G02*
X32454000Y-12159000I0J250000D01*
G01*
X32454000Y-11209000D01*
G75*
G02*
X32704000Y-10959000I250000J0D01*
G01*
X33204000Y-10959000D01*
G75*
G02*
X33454000Y-11209000I0J-250000D01*
G01*
G37*
G36*
G01*
X26364250Y-82608000D02*
X25451750Y-82608000D01*
G75*
G02*
X25208000Y-82364250I0J243750D01*
G01*
X25208000Y-81876750D01*
G75*
G02*
X25451750Y-81633000I243750J0D01*
G01*
X26364250Y-81633000D01*
G75*
G02*
X26608000Y-81876750I0J-243750D01*
G01*
X26608000Y-82364250D01*
G75*
G02*
X26364250Y-82608000I-243750J0D01*
G01*
G37*
G36*
G01*
X26364250Y-84483000D02*
X25451750Y-84483000D01*
G75*
G02*
X25208000Y-84239250I0J243750D01*
G01*
X25208000Y-83751750D01*
G75*
G02*
X25451750Y-83508000I243750J0D01*
G01*
X26364250Y-83508000D01*
G75*
G02*
X26608000Y-83751750I0J-243750D01*
G01*
X26608000Y-84239250D01*
G75*
G02*
X26364250Y-84483000I-243750J0D01*
G01*
G37*
D17*
X28304000Y-73340000D03*
X28304000Y-72390000D03*
X28304000Y-71440000D03*
X30624000Y-71440000D03*
X30624000Y-72390000D03*
X30624000Y-73340000D03*
G36*
G01*
X40588250Y-84483000D02*
X39675750Y-84483000D01*
G75*
G02*
X39432000Y-84239250I0J243750D01*
G01*
X39432000Y-83751750D01*
G75*
G02*
X39675750Y-83508000I243750J0D01*
G01*
X40588250Y-83508000D01*
G75*
G02*
X40832000Y-83751750I0J-243750D01*
G01*
X40832000Y-84239250D01*
G75*
G02*
X40588250Y-84483000I-243750J0D01*
G01*
G37*
G36*
G01*
X40588250Y-82608000D02*
X39675750Y-82608000D01*
G75*
G02*
X39432000Y-82364250I0J243750D01*
G01*
X39432000Y-81876750D01*
G75*
G02*
X39675750Y-81633000I243750J0D01*
G01*
X40588250Y-81633000D01*
G75*
G02*
X40832000Y-81876750I0J-243750D01*
G01*
X40832000Y-82364250D01*
G75*
G02*
X40588250Y-82608000I-243750J0D01*
G01*
G37*
D18*
X40652000Y-49632000D03*
X40652000Y-50732000D03*
X40652000Y-51832000D03*
X40652000Y-52932000D03*
X40652000Y-54032000D03*
X40652000Y-55132000D03*
X40652000Y-56232000D03*
X40652000Y-57332000D03*
D19*
X38052000Y-45957000D03*
X46352000Y-45957000D03*
X38052000Y-59707000D03*
X46352000Y-59707000D03*
D20*
X37420000Y-81894000D03*
X28620000Y-81894000D03*
X37420000Y-76394000D03*
X28620000Y-76394000D03*
D21*
X34620000Y-76394000D03*
X33820000Y-76394000D03*
X33020000Y-76394000D03*
X32220000Y-76394000D03*
X31420000Y-76394000D03*
D13*
X35220000Y-78994000D03*
X30820000Y-78994000D03*
D12*
X55880000Y-74295000D03*
D11*
X55880000Y-71755000D03*
X3810000Y-57785000D03*
D12*
X3810000Y-60325000D03*
D22*
X25400000Y-22210000D03*
X25400000Y-17160000D03*
D23*
X22860000Y-22210000D03*
X22860000Y-17160000D03*
X20320000Y-22210000D03*
X20320000Y-17160000D03*
X30480000Y-34910000D03*
X30480000Y-29860000D03*
X27940000Y-34910000D03*
X27940000Y-29860000D03*
D22*
X25400000Y-34910000D03*
X25400000Y-29860000D03*
G36*
G01*
X3722000Y-22190000D02*
X3722000Y-20990000D01*
G75*
G02*
X3972000Y-20740000I250000J0D01*
G01*
X5172000Y-20740000D01*
G75*
G02*
X5422000Y-20990000I0J-250000D01*
G01*
X5422000Y-22190000D01*
G75*
G02*
X5172000Y-22440000I-250000J0D01*
G01*
X3972000Y-22440000D01*
G75*
G02*
X3722000Y-22190000I0J250000D01*
G01*
G37*
D24*
X4572000Y-24130000D03*
X4572000Y-26670000D03*
X7112000Y-21590000D03*
X7112000Y-24130000D03*
X7112000Y-26670000D03*
G36*
G01*
X49393000Y-38481250D02*
X49393000Y-37718750D01*
G75*
G02*
X49611750Y-37500000I218750J0D01*
G01*
X50049250Y-37500000D01*
G75*
G02*
X50268000Y-37718750I0J-218750D01*
G01*
X50268000Y-38481250D01*
G75*
G02*
X50049250Y-38700000I-218750J0D01*
G01*
X49611750Y-38700000D01*
G75*
G02*
X49393000Y-38481250I0J218750D01*
G01*
G37*
G36*
G01*
X47268000Y-38481250D02*
X47268000Y-37718750D01*
G75*
G02*
X47486750Y-37500000I218750J0D01*
G01*
X47924250Y-37500000D01*
G75*
G02*
X48143000Y-37718750I0J-218750D01*
G01*
X48143000Y-38481250D01*
G75*
G02*
X47924250Y-38700000I-218750J0D01*
G01*
X47486750Y-38700000D01*
G75*
G02*
X47268000Y-38481250I0J218750D01*
G01*
G37*
G36*
G01*
X47268000Y-40513250D02*
X47268000Y-39750750D01*
G75*
G02*
X47486750Y-39532000I218750J0D01*
G01*
X47924250Y-39532000D01*
G75*
G02*
X48143000Y-39750750I0J-218750D01*
G01*
X48143000Y-40513250D01*
G75*
G02*
X47924250Y-40732000I-218750J0D01*
G01*
X47486750Y-40732000D01*
G75*
G02*
X47268000Y-40513250I0J218750D01*
G01*
G37*
G36*
G01*
X49393000Y-40513250D02*
X49393000Y-39750750D01*
G75*
G02*
X49611750Y-39532000I218750J0D01*
G01*
X50049250Y-39532000D01*
G75*
G02*
X50268000Y-39750750I0J-218750D01*
G01*
X50268000Y-40513250D01*
G75*
G02*
X50049250Y-40732000I-218750J0D01*
G01*
X49611750Y-40732000D01*
G75*
G02*
X49393000Y-40513250I0J218750D01*
G01*
G37*
D11*
X59944000Y-67056000D03*
D12*
X62484000Y-67056000D03*
D25*
X17891000Y-35626000D03*
X17891000Y-37526000D03*
X15891000Y-36576000D03*
X17891000Y-31943000D03*
X17891000Y-33843000D03*
X15891000Y-32893000D03*
X46371000Y-18034000D03*
X48371000Y-18984000D03*
X48371000Y-17084000D03*
G36*
G01*
X26866002Y-60052000D02*
X25965998Y-60052000D01*
G75*
G02*
X25716000Y-59802002I0J249998D01*
G01*
X25716000Y-59276998D01*
G75*
G02*
X25965998Y-59027000I249998J0D01*
G01*
X26866002Y-59027000D01*
G75*
G02*
X27116000Y-59276998I0J-249998D01*
G01*
X27116000Y-59802002D01*
G75*
G02*
X26866002Y-60052000I-249998J0D01*
G01*
G37*
G36*
G01*
X26866002Y-61877000D02*
X25965998Y-61877000D01*
G75*
G02*
X25716000Y-61627002I0J249998D01*
G01*
X25716000Y-61101998D01*
G75*
G02*
X25965998Y-60852000I249998J0D01*
G01*
X26866002Y-60852000D01*
G75*
G02*
X27116000Y-61101998I0J-249998D01*
G01*
X27116000Y-61627002D01*
G75*
G02*
X26866002Y-61877000I-249998J0D01*
G01*
G37*
G36*
G01*
X19361998Y-35151000D02*
X20262002Y-35151000D01*
G75*
G02*
X20512000Y-35400998I0J-249998D01*
G01*
X20512000Y-35926002D01*
G75*
G02*
X20262002Y-36176000I-249998J0D01*
G01*
X19361998Y-36176000D01*
G75*
G02*
X19112000Y-35926002I0J249998D01*
G01*
X19112000Y-35400998D01*
G75*
G02*
X19361998Y-35151000I249998J0D01*
G01*
G37*
G36*
G01*
X19361998Y-36976000D02*
X20262002Y-36976000D01*
G75*
G02*
X20512000Y-37225998I0J-249998D01*
G01*
X20512000Y-37751002D01*
G75*
G02*
X20262002Y-38001000I-249998J0D01*
G01*
X19361998Y-38001000D01*
G75*
G02*
X19112000Y-37751002I0J249998D01*
G01*
X19112000Y-37225998D01*
G75*
G02*
X19361998Y-36976000I249998J0D01*
G01*
G37*
G36*
G01*
X19361998Y-31468000D02*
X20262002Y-31468000D01*
G75*
G02*
X20512000Y-31717998I0J-249998D01*
G01*
X20512000Y-32243002D01*
G75*
G02*
X20262002Y-32493000I-249998J0D01*
G01*
X19361998Y-32493000D01*
G75*
G02*
X19112000Y-32243002I0J249998D01*
G01*
X19112000Y-31717998D01*
G75*
G02*
X19361998Y-31468000I249998J0D01*
G01*
G37*
G36*
G01*
X19361998Y-33293000D02*
X20262002Y-33293000D01*
G75*
G02*
X20512000Y-33542998I0J-249998D01*
G01*
X20512000Y-34068002D01*
G75*
G02*
X20262002Y-34318000I-249998J0D01*
G01*
X19361998Y-34318000D01*
G75*
G02*
X19112000Y-34068002I0J249998D01*
G01*
X19112000Y-33542998D01*
G75*
G02*
X19361998Y-33293000I249998J0D01*
G01*
G37*
G36*
G01*
X21520998Y-36976000D02*
X22421002Y-36976000D01*
G75*
G02*
X22671000Y-37225998I0J-249998D01*
G01*
X22671000Y-37751002D01*
G75*
G02*
X22421002Y-38001000I-249998J0D01*
G01*
X21520998Y-38001000D01*
G75*
G02*
X21271000Y-37751002I0J249998D01*
G01*
X21271000Y-37225998D01*
G75*
G02*
X21520998Y-36976000I249998J0D01*
G01*
G37*
G36*
G01*
X21520998Y-35151000D02*
X22421002Y-35151000D01*
G75*
G02*
X22671000Y-35400998I0J-249998D01*
G01*
X22671000Y-35926002D01*
G75*
G02*
X22421002Y-36176000I-249998J0D01*
G01*
X21520998Y-36176000D01*
G75*
G02*
X21271000Y-35926002I0J249998D01*
G01*
X21271000Y-35400998D01*
G75*
G02*
X21520998Y-35151000I249998J0D01*
G01*
G37*
G36*
G01*
X21520998Y-33293000D02*
X22421002Y-33293000D01*
G75*
G02*
X22671000Y-33542998I0J-249998D01*
G01*
X22671000Y-34068002D01*
G75*
G02*
X22421002Y-34318000I-249998J0D01*
G01*
X21520998Y-34318000D01*
G75*
G02*
X21271000Y-34068002I0J249998D01*
G01*
X21271000Y-33542998D01*
G75*
G02*
X21520998Y-33293000I249998J0D01*
G01*
G37*
G36*
G01*
X21520998Y-31468000D02*
X22421002Y-31468000D01*
G75*
G02*
X22671000Y-31717998I0J-249998D01*
G01*
X22671000Y-32243002D01*
G75*
G02*
X22421002Y-32493000I-249998J0D01*
G01*
X21520998Y-32493000D01*
G75*
G02*
X21271000Y-32243002I0J249998D01*
G01*
X21271000Y-31717998D01*
G75*
G02*
X21520998Y-31468000I249998J0D01*
G01*
G37*
G36*
G01*
X39947002Y-38208000D02*
X39046998Y-38208000D01*
G75*
G02*
X38797000Y-37958002I0J249998D01*
G01*
X38797000Y-37432998D01*
G75*
G02*
X39046998Y-37183000I249998J0D01*
G01*
X39947002Y-37183000D01*
G75*
G02*
X40197000Y-37432998I0J-249998D01*
G01*
X40197000Y-37958002D01*
G75*
G02*
X39947002Y-38208000I-249998J0D01*
G01*
G37*
G36*
G01*
X39947002Y-40033000D02*
X39046998Y-40033000D01*
G75*
G02*
X38797000Y-39783002I0J249998D01*
G01*
X38797000Y-39257998D01*
G75*
G02*
X39046998Y-39008000I249998J0D01*
G01*
X39947002Y-39008000D01*
G75*
G02*
X40197000Y-39257998I0J-249998D01*
G01*
X40197000Y-39783002D01*
G75*
G02*
X39947002Y-40033000I-249998J0D01*
G01*
G37*
G36*
G01*
X24793000Y-74987998D02*
X24793000Y-75888002D01*
G75*
G02*
X24543002Y-76138000I-249998J0D01*
G01*
X24017998Y-76138000D01*
G75*
G02*
X23768000Y-75888002I0J249998D01*
G01*
X23768000Y-74987998D01*
G75*
G02*
X24017998Y-74738000I249998J0D01*
G01*
X24543002Y-74738000D01*
G75*
G02*
X24793000Y-74987998I0J-249998D01*
G01*
G37*
G36*
G01*
X22968000Y-74987998D02*
X22968000Y-75888002D01*
G75*
G02*
X22718002Y-76138000I-249998J0D01*
G01*
X22192998Y-76138000D01*
G75*
G02*
X21943000Y-75888002I0J249998D01*
G01*
X21943000Y-74987998D01*
G75*
G02*
X22192998Y-74738000I249998J0D01*
G01*
X22718002Y-74738000D01*
G75*
G02*
X22968000Y-74987998I0J-249998D01*
G01*
G37*
G36*
G01*
X42771000Y-70808002D02*
X42771000Y-69907998D01*
G75*
G02*
X43020998Y-69658000I249998J0D01*
G01*
X43546002Y-69658000D01*
G75*
G02*
X43796000Y-69907998I0J-249998D01*
G01*
X43796000Y-70808002D01*
G75*
G02*
X43546002Y-71058000I-249998J0D01*
G01*
X43020998Y-71058000D01*
G75*
G02*
X42771000Y-70808002I0J249998D01*
G01*
G37*
G36*
G01*
X44596000Y-70808002D02*
X44596000Y-69907998D01*
G75*
G02*
X44845998Y-69658000I249998J0D01*
G01*
X45371002Y-69658000D01*
G75*
G02*
X45621000Y-69907998I0J-249998D01*
G01*
X45621000Y-70808002D01*
G75*
G02*
X45371002Y-71058000I-249998J0D01*
G01*
X44845998Y-71058000D01*
G75*
G02*
X44596000Y-70808002I0J249998D01*
G01*
G37*
G36*
G01*
X48368000Y-71939998D02*
X48368000Y-72840002D01*
G75*
G02*
X48118002Y-73090000I-249998J0D01*
G01*
X47592998Y-73090000D01*
G75*
G02*
X47343000Y-72840002I0J249998D01*
G01*
X47343000Y-71939998D01*
G75*
G02*
X47592998Y-71690000I249998J0D01*
G01*
X48118002Y-71690000D01*
G75*
G02*
X48368000Y-71939998I0J-249998D01*
G01*
G37*
G36*
G01*
X50193000Y-71939998D02*
X50193000Y-72840002D01*
G75*
G02*
X49943002Y-73090000I-249998J0D01*
G01*
X49417998Y-73090000D01*
G75*
G02*
X49168000Y-72840002I0J249998D01*
G01*
X49168000Y-71939998D01*
G75*
G02*
X49417998Y-71690000I249998J0D01*
G01*
X49943002Y-71690000D01*
G75*
G02*
X50193000Y-71939998I0J-249998D01*
G01*
G37*
G36*
G01*
X38500000Y-12134002D02*
X38500000Y-11233998D01*
G75*
G02*
X38749998Y-10984000I249998J0D01*
G01*
X39275002Y-10984000D01*
G75*
G02*
X39525000Y-11233998I0J-249998D01*
G01*
X39525000Y-12134002D01*
G75*
G02*
X39275002Y-12384000I-249998J0D01*
G01*
X38749998Y-12384000D01*
G75*
G02*
X38500000Y-12134002I0J249998D01*
G01*
G37*
G36*
G01*
X36675000Y-12134002D02*
X36675000Y-11233998D01*
G75*
G02*
X36924998Y-10984000I249998J0D01*
G01*
X37450002Y-10984000D01*
G75*
G02*
X37700000Y-11233998I0J-249998D01*
G01*
X37700000Y-12134002D01*
G75*
G02*
X37450002Y-12384000I-249998J0D01*
G01*
X36924998Y-12384000D01*
G75*
G02*
X36675000Y-12134002I0J249998D01*
G01*
G37*
G36*
G01*
X48796000Y-21139998D02*
X48796000Y-22040002D01*
G75*
G02*
X48546002Y-22290000I-249998J0D01*
G01*
X48020998Y-22290000D01*
G75*
G02*
X47771000Y-22040002I0J249998D01*
G01*
X47771000Y-21139998D01*
G75*
G02*
X48020998Y-20890000I249998J0D01*
G01*
X48546002Y-20890000D01*
G75*
G02*
X48796000Y-21139998I0J-249998D01*
G01*
G37*
G36*
G01*
X46971000Y-21139998D02*
X46971000Y-22040002D01*
G75*
G02*
X46721002Y-22290000I-249998J0D01*
G01*
X46195998Y-22290000D01*
G75*
G02*
X45946000Y-22040002I0J249998D01*
G01*
X45946000Y-21139998D01*
G75*
G02*
X46195998Y-20890000I249998J0D01*
G01*
X46721002Y-20890000D01*
G75*
G02*
X46971000Y-21139998I0J-249998D01*
G01*
G37*
G36*
G01*
X26943000Y-12769002D02*
X26943000Y-11868998D01*
G75*
G02*
X27192998Y-11619000I249998J0D01*
G01*
X27718002Y-11619000D01*
G75*
G02*
X27968000Y-11868998I0J-249998D01*
G01*
X27968000Y-12769002D01*
G75*
G02*
X27718002Y-13019000I-249998J0D01*
G01*
X27192998Y-13019000D01*
G75*
G02*
X26943000Y-12769002I0J249998D01*
G01*
G37*
G36*
G01*
X25118000Y-12769002D02*
X25118000Y-11868998D01*
G75*
G02*
X25367998Y-11619000I249998J0D01*
G01*
X25893002Y-11619000D01*
G75*
G02*
X26143000Y-11868998I0J-249998D01*
G01*
X26143000Y-12769002D01*
G75*
G02*
X25893002Y-13019000I-249998J0D01*
G01*
X25367998Y-13019000D01*
G75*
G02*
X25118000Y-12769002I0J249998D01*
G01*
G37*
G36*
G01*
X49841998Y-16609000D02*
X50742002Y-16609000D01*
G75*
G02*
X50992000Y-16858998I0J-249998D01*
G01*
X50992000Y-17384002D01*
G75*
G02*
X50742002Y-17634000I-249998J0D01*
G01*
X49841998Y-17634000D01*
G75*
G02*
X49592000Y-17384002I0J249998D01*
G01*
X49592000Y-16858998D01*
G75*
G02*
X49841998Y-16609000I249998J0D01*
G01*
G37*
G36*
G01*
X49841998Y-18434000D02*
X50742002Y-18434000D01*
G75*
G02*
X50992000Y-18683998I0J-249998D01*
G01*
X50992000Y-19209002D01*
G75*
G02*
X50742002Y-19459000I-249998J0D01*
G01*
X49841998Y-19459000D01*
G75*
G02*
X49592000Y-19209002I0J249998D01*
G01*
X49592000Y-18683998D01*
G75*
G02*
X49841998Y-18434000I249998J0D01*
G01*
G37*
G36*
G01*
X52000998Y-16609000D02*
X52901002Y-16609000D01*
G75*
G02*
X53151000Y-16858998I0J-249998D01*
G01*
X53151000Y-17384002D01*
G75*
G02*
X52901002Y-17634000I-249998J0D01*
G01*
X52000998Y-17634000D01*
G75*
G02*
X51751000Y-17384002I0J249998D01*
G01*
X51751000Y-16858998D01*
G75*
G02*
X52000998Y-16609000I249998J0D01*
G01*
G37*
G36*
G01*
X52000998Y-18434000D02*
X52901002Y-18434000D01*
G75*
G02*
X53151000Y-18683998I0J-249998D01*
G01*
X53151000Y-19209002D01*
G75*
G02*
X52901002Y-19459000I-249998J0D01*
G01*
X52000998Y-19459000D01*
G75*
G02*
X51751000Y-19209002I0J249998D01*
G01*
X51751000Y-18683998D01*
G75*
G02*
X52000998Y-18434000I249998J0D01*
G01*
G37*
D26*
X20618000Y-48228000D03*
X21118000Y-48228000D03*
X21618000Y-48228000D03*
X22118000Y-48228000D03*
X22618000Y-48228000D03*
X23118000Y-48228000D03*
X23618000Y-48228000D03*
X24118000Y-48228000D03*
X24618000Y-48228000D03*
X25118000Y-48228000D03*
X25618000Y-48228000D03*
X26118000Y-48228000D03*
D27*
X27718000Y-49828000D03*
X27718000Y-50328000D03*
X27718000Y-50828000D03*
X27718000Y-51328000D03*
X27718000Y-51828000D03*
X27718000Y-52328000D03*
X27718000Y-52828000D03*
X27718000Y-53328000D03*
X27718000Y-53828000D03*
X27718000Y-54328000D03*
X27718000Y-54828000D03*
X27718000Y-55328000D03*
D26*
X26118000Y-56928000D03*
X25618000Y-56928000D03*
X25118000Y-56928000D03*
X24618000Y-56928000D03*
X24118000Y-56928000D03*
X23618000Y-56928000D03*
X23118000Y-56928000D03*
X22618000Y-56928000D03*
X22118000Y-56928000D03*
X21618000Y-56928000D03*
X21118000Y-56928000D03*
X20618000Y-56928000D03*
D27*
X19018000Y-55328000D03*
X19018000Y-54828000D03*
X19018000Y-54328000D03*
X19018000Y-53828000D03*
X19018000Y-53328000D03*
X19018000Y-52828000D03*
X19018000Y-52328000D03*
X19018000Y-51828000D03*
X19018000Y-51328000D03*
X19018000Y-50828000D03*
X19018000Y-50328000D03*
X19018000Y-49828000D03*
G36*
G01*
X41213000Y-39928500D02*
X41213000Y-39803500D01*
G75*
G02*
X41275500Y-39741000I62500J0D01*
G01*
X42625500Y-39741000D01*
G75*
G02*
X42688000Y-39803500I0J-62500D01*
G01*
X42688000Y-39928500D01*
G75*
G02*
X42625500Y-39991000I-62500J0D01*
G01*
X41275500Y-39991000D01*
G75*
G02*
X41213000Y-39928500I0J62500D01*
G01*
G37*
G36*
G01*
X41213000Y-39428500D02*
X41213000Y-39303500D01*
G75*
G02*
X41275500Y-39241000I62500J0D01*
G01*
X42625500Y-39241000D01*
G75*
G02*
X42688000Y-39303500I0J-62500D01*
G01*
X42688000Y-39428500D01*
G75*
G02*
X42625500Y-39491000I-62500J0D01*
G01*
X41275500Y-39491000D01*
G75*
G02*
X41213000Y-39428500I0J62500D01*
G01*
G37*
G36*
G01*
X41213000Y-38928500D02*
X41213000Y-38803500D01*
G75*
G02*
X41275500Y-38741000I62500J0D01*
G01*
X42625500Y-38741000D01*
G75*
G02*
X42688000Y-38803500I0J-62500D01*
G01*
X42688000Y-38928500D01*
G75*
G02*
X42625500Y-38991000I-62500J0D01*
G01*
X41275500Y-38991000D01*
G75*
G02*
X41213000Y-38928500I0J62500D01*
G01*
G37*
G36*
G01*
X41213000Y-38428500D02*
X41213000Y-38303500D01*
G75*
G02*
X41275500Y-38241000I62500J0D01*
G01*
X42625500Y-38241000D01*
G75*
G02*
X42688000Y-38303500I0J-62500D01*
G01*
X42688000Y-38428500D01*
G75*
G02*
X42625500Y-38491000I-62500J0D01*
G01*
X41275500Y-38491000D01*
G75*
G02*
X41213000Y-38428500I0J62500D01*
G01*
G37*
G36*
G01*
X42813000Y-38053500D02*
X42813000Y-36703500D01*
G75*
G02*
X42875500Y-36641000I62500J0D01*
G01*
X43000500Y-36641000D01*
G75*
G02*
X43063000Y-36703500I0J-62500D01*
G01*
X43063000Y-38053500D01*
G75*
G02*
X43000500Y-38116000I-62500J0D01*
G01*
X42875500Y-38116000D01*
G75*
G02*
X42813000Y-38053500I0J62500D01*
G01*
G37*
G36*
G01*
X43313000Y-38053500D02*
X43313000Y-36703500D01*
G75*
G02*
X43375500Y-36641000I62500J0D01*
G01*
X43500500Y-36641000D01*
G75*
G02*
X43563000Y-36703500I0J-62500D01*
G01*
X43563000Y-38053500D01*
G75*
G02*
X43500500Y-38116000I-62500J0D01*
G01*
X43375500Y-38116000D01*
G75*
G02*
X43313000Y-38053500I0J62500D01*
G01*
G37*
G36*
G01*
X43813000Y-38053500D02*
X43813000Y-36703500D01*
G75*
G02*
X43875500Y-36641000I62500J0D01*
G01*
X44000500Y-36641000D01*
G75*
G02*
X44063000Y-36703500I0J-62500D01*
G01*
X44063000Y-38053500D01*
G75*
G02*
X44000500Y-38116000I-62500J0D01*
G01*
X43875500Y-38116000D01*
G75*
G02*
X43813000Y-38053500I0J62500D01*
G01*
G37*
G36*
G01*
X44313000Y-38053500D02*
X44313000Y-36703500D01*
G75*
G02*
X44375500Y-36641000I62500J0D01*
G01*
X44500500Y-36641000D01*
G75*
G02*
X44563000Y-36703500I0J-62500D01*
G01*
X44563000Y-38053500D01*
G75*
G02*
X44500500Y-38116000I-62500J0D01*
G01*
X44375500Y-38116000D01*
G75*
G02*
X44313000Y-38053500I0J62500D01*
G01*
G37*
G36*
G01*
X44688000Y-38428500D02*
X44688000Y-38303500D01*
G75*
G02*
X44750500Y-38241000I62500J0D01*
G01*
X46100500Y-38241000D01*
G75*
G02*
X46163000Y-38303500I0J-62500D01*
G01*
X46163000Y-38428500D01*
G75*
G02*
X46100500Y-38491000I-62500J0D01*
G01*
X44750500Y-38491000D01*
G75*
G02*
X44688000Y-38428500I0J62500D01*
G01*
G37*
G36*
G01*
X44688000Y-38928500D02*
X44688000Y-38803500D01*
G75*
G02*
X44750500Y-38741000I62500J0D01*
G01*
X46100500Y-38741000D01*
G75*
G02*
X46163000Y-38803500I0J-62500D01*
G01*
X46163000Y-38928500D01*
G75*
G02*
X46100500Y-38991000I-62500J0D01*
G01*
X44750500Y-38991000D01*
G75*
G02*
X44688000Y-38928500I0J62500D01*
G01*
G37*
G36*
G01*
X44688000Y-39428500D02*
X44688000Y-39303500D01*
G75*
G02*
X44750500Y-39241000I62500J0D01*
G01*
X46100500Y-39241000D01*
G75*
G02*
X46163000Y-39303500I0J-62500D01*
G01*
X46163000Y-39428500D01*
G75*
G02*
X46100500Y-39491000I-62500J0D01*
G01*
X44750500Y-39491000D01*
G75*
G02*
X44688000Y-39428500I0J62500D01*
G01*
G37*
G36*
G01*
X44688000Y-39928500D02*
X44688000Y-39803500D01*
G75*
G02*
X44750500Y-39741000I62500J0D01*
G01*
X46100500Y-39741000D01*
G75*
G02*
X46163000Y-39803500I0J-62500D01*
G01*
X46163000Y-39928500D01*
G75*
G02*
X46100500Y-39991000I-62500J0D01*
G01*
X44750500Y-39991000D01*
G75*
G02*
X44688000Y-39928500I0J62500D01*
G01*
G37*
G36*
G01*
X44313000Y-41528500D02*
X44313000Y-40178500D01*
G75*
G02*
X44375500Y-40116000I62500J0D01*
G01*
X44500500Y-40116000D01*
G75*
G02*
X44563000Y-40178500I0J-62500D01*
G01*
X44563000Y-41528500D01*
G75*
G02*
X44500500Y-41591000I-62500J0D01*
G01*
X44375500Y-41591000D01*
G75*
G02*
X44313000Y-41528500I0J62500D01*
G01*
G37*
G36*
G01*
X43813000Y-41528500D02*
X43813000Y-40178500D01*
G75*
G02*
X43875500Y-40116000I62500J0D01*
G01*
X44000500Y-40116000D01*
G75*
G02*
X44063000Y-40178500I0J-62500D01*
G01*
X44063000Y-41528500D01*
G75*
G02*
X44000500Y-41591000I-62500J0D01*
G01*
X43875500Y-41591000D01*
G75*
G02*
X43813000Y-41528500I0J62500D01*
G01*
G37*
G36*
G01*
X43313000Y-41528500D02*
X43313000Y-40178500D01*
G75*
G02*
X43375500Y-40116000I62500J0D01*
G01*
X43500500Y-40116000D01*
G75*
G02*
X43563000Y-40178500I0J-62500D01*
G01*
X43563000Y-41528500D01*
G75*
G02*
X43500500Y-41591000I-62500J0D01*
G01*
X43375500Y-41591000D01*
G75*
G02*
X43313000Y-41528500I0J62500D01*
G01*
G37*
G36*
G01*
X42813000Y-41528500D02*
X42813000Y-40178500D01*
G75*
G02*
X42875500Y-40116000I62500J0D01*
G01*
X43000500Y-40116000D01*
G75*
G02*
X43063000Y-40178500I0J-62500D01*
G01*
X43063000Y-41528500D01*
G75*
G02*
X43000500Y-41591000I-62500J0D01*
G01*
X42875500Y-41591000D01*
G75*
G02*
X42813000Y-41528500I0J62500D01*
G01*
G37*
D28*
X43688000Y-39116000D03*
D29*
X45296000Y-72456000D03*
X45296000Y-73406000D03*
X45296000Y-74356000D03*
X43096000Y-74356000D03*
X43096000Y-72456000D03*
D30*
X38702000Y-14097000D03*
X38702000Y-15367000D03*
X38702000Y-16637000D03*
X38702000Y-17907000D03*
X31402000Y-17907000D03*
X31402000Y-16637000D03*
X31402000Y-15367000D03*
X31402000Y-14097000D03*
D31*
X19070000Y-45212000D03*
X21570000Y-45212000D03*
G36*
G01*
X30805000Y-39842000D02*
X30805000Y-41692000D01*
G75*
G02*
X30555000Y-41942000I-250000J0D01*
G01*
X28980000Y-41942000D01*
G75*
G02*
X28730000Y-41692000I0J250000D01*
G01*
X28730000Y-39842000D01*
G75*
G02*
X28980000Y-39592000I250000J0D01*
G01*
X30555000Y-39592000D01*
G75*
G02*
X30805000Y-39842000I0J-250000D01*
G01*
G37*
G36*
G01*
X25880000Y-39841000D02*
X25880000Y-41693000D01*
G75*
G02*
X25631000Y-41942000I-249000J0D01*
G01*
X24054000Y-41942000D01*
G75*
G02*
X23805000Y-41693000I0J249000D01*
G01*
X23805000Y-39841000D01*
G75*
G02*
X24054000Y-39592000I249000J0D01*
G01*
X25631000Y-39592000D01*
G75*
G02*
X25880000Y-39841000I0J-249000D01*
G01*
G37*
G36*
G01*
X22647000Y-28411998D02*
X22647000Y-30262002D01*
G75*
G02*
X22397002Y-30512000I-249998J0D01*
G01*
X21571998Y-30512000D01*
G75*
G02*
X21322000Y-30262002I0J249998D01*
G01*
X21322000Y-28411998D01*
G75*
G02*
X21571998Y-28162000I249998J0D01*
G01*
X22397002Y-28162000D01*
G75*
G02*
X22647000Y-28411998I0J-249998D01*
G01*
G37*
G36*
G01*
X19572000Y-28412424D02*
X19572000Y-30261576D01*
G75*
G02*
X19321576Y-30512000I-250424J0D01*
G01*
X18497424Y-30512000D01*
G75*
G02*
X18247000Y-30261576I0J250424D01*
G01*
X18247000Y-28412424D01*
G75*
G02*
X18497424Y-28162000I250424J0D01*
G01*
X19321576Y-28162000D01*
G75*
G02*
X19572000Y-28412424I0J-250424D01*
G01*
G37*
G36*
G01*
X50137000Y-22040002D02*
X50137000Y-21139998D01*
G75*
G02*
X50386998Y-20890000I249998J0D01*
G01*
X50912002Y-20890000D01*
G75*
G02*
X51162000Y-21139998I0J-249998D01*
G01*
X51162000Y-22040002D01*
G75*
G02*
X50912002Y-22290000I-249998J0D01*
G01*
X50386998Y-22290000D01*
G75*
G02*
X50137000Y-22040002I0J249998D01*
G01*
G37*
G36*
G01*
X51962000Y-22040002D02*
X51962000Y-21139998D01*
G75*
G02*
X52211998Y-20890000I249998J0D01*
G01*
X52737002Y-20890000D01*
G75*
G02*
X52987000Y-21139998I0J-249998D01*
G01*
X52987000Y-22040002D01*
G75*
G02*
X52737002Y-22290000I-249998J0D01*
G01*
X52211998Y-22290000D01*
G75*
G02*
X51962000Y-22040002I0J249998D01*
G01*
G37*
M02*
