M48
; DRILL file {KiCad 5.1.12-84ad8e8a86~92~ubuntu18.04.1} date jue 20 ene 2022 14:34:46 CET
; FORMAT={-:-/ absolute / inch / decimal}
; #@! TF.CreationDate,2022-01-20T14:34:46+01:00
; #@! TF.GenerationSoftware,Kicad,Pcbnew,5.1.12-84ad8e8a86~92~ubuntu18.04.1
FMAT,2
INCH
T1C0.0118
T2C0.0120
T3C0.0180
T4C0.0394
T5C0.0709
T6C0.0354
T7C0.0945
%
G90
G05
T1
X1.7033Y-1.5233
X1.7033Y-1.5567
X1.7367Y-1.5233
X1.7367Y-1.5567
T2
X0.58Y-1.74
X0.615Y-1.735
X0.681Y-2.308
X0.69Y-2.18
X0.7Y-2.22
X0.795Y-1.995
X0.825Y-2.01
X0.88Y-1.8375
X0.92Y-1.33
X0.92Y-1.475
X0.945Y-0.505
X0.945Y-0.86
X0.945Y-0.89
X0.95Y-0.66
X0.95Y-0.69
X0.95Y-2.3
X1.04Y-3.105
X1.05Y-0.86
X1.05Y-0.89
X1.05Y-1.16
X1.05Y-1.19
X1.05Y-1.36
X1.05Y-1.39
X1.07Y-2.755
X1.2Y-1.085
X1.2Y-1.285
X1.235Y-0.86
X1.535Y-1.995
X1.535Y-2.245
X1.6Y-0.555
X1.695Y-2.98
X1.7Y-2.89
X1.73Y-2.89
X1.74Y-2.85
X1.74Y-2.93
X1.84Y-2.89
X2.01Y-2.85
X2.14Y-0.745
X2.29Y-0.835
T3
X0.08Y-2.58
X0.08Y-2.63
X0.505Y-1.945
X0.54Y-2.15
X0.604Y-2.365
X0.625Y-2.15
X0.665Y-1.255
X0.665Y-1.4
X0.6875Y-2.0975
X0.75Y-1.56
X0.815Y-2.335
X0.825Y-2.97
X0.825Y-3.06
X0.85Y-1.565
X0.86Y-0.875
X0.92Y-1.26
X0.92Y-1.405
X0.935Y-1.16
X0.935Y-1.205
X0.98Y-1.515
X1.02Y-1.515
X1.05Y-1.78
X1.06Y-0.63
X1.06Y-0.675
X1.06Y-0.72
X1.065Y-1.515
X1.065Y-1.56
X1.065Y-1.605
X1.065Y-1.65
X1.1Y-1.275
X1.17Y-0.555
X1.195Y-3.0075
X1.2225Y-0.395
X1.2625Y-2.8875
X1.27Y-3.095
X1.27Y-3.14
X1.33Y-2.0
X1.33Y-3.095
X1.33Y-3.14
X1.524Y-0.752
X1.54Y-1.38
X1.575Y-2.425
X1.5925Y-1.3175
X1.62Y-2.8
X1.631Y-1.459
X1.665Y-2.17
X1.8075Y-1.3175
X1.8075Y-1.46
X1.83Y-2.77
X1.8825Y-1.355
X2.09Y-2.945
X2.09Y-2.985
X2.13Y-2.865
X2.13Y-2.905
X2.13Y-2.945
X2.13Y-2.985
X2.165Y-0.675
X2.165Y-1.215
X2.325Y-0.495
X2.355Y-1.215
X2.38Y-0.935
T4
X0.15Y-2.275
X0.15Y-2.375
X0.18Y-0.85
X0.18Y-0.95
X0.18Y-1.05
X0.28Y-0.85
X0.28Y-0.95
X0.28Y-1.05
X0.36Y-1.4
X0.36Y-1.5
X0.36Y-1.6
X0.36Y-1.7
X2.2Y-2.825
X2.2Y-2.925
X2.36Y-2.64
X2.46Y-2.64
T5
X0.88Y-0.3627
X0.88Y-3.1973
X1.72Y-0.3627
X1.72Y-3.1973
T6
X0.5763Y-3.255
X0.7437Y-3.255
X1.2134Y-3.11
X1.3866Y-3.11
T7
X0.1189Y-2.9311
X0.7094Y-1.0295
X0.7094Y-2.6476
X1.0047Y-1.0295
X1.0047Y-2.6476
X1.3Y-1.0295
X1.3Y-2.6476
X1.5953Y-1.0295
X1.5953Y-2.6476
X1.8906Y-1.0295
X1.8906Y-2.6476
X2.4811Y-0.8819
X2.4811Y-1.1772
X2.4811Y-2.9311
T0
M30
