G04 #@! TF.GenerationSoftware,KiCad,Pcbnew,5.1.12-84ad8e8a86~92~ubuntu18.04.1*
G04 #@! TF.CreationDate,2022-01-20T14:35:06+01:00*
G04 #@! TF.ProjectId,pololu-3pi+-audio-expansion,706f6c6f-6c75-42d3-9370-692b2d617564,rev?*
G04 #@! TF.SameCoordinates,Original*
G04 #@! TF.FileFunction,Soldermask,Top*
G04 #@! TF.FilePolarity,Negative*
%FSLAX46Y46*%
G04 Gerber Fmt 4.6, Leading zero omitted, Abs format (unit mm)*
G04 Created by KiCad (PCBNEW 5.1.12-84ad8e8a86~92~ubuntu18.04.1) date 2022-01-20 14:35:06*
%MOMM*%
%LPD*%
G01*
G04 APERTURE LIST*
%ADD10C,2.000000*%
%ADD11R,1.190000X3.300000*%
%ADD12R,1.700000X1.700000*%
%ADD13O,1.700000X1.700000*%
%ADD14R,1.000000X1.250000*%
%ADD15C,0.900000*%
%ADD16C,2.500000*%
%ADD17O,3.800000X2.700000*%
%ADD18R,3.800000X2.700000*%
%ADD19R,1.000000X1.500000*%
%ADD20R,2.400000X0.740000*%
%ADD21C,1.700000*%
G04 APERTURE END LIST*
D10*
X57912000Y-44450000D03*
X8128000Y-61214000D03*
X33020000Y-1778000D03*
D11*
X60706000Y-12548000D03*
X58166000Y-18948000D03*
X55626000Y-12548000D03*
D12*
X9144000Y-43180000D03*
D13*
X9144000Y-40640000D03*
X9144000Y-38100000D03*
X9144000Y-35560000D03*
D14*
X9144000Y-79567000D03*
X9144000Y-71817000D03*
D15*
X14639000Y-82677000D03*
X18889000Y-82677000D03*
D16*
X18018760Y-26149300D03*
X25519380Y-26149300D03*
X33020000Y-26149300D03*
X40520620Y-26149300D03*
X48021240Y-26149300D03*
X63019940Y-22400260D03*
X63019940Y-29900880D03*
X3020060Y-74449940D03*
X63019940Y-74449940D03*
X48021240Y-67249040D03*
X40520620Y-67249040D03*
X33020000Y-67249040D03*
X25519380Y-67249040D03*
X18018760Y-67249040D03*
D17*
X22352000Y-9212000D03*
D18*
X22352000Y-81212000D03*
X43688000Y-81212000D03*
D17*
X43688000Y-9212000D03*
G36*
G01*
X55954000Y-31336000D02*
X55954000Y-30386000D01*
G75*
G02*
X56204000Y-30136000I250000J0D01*
G01*
X56704000Y-30136000D01*
G75*
G02*
X56954000Y-30386000I0J-250000D01*
G01*
X56954000Y-31336000D01*
G75*
G02*
X56704000Y-31586000I-250000J0D01*
G01*
X56204000Y-31586000D01*
G75*
G02*
X55954000Y-31336000I0J250000D01*
G01*
G37*
G36*
G01*
X57854000Y-31336000D02*
X57854000Y-30386000D01*
G75*
G02*
X58104000Y-30136000I250000J0D01*
G01*
X58604000Y-30136000D01*
G75*
G02*
X58854000Y-30386000I0J-250000D01*
G01*
X58854000Y-31336000D01*
G75*
G02*
X58604000Y-31586000I-250000J0D01*
G01*
X58104000Y-31586000D01*
G75*
G02*
X57854000Y-31336000I0J250000D01*
G01*
G37*
D19*
X59004000Y-23712000D03*
X55804000Y-23712000D03*
X59004000Y-28612000D03*
X55804000Y-28612000D03*
G36*
G01*
X57671000Y-78095000D02*
X57671000Y-76845000D01*
G75*
G02*
X57921000Y-76595000I250000J0D01*
G01*
X58671000Y-76595000D01*
G75*
G02*
X58921000Y-76845000I0J-250000D01*
G01*
X58921000Y-78095000D01*
G75*
G02*
X58671000Y-78345000I-250000J0D01*
G01*
X57921000Y-78345000D01*
G75*
G02*
X57671000Y-78095000I0J250000D01*
G01*
G37*
G36*
G01*
X54871000Y-78095000D02*
X54871000Y-76845000D01*
G75*
G02*
X55121000Y-76595000I250000J0D01*
G01*
X55871000Y-76595000D01*
G75*
G02*
X56121000Y-76845000I0J-250000D01*
G01*
X56121000Y-78095000D01*
G75*
G02*
X55871000Y-78345000I-250000J0D01*
G01*
X55121000Y-78345000D01*
G75*
G02*
X54871000Y-78095000I0J250000D01*
G01*
G37*
G36*
G01*
X54871000Y-80381000D02*
X54871000Y-79131000D01*
G75*
G02*
X55121000Y-78881000I250000J0D01*
G01*
X55871000Y-78881000D01*
G75*
G02*
X56121000Y-79131000I0J-250000D01*
G01*
X56121000Y-80381000D01*
G75*
G02*
X55871000Y-80631000I-250000J0D01*
G01*
X55121000Y-80631000D01*
G75*
G02*
X54871000Y-80381000I0J250000D01*
G01*
G37*
G36*
G01*
X57671000Y-80381000D02*
X57671000Y-79131000D01*
G75*
G02*
X57921000Y-78881000I250000J0D01*
G01*
X58671000Y-78881000D01*
G75*
G02*
X58921000Y-79131000I0J-250000D01*
G01*
X58921000Y-80381000D01*
G75*
G02*
X58671000Y-80631000I-250000J0D01*
G01*
X57921000Y-80631000D01*
G75*
G02*
X57671000Y-80381000I0J250000D01*
G01*
G37*
D20*
X4146000Y-64262000D03*
X8046000Y-64262000D03*
X4146000Y-65532000D03*
X8046000Y-65532000D03*
X4146000Y-66802000D03*
X8046000Y-66802000D03*
X4146000Y-68072000D03*
X8046000Y-68072000D03*
X4146000Y-69342000D03*
X8046000Y-69342000D03*
D15*
X35220000Y-78994000D03*
X30820000Y-78994000D03*
D13*
X55880000Y-74295000D03*
D12*
X55880000Y-71755000D03*
X3810000Y-57785000D03*
D13*
X3810000Y-60325000D03*
G36*
G01*
X3722000Y-22190000D02*
X3722000Y-20990000D01*
G75*
G02*
X3972000Y-20740000I250000J0D01*
G01*
X5172000Y-20740000D01*
G75*
G02*
X5422000Y-20990000I0J-250000D01*
G01*
X5422000Y-22190000D01*
G75*
G02*
X5172000Y-22440000I-250000J0D01*
G01*
X3972000Y-22440000D01*
G75*
G02*
X3722000Y-22190000I0J250000D01*
G01*
G37*
D21*
X4572000Y-24130000D03*
X4572000Y-26670000D03*
X7112000Y-21590000D03*
X7112000Y-24130000D03*
X7112000Y-26670000D03*
D12*
X59944000Y-67056000D03*
D13*
X62484000Y-67056000D03*
M02*
